<?xml version="1.0" standalone="no"?>
<!DOCTYPE svg PUBLIC "-//W3C//DTD SVG 1.1//EN" "http://www.w3.org/Graphics/SVG/1.1/DTD/svg11.dtd" >
<svg xmlns="http://www.w3.org/2000/svg" xmlns:xlink="http://www.w3.org/1999/xlink" version="1.1">
<metadata></metadata>
<defs>
<font id="beyond_the_mountainsregular" horiz-adv-x="1366" >
<font-face units-per-em="2048" ascent="1536" descent="-512" />
<missing-glyph horiz-adv-x="602" />
<glyph horiz-adv-x="0" />
<glyph horiz-adv-x="682" />
<glyph horiz-adv-x="0" />
<glyph horiz-adv-x="0" />
<glyph unicode="&#xd;" horiz-adv-x="602" />
<glyph unicode=" "  horiz-adv-x="602" />
<glyph unicode="&#x09;" horiz-adv-x="602" />
<glyph unicode="&#xa0;" horiz-adv-x="602" />
<glyph unicode="!" horiz-adv-x="608" d="M59 1268q7 161 17 289.5t20 229t10 114.5q0 23 2 33.5t10.5 22t28.5 16t54 5.5q67 3 129.5 -52t62.5 -105q0 -8 -21.5 -205.5t-41 -450.5t-15.5 -405q2 -71 13.5 -138.5t22 -102.5t15 -63.5t-6.5 -38.5t-44 -11q-84 -2 -140.5 73.5t-80.5 202t-33 276t-2 310.5zM68 160 q0 26 9 44t20.5 27t36.5 13.5t41.5 5t51.5 0.5h3.5h3.5h4q65 0 127.5 -63t62.5 -119q0 -75 -89 -71q-84 3 -180 62q-85 57 -91 101z" />
<glyph unicode="&#x22;" horiz-adv-x="782" d="M94.5 1269.5q0.5 19.5 5.5 42.5t10 69t5 94q0 50 -5.5 135t-5.5 92q0 33 42 70t87 36q42 0 53 -12t11 -39t1.5 -79t2 -87t-1.5 -85t-7 -84.5t-17 -72t-30 -60t-46.5 -37.5t-65.5 -15q-22 0 -30.5 6.5t-8 26zM409.5 1261q-3.5 32 9.5 102.5t13 111.5q0 50 -5 135t-5 92 q2 32 43.5 63t91.5 31q23 0 40 -28t17 -54v-62.5t-1 -63.5t-3.5 -67t-6.5 -63t-10.5 -61.5t-15 -53.5t-21 -47.5t-28.5 -34.5t-36.5 -24.5t-45.5 -7.5q-33 0 -36.5 32z" />
<glyph unicode="#" horiz-adv-x="1529" d="M-235 1051q-15 25 23 60q16 14 38 26q167 91 475 133q2 105 6.5 226.5t6.5 185.5t1 79q0 32 3 47t18.5 26.5t48.5 12.5q48 0 92.5 -61.5t46.5 -114.5q0 -39 -10 -381q156 8 332 2q4 95 10 200.5t9 164t3 72.5q-2 46 10 64.5t60 18.5q50 1 93.5 -46t43.5 -99 q0 -4 -22 -387q306 -25 463 -80q51 -18 57 -83q5 -58 -26 -91q-22 -23 -50 -14q-149 53 -457 82l-12 -252q310 -25 477 -82q50 -18 56 -83q6 -57 -24 -91q-21 -25 -50 -15q3 35 -465 60q-2 -39 -2 -109q0 -93 6.5 -179t15.5 -142t18.5 -105t16 -77t8 -48.5t-5.5 -28.5 t-24 -8q-189 3 -215 703q-166 6 -340 6q-3 -187 0 -313q2 -79 11 -154t17.5 -113.5t12 -70t-4.5 -42t-32 -11.5q-47 -1 -83.5 54t-59.5 156t-36.5 222t-19.5 272q-475 -4 -475 -41q0 -17 -20 -8q-26 12 -33 39q-9 37 39 63q175 94 483 135q-3 142 0 281q-292 -16 -459 -70 q-59 -19 -75 9zM504 850q156 8 334 2q-2 90 2 256q-182 10 -330 10q-1 -44 -3 -134t-3 -134z" />
<glyph unicode="$" horiz-adv-x="1189" d="M14 451q0 49 26 65.5t52.5 -3.5t26.5 -60q0 -27 26 -47t64 -29.5t70 -14t55 -4.5q82 0 123 4q-29 207 -29 562q-29 9 -79.5 23t-79.5 23t-69.5 22.5t-64 25.5t-46.5 27.5t-33.5 33.5t-10.5 39q0 115 116 236t290 207q2 36 4 75.5t3 60.5t1 29q-1 23 0 34.5t7 24t20 17.5 t38 6q48 1 90.5 -44.5t44.5 -94.5q0 -15 -2 -27q109 31 201 31q118 0 178 -97q41 -66 32 -130q-7 -49 -40 -49q-8 0 -69 9t-138 9q-71 0 -180 -31q-16 -231 -23 -389q69 -17 126.5 -36t114.5 -48t96 -63t63 -81.5t24 -102.5q0 -180 -113 -299t-292 -170q6 -38 18 -94 q13 -58 11.5 -80.5t-27.5 -22.5q-90 0 -143 168q-57 -8 -131 -8q-94 0 -172 31.5t-128.5 99.5t-50.5 162zM195 1098q0 -4 3.5 -8t11 -7.5t16.5 -6.5t23.5 -6.5t27.5 -6.5t33.5 -7t36 -7t40.5 -7.5t43 -7.5q0 18 6 264q-102 -54 -171.5 -111.5t-69.5 -88.5zM606 563 q0 -92 6 -166q154 68 154 254q0 122 -154 201q-8 -207 -6 -289z" />
<glyph unicode="%" horiz-adv-x="1611" d="M1 15q-16 37 24 73q32 29 73 29q74 0 163.5 70t176 184t183 260t186.5 298t185.5 298t180 260t170.5 184t156 70q69 0 74 -35q4 -22 -17 -33q-7 -4 -14 -4q-37 0 -113.5 -94.5t-173.5 -246.5t-210 -335t-232 -366t-229.5 -335t-212 -246.5t-170.5 -94.5q-172 0 -200 64z M203 1137q0 46 6.5 87t21 80.5t43 66t68.5 32.5q12 28 34.5 46t52 26.5t55 11t57.5 2.5q71 0 114 -59t43 -185q0 -71 -15.5 -136.5t-46.5 -122.5t-86 -91.5t-126 -34.5q-51 0 -91 17.5t-64 45.5t-39.5 65.5t-21 73.5t-5.5 75zM439 1076q-1 -37 2 -75t17.5 -57.5t41.5 -19.5 t54.5 51t42.5 123t18.5 144.5t-18.5 123.5t-67 51q-21 0 -30 -31.5t-20 -73t-34 -57.5q0 -33 -3 -87.5t-4 -91.5zM889 358q0 46 6.5 86.5t21 80t43 66t68.5 32.5q25 53 77.5 70.5t121.5 17.5q72 0 115.5 -59.5t43.5 -186.5q0 -70 -15.5 -135.5t-47 -122t-86 -91 t-125.5 -34.5q-64 0 -110 25.5t-69.5 68.5t-33.5 87.5t-10 94.5zM1126 297q-1 -37 1.5 -75.5t17 -58.5t41.5 -20q28 0 56 51t43 124t18.5 146t-18.5 124t-68 51q-21 0 -30 -31.5t-19.5 -73t-32.5 -57.5q0 -32 -4 -87.5t-5 -92.5z" />
<glyph unicode="&#x26;" horiz-adv-x="1216" d="M0 547q26 117 123.5 213t236.5 162q-19 13 -37 31.5t-40 51.5t-32.5 72.5t-14.5 94.5t14 118q20 93 102.5 168.5t198.5 114.5q-2 12 -2 37q0 44 59 178.5t84 134.5q32 0 78.5 -50t46.5 -89q0 -14 -10.5 -37.5t-37 -72t-34.5 -64.5q138 3 219 -51q55 -30 101 -101.5 t41 -105.5q-1 -2 -2.5 -5.5t-8 -10.5t-15 -10.5t-24.5 -1.5t-36 13q-18 11 -68.5 13.5t-118 -3.5t-143 -26t-141.5 -49t-115 -77.5t-62 -107.5q-4 -23 -4 -63q12 -10 28 -17.5t34 -11t35.5 -5.5t34.5 -2.5t29 0t22 0.5l10 1q123 34 235 33.5t172 -35.5q46 -29 85 -109.5 t28 -121.5q-2 -10 -49.5 -17.5t-123 -16t-167 -21t-186 -38t-176.5 -62.5t-142.5 -99.5t-79.5 -143.5q-3 -11 -4.5 -21.5t-0.5 -23t2 -18.5t4 -20t4 -17q11 -3 14 -6q69 -42 189 -32t231 42.5t200.5 61.5t98.5 24q21 -12 36.5 -88t6.5 -117q-3 -15 -67.5 -40.5t-153.5 -47.5 q-4 -10 -38 -73t-56.5 -125.5t-22.5 -118.5q0 -25 4.5 -46.5t15 -42.5t15 -28t17.5 -25q16 -20 14.5 -28t-29.5 -8q-73 0 -135 80.5t-62 222.5q0 63 31 166q-143 0 -207 39q-58 36 -97 82.5t-44 78.5q-57 67 -94.5 155t-18.5 163z" />
<glyph unicode="'" horiz-adv-x="430" d="M94.5 1269.5q0.5 19.5 5.5 42.5t10 69t5 94q0 50 -5.5 135t-5.5 92q0 33 42 70t87 36q42 0 53 -12t11 -39t1.5 -79t2 -87t-1.5 -85t-7 -84.5t-17 -72t-30 -60t-46.5 -37.5t-65.5 -15q-22 0 -30.5 6.5t-8 26z" />
<glyph unicode="(" horiz-adv-x="620" d="M-10 682q0 148 19 306.5t50 293t70 257t79 208t77.5 136t64.5 50.5q168 0 168 -149q0 -12 -31.5 -62t-76 -139.5t-89.5 -214.5t-76.5 -325t-31.5 -431q0 -92 7.5 -176t20.5 -149.5t28 -120t33 -99.5t32 -74.5t28 -57.5q11 -21 15 -30t8.5 -21t3.5 -16.5t-5.5 -9.5 t-14 -6.5t-25.5 -1.5q-51 0 -113 72.5t-115.5 186t-89.5 269t-36 304.5z" />
<glyph unicode=")" horiz-adv-x="620" d="M8 1784q0 149 168 149q33 0 79.5 -69.5t95 -194.5t90.5 -278.5t69 -342.5t27 -366q0 -149 -36.5 -304.5t-90 -269t-115.5 -186t-113 -72.5q-45 0 -45 19q0 13 33 79q99 195 128 423q15 114 15 241q0 231 -31.5 431t-76 325t-89.5 214.5t-76.5 139.5t-31.5 62z" />
<glyph unicode="*" horiz-adv-x="1105" d="M113.5 1274q11.5 21 52.5 35q93 31 192 47q-98 82 -151 123q-23 18 -28.5 41t6 38t32.5 19.5t51 -14.5q76 -50 195 -136q-4 152 -8 228q-2 38 21.5 57.5t50 5.5t32.5 -57q19 -156 29 -270q99 114 160 206q22 30 45 35t29 -17t-11 -63q-42 -89 -96 -168q108 -3 178 -14 q51 -12 62 -54t-16 -75.5t-69 -23.5q-109 21 -178 28q90 -76 146 -135q43 -38 21 -79q-18 -35 -62 -37q-38 -2 -70 26q-127 122 -131 125q3 -114 -6 -209q-1 -55 -43 -67q-38 -11 -70 21q-28 27 -28 71q1 20 6 112q-63 -60 -103 -88q-43 -28 -82 -6.5t-41.5 60.5t29.5 67 q115 82 195 154q-128 -3 -275 -27q-37 -7 -56.5 6.5t-8 34.5z" />
<glyph unicode="+" horiz-adv-x="1239" d="M67 871q17 34 72 42q225 27 393 39q0 202 -8 377q-1 21 4.5 39t16.5 28t24 16t27 3.5t26.5 -10.5t22 -26t12.5 -42q28 -226 37 -376q205 6 377 -9q68 -1 85 -52q16 -45 -19 -86.5t-97 -41.5q-243 12 -338 14q9 -205 -6 -380q-1 -67 -52 -84q-45 -15 -86.5 19.5 t-41.5 96.5q11 165 14 350q-203 0 -383 -8q-48 -3 -72.5 27t-7.5 64z" />
<glyph unicode="," horiz-adv-x="505" d="M95 -278q-21 41 26 135q22 44 31.5 105t8 109.5t-0.5 93t8 58.5q18 34 87.5 46.5t119.5 -11.5q13 -6 14.5 -66.5t-13.5 -146t-46 -147.5q-68 -137 -174 -187q-44 -21 -61 11z" />
<glyph unicode="-" horiz-adv-x="1222" d="M125.5 838q-3.5 24 17 46.5t62.5 28.5q33 4 108 14.5t102.5 14t87 10.5t94 8t88 2t105 -1.5t111.5 -8.5q68 -1 86 -51q15 -45 -19 -87q-36 -43 -98 -44q-264 16 -331 17.5t-326 -9.5q-36 -1 -60 17.5t-27.5 42.5z" />
<glyph unicode="." horiz-adv-x="536" d="M82 170q-3 59 40 115.5t114 56.5q95 0 145.5 -66t50.5 -145q0 -48 -75.5 -83.5t-151.5 -35.5q-61 0 -91 47.5t-32 110.5z" />
<glyph unicode="/" horiz-adv-x="1267" d="M23 -37q18 43 47 60q48 34 150.5 221t224.5 437t248.5 503.5t249 456.5t198.5 260q26 24 47.5 32.5t34.5 1.5t19.5 -20.5t4 -33.5t-13.5 -38q-39 -27 -133 -227.5t-210 -471t-239.5 -543.5t-246.5 -481.5t-205 -248.5q-133 -66 -174 -7q-26 38 -2 99z" />
<glyph unicode="0" horiz-adv-x="1310" d="M6 889q0 52 10 134t29 174t54 157t79 65q29 0 41 -2q118 395 434 395q96 0 173.5 -28.5t129 -74t90 -114t59.5 -136t33 -153.5t15.5 -153t3.5 -147q0 -102 -19 -229.5t-60 -265t-97.5 -251t-141.5 -187t-182 -73.5q-112 0 -205.5 30.5t-159.5 81t-117.5 122.5 t-82.5 149.5t-51 168t-27.5 171.5t-7.5 166zM311 715q0 -36 9 -103.5t32 -158.5t55 -170.5t85 -135t116 -55.5q85 0 148.5 150.5t92 353.5t28.5 410v8q0 659 -117 659q-78 0 -140.5 -63.5t-100.5 -168.5t-58.5 -234t-20.5 -267q0 -20 2.5 -45t5 -41t1.5 -32.5t-7 -26 t-21 -15.5t-40 -6q-32 0 -70 10v-69z" />
<glyph unicode="1" horiz-adv-x="905" d="M3 1129q-13 27 1 42q6 7 31.5 32t91.5 95q66 82 129 173.5t111.5 160.5t95.5 119q45 50 121 61q22 13 71 7q64 -6 115.5 -72t46.5 -117q0 -35 -27.5 -144.5t-60.5 -236t-60.5 -316.5t-27.5 -366q0 -77 3 -157t6.5 -133.5t6.5 -106t2.5 -84t-5.5 -57t-16.5 -36.5 t-31.5 -11q-56 0 -98.5 72.5t-65 189t-33 237.5t-10.5 242q0 131 27.5 323t54.5 318l27 127q-10 -16 -44.5 -70.5t-54 -83.5t-55.5 -76t-73 -87q-111 -120 -208 -97q-51 12 -70 52z" />
<glyph unicode="2" horiz-adv-x="1460" d="M0 117q0 28 20.5 61t73.5 60q34 21 90 32q34 9 78 15l156 8q139 188 234.5 425.5t95.5 455.5q0 230 -18 322q-27 129 -91 130q-52 0 -117 -90t-107 -192.5t-42 -149.5q0 -19 2.5 -42.5t4.5 -38t1 -30t-7 -24t-20 -14t-37 -5.5q-71 0 -131.5 47t-60.5 99q0 21 2.5 53.5 t13 89t27.5 111t49 113.5t74 103t107 72.5t143 28.5q473 0 473 -583q0 -189 -111.5 -432.5t-277.5 -442.5q157 -3 301.5 -22t263.5 -53t187.5 -88.5t62.5 -121.5q-6 -76 -43.5 -116t-87.5 -35q-9 1 -50.5 27t-97 61.5t-151 78.5t-195.5 72q-156 50 -307 72 q-192 -182 -336 -182q-91 0 -131.5 39t-40.5 86zM84 80h2q-2 -18 7 -29.5t26 -11.5q79 0 215 149q-72 3 -135 -10q-25 -3 -43 -12q-72 -29 -72 -86z" />
<glyph unicode="3" horiz-adv-x="1144" d="M4 373q13 73 54 87q30 10 48 -23q13 -24 7 -62q-6 -32 15.5 -56.5t57 -37t67 -18t54.5 -5.5q228 0 367 146q106 112 120 262q13 143 -64 236q-68 84 -189 93q-121 -29 -171.5 -17.5t-45.5 60.5q4 43 64.5 56.5t150.5 1.5q44 10 83 38t66 68t47.5 88.5t27.5 100.5t5.5 103 t-17.5 96t-42 80t-68.5 55t-95.5 20q-73 0 -152.5 -98.5t-95.5 -243.5q-2 -31 -1 -57.5t-0.5 -45.5t-21.5 -29.5t-63 -10.5q-84 0 -117 34t-28 86q2 17 10 44.5t26 69.5t42.5 84.5t63.5 86t85.5 77t112 54.5t139.5 21q125 0 218 -42.5t140.5 -110t62 -152.5t-6.5 -168 t-77 -159.5t-139 -123.5q227 -62 291 -242q56 -158 -26 -354q-76 -180 -232 -307q-184 -148 -391 -148q-78 0 -151 23.5t-130 67.5t-85.5 115t-14.5 157z" />
<glyph unicode="4" horiz-adv-x="1236" d="M0 563q0 2 1 4.5t1 3.5q-9 81 23.5 179.5t91.5 194t133 193t152 187.5t144 167t113 141.5t56 101.5q0 12 4 28q3 14 12 23q23 19 88 22q71 1 137 -62.5t68 -119.5q0 -13 -17 -178.5t-37 -407.5t-26 -422q72 7 100 7q93 0 136 -74q25 -43 17 -72q-4 -9 -11 -10 q-7 0 -47 11.5t-109 11.5q-32 0 -90 -7q0 -52 2 -77q2 -83 14 -160.5t23.5 -118t16.5 -73t-7 -44t-47 -12.5q-56 -1 -100.5 31.5t-75 95.5t-50.5 142t-32 180q-15 -2 -72.5 -12t-79 -13.5t-71.5 -11.5t-78 -11.5t-68.5 -8t-74 -6t-64.5 -1.5q-46 0 -82 19t-55.5 47.5 t-29 57.5t-9.5 54zM188 559h7q151 0 477 33q-19 299 14 756q-98 -119 -167.5 -208t-147.5 -200.5t-124.5 -208t-58.5 -172.5z" />
<glyph unicode="5" horiz-adv-x="1320" d="M2 322q6 66 45 78q30 10 50 -20q15 -22 12 -56q-4 -40 21.5 -65.5t55.5 -33.5t60 -8q75 0 185.5 57.5t214 145.5t181.5 206.5t88 227.5q5 70 2 125t-31 89t-83 34q-74 0 -149 -13.5t-138.5 -36t-108.5 -42t-88 -41.5t-49 -25q-12 -12 -39 -12q-61 -1 -98 39t-48.5 107.5 t-10.5 148t14 167.5t26 158t25 128t13 69q1 15 3 22.5t8.5 16t21.5 12t40 4.5q35 2 101 -28h2q130 0 384 33.5t289 33.5q53 0 84 -42.5t27.5 -79t-12.5 -42.5q-5 0 -36 11.5t-85 11.5q-82 0 -298.5 -49.5t-301.5 -59.5q-80 -216 -92 -405q-4 -43 -4 -111q2 0 4 2 q2 0 88.5 34.5t205.5 62.5t240 28q103 0 178 -22t115 -54.5t62 -80t26 -89t0 -90.5q-11 -123 -63 -242t-129.5 -213.5t-174 -175t-197.5 -134t-199 -83.5t-179 -30q-43 0 -89.5 22t-87.5 61.5t-64.5 105t-16.5 143.5z" />
<glyph unicode="6" horiz-adv-x="1277" d="M0 909.5q2 66.5 6 122.5q7 62 16 115.5t26 121.5t38.5 124.5t55 119t75 111.5t100 94.5t127.5 75.5t159 48t194 18q76 0 137 -24.5t98.5 -63t63.5 -90t38 -100t17 -99t4.5 -81.5t-2.5 -52q-7 -63 -55 -103.5t-146 -40.5q-41 0 -62 7.5t-24 24.5t0.5 34t12 48t10.5 54 q20 169 -36.5 255.5t-145.5 86.5q-82 0 -149.5 -54t-113 -148t-74.5 -211.5t-40 -253.5q147 94 372 94q201 0 326 -158q109 -139 121 -343q12 -211 -89 -379q-115 -194 -338 -245q-72 -16 -151 -16q-76 0 -144 24.5t-120.5 67.5t-98.5 101.5t-78 127t-58.5 143.5t-40 151.5 t-23.5 151t-8 141zM338 653q18 -157 58.5 -280t107 -200t149.5 -77q79 0 137.5 99t78 240t13.5 282.5t-56.5 240.5t-131.5 99q-60 0 -109.5 -24.5t-80 -64.5t-53 -84t-33 -88.5t-15 -73t-4.5 -42.5q0 -10 -17.5 -17.5t-43.5 -9.5z" />
<glyph unicode="7" horiz-adv-x="1183" d="M34 1679q7 55 58 109q56 59 133 65q82 6 260 -8.5t303 -13.5q92 8 124 12.5t53 5.5q9 0 18 -6q4 -1 39 -14q61 -28 91.5 -111.5t8.5 -132.5q-1 -2 -130 -242t-278.5 -529.5t-219.5 -446.5q-19 -43 -34.5 -86.5t-24.5 -76t-16.5 -64t-11.5 -53.5t-9 -40.5t-10 -29 t-13.5 -16.5t-20.5 -4.5t-30 9.5q-327 146 487 1630q-8 -2 -23 -2q-98 -8 -202 1.5t-194 20t-154 5.5q-89 -7 -126.5 -13.5t-56.5 -7.5q-26 -2 -21 39z" />
<glyph unicode="8" horiz-adv-x="1210" d="M0 537q0 35 12 94q9 51 26 100.5t48.5 109.5t87.5 112.5t129 86.5q-51 26 -88 65.5t-57 85.5t-28.5 91.5t-8.5 93.5q0 49 6.5 94t23.5 92t44 83t71 62t101 34q18 31 49.5 54t65 35t78.5 19t80 9t79 2q127 0 204.5 -81t77.5 -255q0 -137 -54 -260.5t-163 -192.5 q68 -18 121 -48.5t85.5 -70.5t54.5 -80.5t32 -90.5t13.5 -89t3.5 -86q0 -61 -19 -138t-61.5 -159.5t-101 -151t-146 -113t-188.5 -44.5q-91 0 -167 11.5t-131.5 30t-99.5 48.5t-73 60t-50 72t-31.5 76t-16.5 81.5t-7.5 80t-1.5 77.5zM344.5 406.5q2.5 -95.5 17 -171.5 t56.5 -128t108 -52t121 53t88 136t50.5 177t17.5 185v47.5t-1.5 57.5t-4.5 68.5t-8 66t-14.5 64.5t-21.5 50t-30.5 37.5t-40.5 12.5q-102 0 -183.5 -58.5t-129.5 -154.5q2 -4 2 -13q0 -2 -7.5 -66t-14.5 -140t-4.5 -171.5zM454 1384q0 -28 1.5 -74.5t7 -74t14.5 -59.5 t24 -51.5t36 -30.5h36q48 0 68 -2q100 33 167.5 166.5t63.5 277.5q-3 148 -86 202q-37 23 -86 23q-55 0 -91 -17.5t-53.5 -45.5t-29 -57t-29 -58t-42.5 -43q0 -22 -0.5 -75t-0.5 -81z" />
<glyph unicode="9" horiz-adv-x="1288" d="M0 512q0 21 27 35t66 16t78 -3.5t66 -25t27 -47.5q0 -179 51 -284t131 -105q79 0 148 52.5t119.5 144.5t86.5 206.5t58 248.5q-105 -31 -227 -31q-255 0 -385 176q-106 144 -98 357q9 205 119 370q120 179 309 224q58 14 118 14q216 0 349 -207q125 -194 141 -502 q17 -316 -90 -600q-114 -305 -331 -447q-157 -102 -351 -102q-77 0 -140 23t-105 59.5t-73.5 86t-49 97t-28 98.5t-13.5 84.5t-3 61.5zM441.5 1142q9.5 -140 63 -238.5t134.5 -98.5q50 0 90 17t64 45t42.5 63t25 71.5t12.5 71t4 61t0 40.5v8q0 4 12 16q-5 242 -60 401.5 t-149 159.5q-89 0 -151.5 -98.5t-79.5 -238.5t-7.5 -280z" />
<glyph unicode=":" horiz-adv-x="536" d="M141 307q-3 43 28 84t81 41q73 0 108 -31t35 -82q0 -40 -39 -82t-86 -42q-58 0 -91.5 35t-35.5 77zM141 885q-3 43 28 84t81 41q70 0 106.5 -47t36.5 -105q0 -34 -55 -60t-109 -26q-45 0 -65.5 34t-22.5 79z" />
<glyph unicode=";" horiz-adv-x="505" d="M100 -285q19 -22 56 -4q106 50 174 187q31 62 46 147.5t13.5 146t-14.5 66.5q-50 24 -119.5 11.5t-87.5 -46.5q-7 -14 -8 -58.5t0.5 -93t-8 -109.5t-31.5 -105q-52 -105 -21 -142zM119 588q-2 47 32 91t89 44q75 0 114 -51.5t39 -114.5q0 -36 -59 -63t-119 -27 q-48 0 -71 36.5t-25 84.5z" />
<glyph unicode="&#x3c;" horiz-adv-x="931" d="M54.5 654.5q5.5 25.5 29.5 45.5q79 64 170 158q28 27 112 112.5t89 90.5q70 89 197 98q95 7 152 -31q52 -36 20 -80l-5 -6q-32 -37 -116.5 -122t-172.5 -160q-51 -43 -120.5 -106t-90.5 -81q-8 -7 25 -42.5t80 -79.5q75 -75 190.5 -183.5t116.5 -109.5q25 -26 -21 -52 q-51 -28 -110 -22q-34 4 -51 20q-19 18 -123.5 114.5t-128.5 121.5q-15 15 -45 42t-55.5 51t-55.5 54.5t-49 58t-31 55.5t-6.5 53.5z" />
<glyph unicode="=" horiz-adv-x="1222" d="M125.5 480q-3.5 25 17 48t62.5 29q205 28 344.5 30t351.5 -18q68 -1 66 -54q-2 -45 -44 -90q-31 -31 -53 -28q-88 5 -190 13.5t-146 11t-125.5 2.5t-195.5 -6q-36 -1 -60 18t-27.5 44zM125.5 838q-3.5 24 17 46.5t62.5 28.5q33 4 108 14.5t102.5 14t87 10.5t94 8t88 2 t105 -1.5t111.5 -8.5q38 -4 41 -52.5t-21 -93t-51 -36.5q-264 16 -331 17.5t-326 -9.5q-36 -1 -60 17.5t-27.5 42.5z" />
<glyph unicode="&#x3e;" horiz-adv-x="931" d="M83 174q2 3 5 6q36 41 118 125t169 158q46 39 116 101.5t97 84.5q11 11 -107 123q-75 75 -190.5 183.5t-116.5 109.5q-25 26 21 51q51 29 111 22q33 -3 50 -20q19 -19 123.5 -115t128.5 -120q14 -15 44.5 -42t56 -51t55.5 -54.5t49 -58.5t31 -56t6.5 -53.5t-29.5 -45.5 q-83 -68 -170 -157q-24 -23 -102 -103.5t-98 -99.5q-70 -89 -198 -99q-95 -6 -151 32q-52 35 -19 79z" />
<glyph unicode="?" horiz-adv-x="1044" d="M31 1454q2 21 7.5 54.5t21.5 89.5t38 110.5t60 111t85 97.5t116 64t149 16q94 -8 167.5 -37t120.5 -74t80 -104t45.5 -126.5t17 -142t-4.5 -151.5q-6 -59 -32.5 -103t-64.5 -71.5t-83 -52t-90.5 -52t-84 -62t-66 -91.5t-34.5 -133q-8 -88 -2 -155t14.5 -113t11.5 -74 t-9 -39t-48 -8q-56 5 -95.5 59.5t-56 130.5t-22.5 143.5t-2 116.5q5 54 28 97t56.5 72.5t73 56t79 54t73 59.5t57.5 79.5t29 107.5q21 238 8 336q-16 129 -82 135q-40 4 -94 -47t-98.5 -121.5t-77 -140.5t-35.5 -106q-2 -35 -1.5 -63.5t-1.5 -49t-18 -31t-51 -8.5 q-74 7 -131.5 60.5t-52.5 105.5zM246 178q5 42 31 60.5t63.5 16.5t83.5 -5q67 -4 121.5 -73t48.5 -126q-7 -75 -100 -60q-83 13 -169 79q-81 63 -79 108z" />
<glyph unicode="@" horiz-adv-x="1587" d="M160 508q0 115 33 239t98 239.5t152 207.5t204 147.5t244 55.5q83 0 153 -15t122.5 -40.5t95.5 -64.5t72 -81.5t51 -98t34.5 -107.5t20 -115.5t10 -117t2.5 -116.5q0 -103 -15.5 -203.5t-46.5 -190t-84.5 -146t-121.5 -60.5q-4 -2 -8 -2q-27 0 -35 8q-36 12 -66.5 49.5 t-48.5 82t-31 87.5t-20 72t-10 29t-13.5 -26.5t-27.5 -64t-40 -75t-57 -64t-71 -26.5q-109 0 -175.5 78.5t-66.5 246.5q0 86 23.5 183.5t67.5 188t117.5 149.5t162.5 59q67 0 99 -2t78 -14t66 -37t36 -73t16 -120q0 -11 -15 -20t-30 -6t-15 20q0 18 -3 43.5t-10.5 56.5 t-23 52.5t-36.5 21.5q-81 0 -153.5 -87t-115.5 -228t-43 -293q0 -164 58 -164q24 0 62.5 91.5t66.5 197.5t28 151q0 19 2 30t10 28.5t30.5 26.5t58.5 9q69 0 106 -25.5t37 -56.5v-28q1 -24 2 -87.5t3 -117t6 -110.5t14 -90t26 -33q19 0 36.5 16.5t34.5 56t29 98.5t19.5 151 t7.5 206q0 133 -25 241.5t-67 179.5t-98.5 119.5t-117 69.5t-126.5 21q-52 0 -121.5 -34.5t-145 -105.5t-139 -164.5t-104.5 -225t-41 -273.5q0 -111 22 -207.5t57 -165t81.5 -123.5t94 -89.5t95.5 -57.5t84.5 -32t63.5 -9q108 0 104 -27q-3 -19 -53 -38q-25 -9 -41 -9 q-159 0 -297.5 62t-233.5 166.5t-149.5 242.5t-54.5 287z" />
<glyph unicode="A" horiz-adv-x="1126" d="M-655 49q10 82 61.5 174t127 175t179.5 171.5t204.5 161t215.5 146.5q180 434 295 794q-148 -58 -266 -114t-232.5 -124.5t-182.5 -143.5t-77 -148q-4 -36 -37 -28q-37 10 -65 57q-23 39 -22 81q0 9 1 19q10 91 80 175t167.5 144t222 117t233 94.5t211 77t145.5 64.5 q1 80 74 100q20 5 42 5q48 0 101 -28q80 -43 94 -115l1 -8q6 -79 6 -195q0 -75 -2 -167q-5 -188 -6 -447v-124q2 -340 22 -502q15 -114 36.5 -209t48 -164.5t40.5 -100t37 -74.5q24 -41 21 -53.5t-44 -17.5q-7 -1 -14 -1q-33 -1 -75 19q-50 24 -104 79.5t-102.5 134.5 t-87.5 196.5t-57 253.5q-28 221 -31 545q-69 -41 -221 -133q-57 -153 -113.5 -290t-122.5 -280.5t-130.5 -257t-130.5 -203.5t-130 -136q-56 -40 -105 -40q-8 0 -15 1q-96 11 -159.5 39.5t-93.5 72.5q-31 44 -39 94q-5 27 -4 58q0 26 3 55zM-602 20.5q-1 -11.5 1 -41.5 t9.5 -53.5t28 -44.5t51.5 -24q5 0 9 -1q53 0 119 63q72 68 150 197t152.5 278t155.5 337q-130 -89 -238.5 -174t-207.5 -177.5t-159.5 -181t-68.5 -159.5q-1 -7 -2 -18.5zM428 1053q117 65 178 96q-1 56 -1 124q0 135 3 314q-69 -232 -180 -534z" />
<glyph unicode="B" horiz-adv-x="1298" d="M-335 1187q42 109 186 266q198 216 430 339q213 113 401 113q287 0 338 -182q11 -38 11 -82q0 -131 -97 -311q-115 -213 -308 -391q-32 -29 -65 -56q54 -12 152.5 -37.5t101.5 -26.5q50 -15 101 -39t106.5 -61t97.5 -83t74 -106q31 -60 35 -128q1 -11 1 -22 q0 -59 -18 -128q-37 -129 -224.5 -279.5t-433 -253t-435.5 -102.5q-109 0 -193 22t-138 74t-54 129q0 44 66.5 101.5t183.5 118.5t251.5 121t295.5 121.5t288.5 107t257.5 88.5q-49 46 -169 74.5t-235 36.5t-222 13.5t-123 10.5q-23 7 -47 43q-5 -34 -5 -78q0 -66 8 -129.5 t16 -96.5t11 -60t-6.5 -36.5t-36.5 -9.5q-42 0 -90 85t-79 201.5t-31 207.5q0 170 40 364.5t92.5 319.5t90.5 125q84 0 158.5 -34.5t74.5 -92.5q0 -21 -26.5 -77t-71.5 -153t-76 -188q170 49 336 207q150 142 207 286q25 64 25 114q0 71 -51 113q-59 48 -181 48 q-115 0 -224.5 -29.5t-195 -78.5t-164 -111t-136 -127t-107.5 -127t-82 -111t-55 -78.5t-31 -29.5q-37 0 -37 36q0 19 11 49zM-8 -106q148 0 338.5 50t353.5 124t285 163.5t143 163.5q5 12 5 27q0 18 -7 39q-674 -247 -1001 -409q-195 -97 -195 -134q0 -24 78 -24z" />
<glyph unicode="C" horiz-adv-x="1261" d="M0 848q0 144 37.5 293t103.5 283t159.5 253t200.5 205t233 136t251 50q195 0 232 -175q9 -40 9 -86q0 -120 -60 -274q-63 -167 -149 -259q-50 -53 -87 -53q-24 0 -26 39v8q0 37 14 94q14 63 35 138.5t39 151.5q20 75 28 138q3 26 3 47q1 32 -7 55q-12 39 -51 39 q-77 0 -159.5 -59t-156 -166.5t-132.5 -246.5t-93.5 -312.5t-34.5 -349.5q0 -198 30 -360.5t75 -255.5t91 -142t85 -49q44 0 107 131t106 271.5t43 185.5q0 36 42 33q51 -4 100 -53q56 -54 56 -124q0 -11 -5 -42t-19 -83t-35 -107t-58 -112.5t-82.5 -102.5t-113.5 -73.5 t-147 -28.5q-170 0 -298 68t-207.5 195.5t-119 302.5t-39.5 397z" />
<glyph unicode="D" horiz-adv-x="1599" d="M-395 1423q0 25 24.5 71.5t74 107.5t117 126.5t161.5 128.5t199.5 113t239.5 80.5t273 30.5q200 0 325 -28q398 -88 480 -442q21 -91 21 -196q0 -168 -41.5 -351t-114 -354.5t-177.5 -327t-226.5 -271.5t-267.5 -184t-294 -68q-107 0 -184 61.5t-117 160.5t-60 231 q-20 126 -19 254v12q1 134 9.5 272.5t22.5 244.5t24.5 186.5t10.5 94.5q0 10 -3 25.5t-5.5 26.5t-1 23.5t8.5 20.5t24.5 13.5t46.5 5.5q64 0 124 -22.5t99 -55t62.5 -66t23.5 -57.5q0 -12 -20.5 -155.5t-43.5 -327t-41 -369.5q-12 -127 -11 -226q0 -46 2 -86q8 -126 48 -126 q39 0 99 37t133 111.5t148.5 176t146.5 241.5t127 296t89.5 351t33.5 397q0 93 -40.5 169t-102 119.5t-126.5 67t-123 23.5q-131 0 -246.5 -22t-197.5 -58t-152.5 -84t-116 -96.5t-82.5 -99t-57.5 -89.5t-36.5 -69.5t-22 -36.5q-21 -22 -87 -35q-46 -9 -89 -9q-19 0 -35 2 q-58 6 -57 31z" />
<glyph unicode="E" d="M-37 213q0 150 79 320.5t210 334.5q-19 3 -37.5 9.5t-44 20.5t-47 39t-40 60t-29.5 88t-11 119q0 113 68 251t167.5 250t220.5 188.5t220 76.5q80 0 151 -61q21 83 78.5 203t83.5 120q37 0 90.5 -56.5t53.5 -102.5q0 -24 -39 -94.5t-78 -150t-39 -124.5q0 -8 1 -17.5 t1 -14t-1.5 -9.5t-6.5 -6.5t-15 -1.5q-26 0 -63.5 29.5t-56.5 87.5q-27 -9 -45 -9q-21 0 -75 -31t-123.5 -83t-144 -123.5t-136.5 -147.5t-102 -162t-40 -159q0 -38 10 -76q7 -1 16 -1q31 0 71 18q52 22 88 48l36 25q128 122 244.5 195t187.5 73q56 0 117 -62.5t61 -115.5 q0 -13 -48.5 -53t-125.5 -99.5t-170.5 -134.5t-187 -166.5t-170.5 -186.5t-125.5 -204.5t-48.5 -210.5q0 -50 33 -106q2 0 6.5 1t7.5 1q52 0 124.5 39.5t143.5 98.5t147 131.5t135 135.5t108 113t65 62q28 103 70.5 186.5t62.5 83.5q73 0 149 -56t76 -108q0 -22 -25.5 -76 t-56 -111t-56 -135t-25.5 -143q0 -46 13 -88.5t27 -66t31 -48.5q23 -27 20.5 -39t-42.5 -12q-75 0 -148.5 71t-105.5 198q-136 -141 -304.5 -260t-271.5 -119q-68 0 -119.5 25.5t-68.5 58.5q-45 20 -88 54.5t-78 93t-35 122.5z" />
<glyph unicode="F" horiz-adv-x="708" d="M-707 1069q0 115 78.5 230t212.5 213.5t310 190.5t372 165.5t398.5 134.5t389.5 102t344.5 63.5t264.5 22.5q64 0 127 -41t99 -92t36 -86q0 -20 -9 -28t-29 -7t-42 5t-56.5 9t-64.5 5q-188 0 -533.5 -70.5t-709.5 -181.5v-4q0 -14 -7 -47t-25 -109t-29 -125 q318 103 432 103h6q47 -4 89 -42q40 -37 40 -72q0 -14 -8 -22q-7 -6 -21 -7t-27.5 0.5t-33 4t-31.5 2.5h-2q-112 0 -483 -180q-37 -246 -37 -442q0 -131 12 -258t29 -216t33.5 -157.5t28.5 -106t12 -38.5q0 -11 -30 -23t-60 -12q-75 0 -136.5 72t-97.5 176.5t-61 229 t-34 221t-9 161.5q0 116 6 221q-88 -43 -105 -43q-38 2 -82 43q-43 40 -43 78q0 31 68.5 75.5t183.5 94.5q23 183 64 303q-226 -84 -392.5 -166t-272 -170.5t-105.5 -163.5q0 -32 -26 -46q-23 -14 -31 11q-3 8 -3 19z" />
<glyph unicode="G" horiz-adv-x="1427" d="M-504 382q20 79 148 79q61 0 143 41t219 127v26q0 127 37.5 264t101 259.5t145 239t170.5 210t175.5 164t163.5 109t131 38.5q131 0 215 -55t84 -145q0 -12 -40.5 -35.5t-108.5 -60t-152 -85.5t-177.5 -122t-178.5 -160t-160.5 -208.5t-118.5 -258.5q221 129 432 206.5 t432 80.5q1 0 2 1t2 1q4 0 6 -2q2 2 11 2v-2q168 -6 168 -144q0 -11 -28.5 -72.5t-69 -164.5t-80.5 -235.5t-68.5 -323t-28.5 -389.5q0 -115 13 -214.5t35.5 -170.5t40.5 -114t39 -84q24 -43 24 -61q0 -3 -1 -6q-5 -16 -65 -16q-93 0 -183.5 115.5t-147 301.5t-56.5 380 q0 118 12 235q-203 -142 -348 -172q-15 -6 -61 -6q-19 0 -25 6q-71 22 -160 135.5t-139 274.5q-126 -110 -219.5 -168t-173.5 -58q-62 0 -121 79q-44 59 -44 118q0 20 5 40zM236 418q0 -64 15 -122.5t43.5 -107.5t48.5 -77.5t52 -65.5q80 18 200.5 115.5t227.5 222.5 q42 195 107.5 362t130.5 263q-89 -7 -182 -38.5t-170 -72.5t-166.5 -105.5t-152.5 -117.5t-148 -129q-6 -61 -6 -127z" />
<glyph unicode="H" horiz-adv-x="1189" d="M-530 1403q0 60 23 133.5t64 149t101 146.5t129.5 126.5t155 89t172.5 33.5q198 0 314 -238t116 -694v-33q27 1 57 1q70 0 154 -5q3 126 9 266q6 142 10 224q3 66 3 90v10v10q0 38 14 56q16 20 80 22h2q62 0 122 -62q60 -64 63 -120q0 -12 -6 -81.5t-17 -198.5t-20 -249 q132 -25 264 -71q53 -18 61 -51q6 -22 -11 -26q-6 -2 -13 1q-141 48 -307 61q-23 -364 -23 -602q0 -83 10.5 -160.5t21.5 -118t16 -73t-5.5 -44.5t-42.5 -13q-233 0 -233 980v33q-119 -10 -213 -26q-11 -379 -52 -611q-22 -126 -66.5 -234.5t-97.5 -180t-111.5 -120.5 t-111.5 -68q-37 -13 -69 -13q-13 0 -25 2q-40 7 -42 17.5t25 41.5q21 27 35 46.5t42 67.5t48 98t43.5 130.5t39.5 171.5q30 170 45 582q-261 -83 -400 -186q-5 -1 -9 -1q-24 0 -49 38q-30 46 -45 101q-10 36 -10 55q0 10 3 16q9 18 72 47t184 63t258 55q3 85 8 312 q0 208 -3 255q-25 336 -175 343q-80 0 -163 -44.5t-148 -114t-117 -149.5t-80.5 -155t-28.5 -127q0 -57 -27 -75q-22 -14 -35 16q-9 20 -9 55z" />
<glyph unicode="I" horiz-adv-x="552" d="M-30 -109q-3 11 18 48q20 37 33 67.5t35.5 93t38.5 150t24 192.5q5 65 5 155q0 117 -8 279q-16 286 -34 533q-15 195 -15 272q0 21 1 33q5 69 81 121q62 41 120 41q10 0 19 -1q68 -8 74 -76q1 -13 0 -27v-13q0 -55 18 -255q20 -228 36 -516q8 -151 8 -275q0 -112 -6 -201 q-10 -124 -42.5 -232.5t-76.5 -182t-95.5 -126t-99.5 -75.5q-41 -20 -78 -20q-6 0 -12 1q-41 3 -44 14z" />
<glyph unicode="J" horiz-adv-x="1150" d="M-217 -258q-3 9 -3 17q0 24 25 38q27 15 47 -1q6 -5 9 -15q10 -41 25 -75t40.5 -66t64.5 -50t89 -18q263 0 429 396q147 351 188 921q14 186 14 354q0 224 -25 414q-33 260 -96 285q-6 2 -12 2q-100 0 -192.5 -42.5t-162.5 -112.5t-128 -157.5t-94.5 -180t-56.5 -177.5 t-20 -152q0 -18 1 -47v-29t-1.5 -19t-5 -10t-10.5 -3q-29 0 -66 28q-33 26 -33 70q0 6 1 12q16 185 90.5 356.5t181.5 294t240.5 196t265.5 73.5q175 0 293 -237q123 -249 146 -667q5 -86 5 -170q0 -355 -82 -690q-113 -461 -342 -694q-193 -196 -444 -196q-71 0 -131 25.5 t-98.5 61t-71 88t-49 91.5t-31.5 86z" />
<glyph unicode="K" horiz-adv-x="1138" d="M-348 973q0 60 74.5 97.5t169.5 37.5q25 0 75 -8q7 140 20 292t22.5 244.5t9.5 108.5q-1 26 1 39.5t12.5 27.5t35.5 20t67 7h2q81 0 155 -66q75 -67 75 -129q0 -18 -9 -106q-10 -96 -27.5 -267.5t-29.5 -312.5q123 67 237.5 165t204.5 212t144.5 244t54.5 250 q0 23 -3.5 52.5t-7 49t-2.5 40.5t8.5 33t27 20t51.5 8q72 0 118 -85.5t46 -224.5q0 -124 -64 -256.5t-171.5 -249.5t-251.5 -217t-302 -165q91 -86 202.5 -210t201 -232.5t191 -222t184 -194.5t167 -132.5t152.5 -51.5q45 0 95 8.5t82 17t60 12.5t41 -4.5t13 -33.5 q0 -33 -25.5 -77.5t-66 -85.5t-98 -69t-113.5 -28q-75 0 -155.5 33.5t-154 88t-155 135.5t-152 166t-151.5 189.5t-146 194.5t-143 193.5t-137 175.5q-12 -181 -12 -302q0 -26 1 -49q2 -88 16 -170t27 -124.5t18.5 -77t-8 -47t-53.5 -13.5h-6q-66 0 -118 42 q-54 44 -88.5 119t-57 183.5t-32 221.5t-11.5 249h-16q-65 0 -122.5 24.5t-94 61t-57.5 76t-21 72.5zM-271 977q-11 -14 -11 -29q0 -22 26 -44q59 -52 203 -52h16q1 24 2 73t2 74q-52 25 -96 25q-108 0 -142 -47z" />
<glyph unicode="L" horiz-adv-x="612" d="M-330 -242q0 82 107 138q39 25 102 36q48 14 88 19q33 110 51 215q26 145 45 477.5t32 629t22 351.5q12 67 92 110q57 31 110 31q18 0 35 -4q68 -15 68 -82q0 -16 -2 -28q-7 -39 -16 -314.5t-28.5 -611.5t-51.5 -520q-23 -129 -72 -240h46q227 0 459 -44 q255 -49 427 -143q163 -89 163 -194q0 -6 -1 -12q-7 -85 -50 -130q-39 -40 -89 -40h-11q-10 1 -66 42.5t-148 100.5t-209 117.5t-279.5 100.5t-329.5 44q-137 -190 -297 -190q-55 0 -95.5 14t-61.5 36.5t-30.5 45t-9.5 45.5zM-229 -307q9 -21 34 -21q34 0 69 40t53 80l18 40 q-111 0 -159 -65q-20 -27 -20 -51q0 -12 5 -23z" />
<glyph unicode="M" horiz-adv-x="1705" d="M4 819.5q0 136.5 5 235.5t9.5 174t4.5 76q0 3 1 7t5.5 15t10.5 19t18.5 15t27.5 7q34 0 93 -13t114.5 -41.5t54.5 -62.5q0 -18 -8.5 -54t-19 -86.5t-19 -193t-7.5 -348.5v-102q24 170 53.5 338t76.5 378.5t109 375.5t129 237q2 27 2 57q0 59 23.5 81t88.5 22 q69 0 139 -44t70 -93q0 -13 -27.5 -265t-55.5 -613.5t-28 -639.5q0 -67 3 -119q248 843 331 1069q26 153 63 241.5t75 88.5q31 0 67.5 -2.5t88 -8.5t85 -22t33.5 -39q0 -18 -21.5 -99.5t-48 -184t-48 -266t-21.5 -324.5q0 -132 11.5 -248.5t28.5 -190.5t34 -127.5 t28.5 -80.5t11.5 -29q0 -9 -30.5 -21t-59.5 -12q-75 0 -136.5 61.5t-98 151t-61 198.5t-33.5 196t-9 151q0 148 9 277q-123 -368 -271 -988q6 -26 13.5 -51.5t11.5 -39t4 -21.5q0 -28 -29 -42t-63 -14q-160 0 -217.5 168t-57.5 598q0 299 80 1074q-115 -237 -205 -740 t-90 -807q0 -72 -4 -118q9 -32 19.5 -56.5t16 -35.5t5.5 -15q0 -20 -26 -29.5t-56 -9.5q-74 0 -130.5 62t-88.5 161t-52.5 230.5t-26 263.5t-5.5 268.5z" />
<glyph unicode="N" horiz-adv-x="1290" d="M-10 782q0 149 16.5 295t32.5 237t16 105q0 18 2.5 35.5t10 39t24 35t41.5 13.5q36 0 97.5 -33.5t113 -89t51.5 -104.5q0 -40 -16.5 -141t-33.5 -232.5t-17 -245.5q0 -374 73 -604q27 143 64 316t97.5 430t135.5 489t146 365q63 247 119 247q39 0 76 -9t70.5 -28.5 t54 -56t20.5 -84.5q0 -41 -20.5 -120t-45 -171t-45 -281.5t-20.5 -424.5q0 -134 11 -249t31 -201.5t33.5 -132t33.5 -101.5q21 -53 21 -76q1 -7 -1 -12q-8 -19 -80 -19q-68 0 -123 34.5t-92 89.5t-64 137t-42 163.5t-24 184t-11.5 182.5t-2.5 174q0 171 33 410 q-195 -648 -301 -1442q13 -29 6.5 -36t-47.5 -7t-88 23.5t-97.5 70t-96 123.5t-82 174.5t-58.5 234.5t-22 293z" />
<glyph unicode="O" d="M-51 1090q0 58 11.5 131t34 149t64 127t93.5 51q38 0 75 -6q17 68 40 128.5t63.5 124t90.5 109t124 74.5t162 29q99 0 181 -20.5t142 -56.5t106 -89t75 -113.5t47.5 -135t26 -148.5t7.5 -158q0 -97 -22 -235t-61.5 -294t-100 -309.5t-131 -277t-162 -200t-186.5 -76.5 q-107 0 -200 44t-161 118t-123 174t-91 208.5t-60 226.5t-34.5 223.5t-10.5 201.5zM274 889q0 -43 10 -139t34 -226t56.5 -246t84 -197t110.5 -81q76 0 155.5 137.5t137 335.5t94.5 421t37 392q0 86 -7 172t-23 178.5t-51 150.5t-83 58q-64 0 -152 -110.5t-148 -238.5 t-60 -187q0 -21 2.5 -45.5t5 -41t3.5 -34.5t-2 -29t-11.5 -20.5t-24.5 -14t-41 -4.5q-54 0 -106 25q-21 -133 -21 -256z" />
<glyph unicode="P" horiz-adv-x="858" d="M-383 997q0 191 151 426t377 400q10 19 43 28q257 170 486 170q319 0 418 -193q40 -78 40 -177t-40 -218q-74 -218 -244 -404q-179 -197 -377 -259q-34 -10 -68 -16q-11 -190 -11 -307q0 -39 1 -70q1 -65 9 -127t17.5 -102.5t19 -77.5t14 -58t1 -37t-18 -22.5t-44.5 -7.5 h-4q-58 0 -104 30q-48 31 -81.5 91t-57.5 137t-37.5 176t-19.5 199t-7 215q-80 41 -80 96q0 24 18 25t62 -9q5 252 49 748q-176 -157 -302 -347t-126 -298q0 -72 -30 -98q-24 -19 -40 12q-14 25 -14 75zM371 1825q50 -31 83 -76t33 -85q1 -20 -9 -114q-10 -104 -29 -285 t-31 -329q141 83 249 283q105 194 121 382q3 30 3 57q0 145 -77 204q-42 32 -104 32q-113 0 -239 -69z" />
<glyph unicode="Q" horiz-adv-x="1306" d="M-109 956q0 58 11.5 151t33 195.5t61 175t87.5 72.5q33 0 47 -2q27 93 66.5 169t97 141t140 101t183.5 36q108 0 195 -32.5t145 -84t101 -129t66.5 -153.5t37 -173t17.5 -172.5t4 -165.5q0 -223 -75 -510t-206 -456q84 -54 174.5 -133t166.5 -158.5t155.5 -165 t153.5 -158.5t147 -132t149 -92.5t148 -33.5q82 0 141.5 14t83 30t42 30t28.5 14q42 0 47 -44q1 -6 1 -11q0 -54 -52 -117q-87 -106 -242 -135q-48 -8 -98 -8q-87 0 -186.5 53.5t-189.5 135.5t-194.5 195.5t-191 219t-189.5 220t-182 186.5q-92 -70 -190 -70 q-259 0 -430 141q-46 -33 -84.5 -78.5t-57.5 -79.5t-35 -66.5t-18 -35.5q-9 -23 -33 -15q-23 7 -23 29q0 14 11 27q2 3 12 23.5t19 36.5t26.5 43.5t36 51t46 51t57.5 50.5q-97 98 -158 245.5t-82 286t-21 287.5zM233 762q0 -80 33 -243t94 -283q57 14 142 14q113 0 225 -41 q67 144 103 389.5t36 486.5v68t-0.5 82t-2.5 97.5t-4.5 98.5t-7.5 102.5t-12 92.5t-16.5 85.5t-21.5 64.5t-28.5 46t-35.5 15q-70 0 -129 -46.5t-101 -125.5t-71 -185t-43 -224t-14 -242q0 -23 3 -51.5t5.5 -46t1.5 -36.5t-7.5 -29.5t-23.5 -17t-45 -6.5q-27 0 -77 11 q-3 -37 -3 -76zM389 184q80 -123 178 -123q63 0 113 70q-98 66 -178 66q-53 0 -113 -13z" />
<glyph unicode="R" horiz-adv-x="1271" d="M6 1210q0 163 15 312t49 256.5t80 107.5q38 0 78.5 -3t93.5 -10.5t86.5 -25.5t33.5 -45q0 -20 -18 -134t-38.5 -306t-25.5 -393q18 8 43 22q2 59 8 136.5t19.5 187t32.5 214.5t49 211.5t67 185.5t89 129t112 50q1 0 29 0.5t47.5 -0.5t54 -1.5t61.5 -4.5t56.5 -10 t52.5 -16.5t37 -24.5q121 -121 121 -412q0 -215 -144 -411t-370 -324q45 -94 94.5 -188t118 -213t136 -223.5t147.5 -208t154.5 -176.5t153.5 -118.5t148 -45.5q42 0 42 -27q0 -28 -43 -53q-48 -27 -120 -27q-98 0 -199 42t-190 112.5t-177.5 168t-162.5 201.5t-144.5 221.5 t-122.5 219t-97 202.5q-53 -15 -105 -24q4 -120 25 -236t48 -197.5t53.5 -144.5t44.5 -98t18 -37q0 -13 -34 -30t-67 -17q-137 0 -238.5 162.5t-151.5 433t-50 610.5zM467 1028q506 298 506 666q0 92 -21 156.5t-56.5 94.5t-71 42t-76.5 12q-42 0 -81 -55t-68 -145t-53 -196 t-40 -219t-25.5 -201.5t-13.5 -154.5z" />
<glyph unicode="S" horiz-adv-x="1456" d="M-25 252q1 61 33 82q15 10 30 10q18 0 35 -14q33 -24 33 -74q0 -43 34.5 -72t73 -38t75.5 -9q73 0 172.5 40.5t200 112t187 159t141 193.5t54.5 204q0 50 -3.5 87.5t-14 74.5t-28.5 61t-48.5 38.5t-72.5 14.5q-113 0 -231 -28t-194 -62t-138.5 -62t-77.5 -28 q-80 0 -151 65.5t-71 133.5q0 80 48 178t127.5 193.5t185 186.5t216.5 159.5t228 110.5t213 42q137 0 232 -139q68 -100 80 -212q2 -19 2 -35q0 -55 -27 -67l-12 -2q-14 0 -46.5 20.5t-68 44.5t-91.5 44.5t-112 20.5q-177 0 -422 -166q-175 -119 -288 -253q-77 -92 -77 -136 q0 -12 5 -20q10 -15 39 -15t94 21.5t137 48t185.5 48t228.5 21.5q126 0 220.5 -24.5t147 -61t84 -89.5t41 -99t9.5 -101q0 -137 -51 -269t-136 -237t-195 -194.5t-228 -149t-235.5 -92.5t-217.5 -33q-52 0 -112 24t-115 67.5t-91.5 116t-36.5 159.5z" />
<glyph unicode="T" horiz-adv-x="731" d="M-627 1375q-2 9 0 22q15 86 64 159.5t121.5 127t170.5 96.5t204.5 71t230.5 47q0 46 20 66t90 21q71 0 140 -58q151 9 289 8q133 1 257 -7q250 -16 418 -56q81 -19 138 -114q48 -81 48 -134q0 -9 -1 -18q-3 -20 -12 -26.5t-25.5 -2t-34.5 13t-46.5 20t-53.5 17.5 q-147 34 -392 54q-212 17 -437 16h-70q-2 -29 -11.5 -205t-16 -300.5t-13.5 -300.5q-7 -174 -10 -318q-2 -86 -2 -156q0 -46 1 -86q2 -86 15.5 -167t26 -123t17.5 -76t-8 -45.5t-51 -12.5h-5q-67 0 -119 50q-54 52 -88 152t-57.5 216t-32 272.5t-12.5 289.5q-1 52 -1 108 q-1 89 3 190q6 165 11 267.5t13 227.5q-149 -13 -271.5 -35t-223 -55t-160.5 -81t-70 -107q-5 -31 -29 -41q-21 -9 -25 13z" />
<glyph unicode="U" horiz-adv-x="1339" d="M-42 704q2 174 10 351.5t21 315.5q13 137 23 241q9 94 8 119q0 33 3 46q3 14 14.5 29.5t38 21.5t71.5 7h7q82 1 159 -69q82 -74 82 -137q-1 -23 -27 -267q-28 -254 -53 -585q-23 -287 -23 -474q0 -29 1 -55q1 -33 3 -65t6.5 -62.5t7.5 -51.5t9.5 -50.5t9 -41t9.5 -41 t8 -32.5q14 14 35 37.5t75 94.5t102 149t105 199t95 247q-4 43 -4 110q0 262 28 485t71.5 346.5t90.5 123.5q20 0 42 -0.5t58.5 -3t68 -7.5t61 -13t46.5 -21.5t17 -30.5q0 -19 -23.5 -106t-51.5 -196.5t-51.5 -283.5t-23.5 -346q0 -140 12.5 -264.5t30.5 -203t36.5 -135.5 t31 -86.5t12.5 -31.5q0 -11 -31.5 -23t-64.5 -12q-67 0 -124 44.5t-96 121.5t-65.5 161t-44.5 181q-142 -354 -422 -618l-2 18q2 -30 -12 -42t-55 -13h-5q-93 -1 -159 75q-68 78 -103 206q-34 128 -52 296q-16 155 -16 315v27z" />
<glyph unicode="V" horiz-adv-x="1222" d="M-925 1664q-9 46 16 46q26 0 48 -11t65 -22.5t120 -11.5q80 0 279 37t342 37q67 0 131 -23q59 -4 117.5 -55t95.5 -129t37 -154q0 -262 -3.5 -501t-3.5 -312q0 -46 2.5 -90.5t5.5 -79t9.5 -72t11 -60.5t12.5 -54.5t11.5 -44.5t12 -40t9.5 -32q68 31 153 139t160.5 256 t127 339.5t51.5 367.5q0 68 -5.5 131.5t-18.5 122t-24 103t-32 96t-32 77.5t-34 71.5t-29 56.5q-23 43 -31.5 61t-12 38.5t9.5 27t43 6.5q59 0 120 -26t124 -89t111.5 -154.5t79 -236.5t30.5 -322q0 -172 -50.5 -340.5t-133.5 -303t-187 -244t-214.5 -176t-211.5 -85.5 q-19 -8 -78 -8q-162 0 -249.5 368t-88.5 1119q-146 -7 -350 -44.5t-280 -37.5q-101 0 -190 112q-63 78 -76 147z" />
<glyph unicode="W" horiz-adv-x="1738" d="M-859 1629q-2 14 -2 25q0 34 19 36q17 0 29.5 -11t24.5 -26t30 -30.5t53.5 -26.5t86.5 -11q133 0 264.5 19t244 42t175.5 27q20 4 36 4q53 0 106.5 -24.5t99.5 -68.5t75 -114.5t29 -154.5q0 -54 -27 -537t-27 -571q0 -55 21.5 -116.5t48.5 -61.5q83 139 178.5 572.5 t106.5 621.5q-1 12 -2.5 26.5t-2.5 24t-2 21t-1 17.5t2 14.5t6 12t10.5 8.5t16.5 5.5t23.5 2.5t31.5 -1q60 -4 119 -59.5t96 -139.5t37 -166q0 -97 -2.5 -216t-2.5 -187q0 -112 16 -222.5t34.5 -198t21.5 -122.5q76 60 154.5 266.5t128 459.5t49.5 448q0 125 -19 242.5 t-46 199t-58 153.5t-54.5 116.5t-35 77.5t-1 46.5t49.5 13.5q58 0 119 -28t124 -95t111.5 -165.5t79.5 -254t31 -345.5q0 -204 -61.5 -424t-157.5 -394t-222 -291.5t-247 -129.5q-30 -5 -43 -5q-68 0 -124 40.5t-101.5 128t-73.5 240.5t-33 362q-36 -191 -88.5 -368.5 t-113 -298t-109.5 -120.5h-13q-12 -2 -36 -2q-94 0 -170 66t-116 167t-40 211q0 89 17 449t18 580q-51 -6 -145.5 -25.5t-189.5 -33t-192 -13.5q-171 0 -283 140q-68 85 -82 172z" />
<glyph unicode="X" horiz-adv-x="1261" d="M-349 -169q10 46 34 50q17 0 29 -7.5t21 -17t38.5 -17t76.5 -7.5q117 0 215.5 119t292.5 443q59 98 91 151q-190 255 -339 505.5t-149 295.5q0 62 70 153.5t119 91.5q18 0 49.5 -38.5t81.5 -120.5t95 -161.5t120 -213.5t127 -223q76 123 145.5 230.5t154.5 228.5 t161.5 218.5t161.5 190t160.5 154.5t152.5 99.5t143 37.5q87 0 124 -63q15 -26 15 -47q0 -13 -6 -25q-8 -14 -23 -15q-18 0 -24 8.5t-4 18t-2.5 18t-20.5 8.5q-23 0 -61.5 -31.5t-91.5 -96.5t-108.5 -139t-129.5 -185t-137 -207t-148.5 -232t-146 -233.5t-145.5 -236.5 q68 -105 115.5 -175.5t112.5 -156.5t114.5 -137.5t104.5 -87t99 -35.5q13 0 36 4.5t35.5 6t23 -7.5t10.5 -32q0 -37 -47.5 -77t-124.5 -40q-52 0 -115.5 30t-120.5 73t-132 116t-129 131.5t-132 147.5q-87 -137 -142.5 -221.5t-121.5 -177.5t-113 -145.5t-100 -98.5 t-100.5 -65t-96.5 -19q-201 0 -283 122q-37 56 -37 113q0 14 2 28z" />
<glyph unicode="Y" horiz-adv-x="1290" d="M-31 600q0 26 15.5 353.5t15.5 697.5q0 26 -5.5 59.5t-10.5 56.5t-5.5 47t7 38.5t29.5 24t61 9.5q26 0 61 -11.5t73 -36.5t70 -58.5t53 -83t21 -105.5q0 -67 -13 -264t-26.5 -405.5t-22.5 -415.5q-3 -91 -3 -167q0 -99 6 -173q11 -133 45 -133q41 0 104 68t134 182 t131 223.5t120 230.5q21 339 21 754q0 10 -2 29t-3 31.5t1.5 28t10 25.5t24.5 16.5t43 6.5q88 0 157.5 -74t69.5 -204q1 -30 3 -81.5t2 -209.5t-6.5 -312t-26 -362.5t-51.5 -388t-89.5 -362.5t-132.5 -312t-188 -210t-250 -81q-72 0 -154 62q-75 57 -83 108q-1 5 -1 10 q0 42 64 55q25 5 57 5q80 0 148 49.5t119.5 141t92.5 205.5t71 259t50 286t35 300q-53 -105 -106 -194.5t-117 -178t-129.5 -139.5t-122.5 -51q-35 0 -78 17.5t-95 64t-94.5 116.5t-71 188t-28.5 265z" />
<glyph unicode="Z" horiz-adv-x="1427" d="M-441 22q-6 24 -6 47q0 91 96 153q145 93 480 93h57q158 156 437 478q-136 8 -238 23t-146 29t-44 25q0 21 512 21q108 126 297.5 353.5t261.5 311.5q-149 1 -414 31.5t-379 30.5q-121 0 -206.5 -11t-124 -27t-60.5 -32.5t-34.5 -27.5t-27.5 -11q-27 0 -31 25v6 q0 34 53 70q127 86 441 86q158 0 297 4.5t252.5 13t174.5 14t148 16.5t89 11q38 35 51 35q32 0 58 -24.5t41.5 -60t23.5 -71t8 -63.5q0 -15 -62.5 -109t-180 -252t-250.5 -323q253 -3 428.5 -12t175.5 -21q0 -17 -75 -32.5t-236 -26.5t-379 -13q-232 -284 -472 -530 q185 -47 411 -129.5t438.5 -175t437.5 -194.5t435 -193.5t402 -165.5t366.5 -118t303.5 -44q76 0 134 19.5t89.5 49t56.5 63.5t39.5 63.5t34 49t43.5 19.5q32 0 52 -64q15 -48 15 -102.5t-15 -115.5q-45 -181 -201 -273q-130 -76 -322 -76q-151 0 -419 104t-583 267 t-631.5 334t-646 335.5t-544.5 241.5q-392 -378 -586 -378q-103 0 -205 80q-98 78 -121 173zM-266 93q23 -32 104 -32q75 0 254 164q-239 -5 -331 -68q-33 -23 -33 -45q0 -10 6 -19z" />
<glyph unicode="[" horiz-adv-x="915" d="M189 540q13 252 33 488.5t39.5 417.5t19.5 201q-3 32 6 53v10q0 29 11 51.5t33.5 37t49 25.5t65 16.5t72.5 8.5t80 2.5t80 -1t80.5 -2t72.5 -1.5q17 0 24.5 -1t16.5 -6t12 -16.5t3 -31.5q1 -38 -37.5 -72.5t-73.5 -36.5q-8 0 -97.5 5.5t-141.5 5.5q-49 0 -72 -2 q28 -26 43.5 -64t17.5 -72q0 -10 -45.5 -293t-89 -629.5t-39.5 -514.5q2 -126 33 -260q62 -4 115 -4q46 0 134.5 4.5t104.5 3.5q34 0 73 -35t38 -74q-1 -19 -4.5 -30.5t-12 -17t-16 -6.5t-22.5 -1q-25 0 -117.5 -2t-140 -1t-113.5 9.5t-105 26.5q-10 4 -30 20q-17 14 -31 35 q-50 80 -66 290.5t-3 462.5z" />
<glyph unicode="\" horiz-adv-x="1267" d="M-17.5 1881q-2.5 20 4 33.5t19.5 20.5t34.5 -1.5t47.5 -32.5q76 -57 198.5 -260t249 -456.5t248.5 -503.5t224.5 -437t150.5 -221q38 -21 53 -77q17 -64 -19 -94q-47 -39 -163 19q-82 40 -205 248.5t-246.5 481.5t-239.5 543.5t-210 471t-133 227.5q-11 18 -13.5 38z" />
<glyph unicode="]" horiz-adv-x="915" d="M-14 -246q-1 39 37.5 74t72.5 35q16 1 105 -3.5t135 -4.5q53 0 115 4q30 130 32 260q4 169 -1.5 512.5t-13 633t-7.5 291.5q0 4 -2.5 62t6.5 74q-19 1 -14 2q-52 0 -142 -5.5t-98 -5.5q-35 2 -73.5 36.5t-37.5 72.5q0 20 3 31.5t12 16.5t16.5 6t24.5 1q26 0 72.5 1.5 t80.5 2t80 1t80 -2.5t72.5 -8.5t65 -16.5t49 -25.5t33.5 -37t11 -51.5v-10q10 -23 7 -53q0 -2 3.5 -199t1.5 -422t-11.5 -483.5t-41 -467t-81.5 -288.5q-14 -21 -31 -35q-19 -15 -31 -20q-39 -18 -105 -26.5t-113.5 -9.5t-139.5 1t-117 2q-15 0 -22.5 1t-16 6.5t-12 17 t-4.5 30.5z" />
<glyph unicode="^" horiz-adv-x="782" d="M22 1317q11 34 95 61q78 25 178 125q34 33 57.5 45.5t57 3.5t73.5 -49q100 -100 179 -125q90 -30 84 -57q-5 -16 -39 -27q-15 -8 -76.5 -1.5t-122.5 26.5q-31 11 -102 45q-76 -53 -136 -74q-121 -40 -217 -12q-39 12 -31 39z" />
<glyph unicode="_" horiz-adv-x="1617" d="M28 -152q-15 45 20 86q35 43 97 43q243 -15 660.5 -17.5t654.5 9.5q36 1 60 -17.5t27.5 -42.5t-17 -46.5t-62.5 -28.5q-215 -29 -673.5 -43.5t-679.5 4.5q-69 1 -87 53z" />
<glyph unicode="`" horiz-adv-x="858" d="M160 1468q17 38 67.5 68t81.5 20q14 -4 50.5 -41t88.5 -79t103 -58q92 -30 95 -66q2 -23 -32 -34q-96 -28 -217 12q-54 19 -113.5 59t-93.5 74.5t-30 44.5z" />
<glyph unicode="a" horiz-adv-x="1036" d="M0 393q0 69 12.5 146t36.5 156.5t63 151.5t87 129t113.5 90.5t138.5 33.5q59 0 87.5 -1t75 -6t69 -16.5t52 -32.5t43 -53t23.5 -79.5t10 -110.5q0 -14 -18.5 -25t-37 -7.5t-18.5 24.5q0 23 -3.5 54t-12.5 69.5t-28.5 64t-45.5 25.5q-98 0 -186.5 -106.5t-140.5 -278 t-52 -357.5q0 -198 70 -198q28 0 74.5 111.5t81 240.5t34.5 182q0 18 1 28.5t7 29t18 29.5t37 19.5t60 8.5q86 0 131 -31.5t45 -69.5v-32q1 -28 2 -107t3 -143t7.5 -133.5t18 -109.5t31.5 -40q27 0 137.5 292t144.5 400q6 21 20 28t24.5 -3.5t5.5 -34.5q-7 -32 -41.5 -141 t-88.5 -257.5t-124.5 -271t-130.5 -143.5q-9 -6 -33 -6q-54 0 -98.5 41t-70.5 100t-44.5 117.5t-28 99.5t-12.5 41q-4 0 -17 -32t-34 -77.5t-49 -91.5t-69.5 -78t-86.5 -32q-131 0 -212 95.5t-81 297.5z" />
<glyph unicode="b" horiz-adv-x="1013" d="M-2 770q0 74 7.5 178.5t18 202t21 184t18 142.5t7.5 59q0 47 43 47q23 0 73.5 -17.5t98 -50.5t47.5 -67q0 -19 -20.5 -149t-41 -334t-20.5 -404q0 -157 35 -287q33 199 100.5 442.5t122.5 297.5q30 31 87 36q19 2 37 2q34 0 64 -7q44 -10 62 -21q63 -42 108 -140 q44 -98 62 -218q10 -71 10 -146q0 -51 -5 -103q-12 -129 -51 -234t-119 -173.5t-188 -68.5q-79 0 -128 33q-32 21 -12 34q12 8 46 8q71 0 119 95t64 231t17 272v16q0 126 -15 215q-16 95 -37 95q-33 0 -68.5 -44.5t-67 -121t-59.5 -157.5t-53 -176t-39 -153.5t-25 -111.5 q19 -47 70 -136q20 -34 9 -41q-5 -3 -19 -3q-379 0 -379 774z" />
<glyph unicode="c" horiz-adv-x="708" d="M2 557q0 150 58.5 287.5t117.5 195.5q29 30 87 46q48 13 92 13q10 -1 20 -1q54 -4 76 -25.5t51 -90.5q30 -68 38 -123q2 -13 1 -23q0 -34 -21 -39q-21 0 -40.5 28t-31 62t-25.5 62t-26 28q-39 0 -71.5 -84.5t-44.5 -204.5q-10 -103 -10 -206v-34q2 -120 33.5 -205 t84.5 -85t100 29t78 71.5t57.5 96t41.5 98.5t27 82.5t16 44.5q17 28 45 31q21 3 21 -14q0 -7 -5 -17q-3 -6 -19.5 -57.5t-37.5 -112t-58.5 -134.5t-80 -133t-105.5 -99t-133 -40q-99 0 -177 80.5t-118.5 206t-40.5 266.5z" />
<glyph unicode="d" horiz-adv-x="1087" d="M0 391q0 69 12.5 146t36.5 157t63 152.5t87 129t113.5 90.5t138.5 34q70 0 102 -1.5t66.5 -12.5t54.5 -33q18 134 42 294t39 253t15 96q0 49 41 49q24 0 75 -17.5t98.5 -50.5t47.5 -67q0 -20 -37 -177t-74.5 -388t-37.5 -431q0 -212 14.5 -383t26.5 -235.5t28 -128.5 q12 -44 9 -53t-31 -9q-54 0 -100 24t-77 62.5t-55.5 85t-39 93.5t-24.5 85.5t-16 62.5t-8 24q-4 0 -19.5 -25t-40.5 -61t-56.5 -72t-76 -61t-89.5 -25q-64 0 -121 22t-104.5 67t-75 123t-27.5 181zM268 264q0 -39 13 -84.5t38 -79.5t54 -34t91.5 111t113.5 241.5t51 181.5 q0 55 10 168q-27 -2 -46.5 4.5t-19.5 20.5q0 5 10 69q6 38 6 67q0 20 -3 36q-7 39 -41 39q-74 0 -138.5 -106t-101.5 -276.5t-37 -357.5z" />
<glyph unicode="e" horiz-adv-x="776" d="M-2 520q0 181 71.5 350t145.5 236q39 34 111 47q49 9 95 9q21 0 41 -2q64 -6 97 -23q47 -22 77 -87.5t30 -150.5q0 -156 -66 -242t-170 -86q-52 0 -149 27q-2 -20 -2 -39q0 -77 26 -155q32 -96 86.5 -156t110.5 -60q47 0 90 17.5t75 44.5t61.5 66t48.5 75t37 78t26.5 69 t17.5 55l8 28q10 27 29 22q18 -5 14 -31l-2 -10q-1 -2 -8.5 -29t-17.5 -56t-26 -73.5t-37 -85t-47.5 -86t-60 -82t-71.5 -67t-86 -47.5t-100 -17q-102 0 -190.5 43t-144.5 111t-88 148.5t-32 158.5zM285 641q42 -18 79 -18q70 0 118 67q52 74 52 182q0 83 -34 105 q-9 6 -19 6q-75 0 -127.5 -99.5t-68.5 -242.5z" />
<glyph unicode="f" horiz-adv-x="841" d="M-266 1436q0 15 7 20t25 1.5t40.5 -9t64 -11t84.5 -5.5q67 0 231 8q43 340 138.5 494.5t293.5 154.5q96 0 172 -72q46 -43 46 -74q0 -16 -17 -16q-165 0 -242 -102t-116 -361q71 6 181.5 17.5t176.5 17.5t103 6q105 0 155 -81q22 -36 22 -64q0 -9 -2 -17q-4 -14 -14 -14 q-8 0 -53 12.5t-123 12.5q-57 0 -145 -11t-141.5 -20t-178.5 -31q-51 -517 -51 -911q0 -191 18 -346.5t33.5 -216.5t34.5 -120q15 -40 11.5 -50t-35.5 -10q-96 0 -175 123.5t-120 304.5t-41 368q0 120 5.5 245.5t11.5 201.5t17 199t15 169q-148 -18 -234 -18 q-53 0 -93.5 21.5t-62 54.5t-32 66t-10.5 63z" />
<glyph unicode="g" horiz-adv-x="905" d="M-616 -874q43 122 277 191q160 47 307 47h6q81 -2 81 -19q0 -13 -55 -28q-49 -13 -117.5 -29t-140 -39t-135 -67t-90.5 -102q-9 -20 -9 -38q0 -59 104 -89q84 -23 208 -23q110 0 251 18q342 44 607 163q266 119 338 273q14 27 14 56q0 27 -12 56q-27 61 -107 98 q-136 65 -330 65q-74 0 -155 -9q-10 -17 -18 -17q-11 0 -21 13q-77 -11 -165 -30.5t-134.5 -29.5t-56.5 -6q-17 8 -36 39.5t-27 76.5q-1 12 -1 24q0 34 15 69q47 100 360 100v13q0 59 2 96h-2q-45 0 -91 17t-92.5 56.5t-82 96.5t-58 144.5t-22.5 193.5q0 102 47 232 t111.5 234t132 176.5t106.5 72.5q50 0 88.5 -16.5t59 -39t33.5 -51.5t16.5 -49.5t3.5 -36.5q0 -8 -16.5 -24t-44 -38t-62.5 -56t-71.5 -74.5t-71.5 -97t-62.5 -119t-44 -145.5t-16.5 -173q0 -120 41 -171q30 -39 72 -39q15 0 32 5q16 242 39 242q64 0 96 -137 q73 92 119.5 235t46.5 316q0 21 28 22h4q37 0 68 -39q33 -42 33 -110q0 -65 -33 -171t-101.5 -223t-151.5 -178q0 -56 -15 -170q127 -10 241.5 -34.5t176.5 -53.5q71 -33 122.5 -90.5t76 -120t34.5 -126.5q7 -44 7 -80q0 -19 -2 -36q-5 -50 -19 -81q-32 -69 -124 -151 t-217 -159t-277.5 -141t-301.5 -102q-146 -38 -289 -38h-4q-145 1 -249 50q-36 17 -88 62t-101 102.5t-75 124.5q-17 41 -17 75q0 22 7 42z" />
<glyph unicode="h" horiz-adv-x="952" d="M18 728q8 138 20.5 277t28.5 247.5t27.5 188t11.5 93.5q0 5 -2 23t-1.5 30t4.5 27t18.5 23t38.5 8q25 0 59 -6.5t71.5 -19.5t63 -38.5t25.5 -58.5q0 -29 -31.5 -215.5t-63.5 -439t-32 -441.5q0 -131 37 -240q36 202 109 448.5t114 246.5q33 0 79.5 -11t99.5 -33.5 t89.5 -67.5t36.5 -103q0 -81 -18.5 -357.5t-18.5 -374.5q0 -81 7 -142t15.5 -86.5t15.5 -45t7 -27.5q0 -28 -47 -39q-20 -4 -39 -4q-49 0 -100 26q-110 57 -122 202q-1 16 -1 32q0 172 33 485t33 339q0 27 -8 51t-20 38t-24 24t-20 14l-8 4q-14 -63 -35 -162t-55.5 -303.5 t-34.5 -288.5q0 -21 -16 -31q1 -15 -17.5 -20.5t-68.5 -5.5q-84 0 -141.5 62.5t-83.5 164.5q-24 101 -34 235q-5 75 -6 151q1 60 4 121z" />
<glyph unicode="i" horiz-adv-x="507" d="M-35 1341q0 29 10.5 49t24 30t42.5 15.5t48 6t58 0.5h8q72 0 140.5 -70t68.5 -131q0 -79 -90 -79h-5q-89 2 -196 64q-92 53 -107 101q-2 7 -2 14zM4 590q0 142 11.5 257.5t11.5 117.5q0 39 56 39h8q70 -4 135 -48q59 -40 59 -84q0 -35 -6.5 -136.5t-6.5 -147.5 q0 -260 78 -434q38 20 96.5 122.5t99.5 197t50 128.5q9 32 27 30q16 -1 19 -20q1 -7 -1 -14q-12 -47 -44 -133t-78.5 -191t-104.5 -180.5t-107 -75.5h-4q-55 0 -100 22t-75.5 58t-53.5 86.5t-36 101t-21 109.5t-10.5 104t-2.5 91z" />
<glyph unicode="j" horiz-adv-x="675" d="M-399 -680q0 16 6.5 22t19.5 4t29.5 -8t40 -15t47 -17.5t54 -14.5t59.5 -6q55 0 116.5 52t115 142t89 230t35.5 297q0 286 -15.5 499t-34.5 303t-34.5 160t-15.5 105q0 27 13 39t39 10.5t54.5 -7t71.5 -12.5t78 -7q49 0 87.5 -97t60.5 -254.5t33 -336t11 -361.5 q0 -175 -44.5 -339t-124.5 -292.5t-202 -206t-266 -77.5q-139 0 -231 61.5t-92 126.5zM51 1499q0 19 3.5 33.5t12.5 25t16.5 18t25 12t27.5 7t34 3.5t34 1h38q73 0 141 -69t68 -131q0 -79 -90 -79h-5q-90 1 -196 63q-92 53 -107 102q-2 7 -2 14z" />
<glyph unicode="k" horiz-adv-x="974" d="M0 598q0 119 35 533.5t35 418.5q0 50 74 53h10l146 -39q74 -42 75 -91q0 -42 -42 -357.5t-50 -456.5q58 157 157.5 287.5t171.5 130.5q125 0 175 -15q118 -37 118 -188q0 -254 -270 -352q24 -45 59 -122.5t66.5 -146.5t72 -150.5t84.5 -146t94.5 -119.5t111.5 -85.5 t126 -30.5q42 0 48 -27q1 -4 1 -7q0 -25 -38 -48q-50 -28 -132 -28t-153.5 27.5t-125.5 74t-101 107t-84 129t-70.5 137t-65.5 133t-63 116t-68.5 86.5t-77.5 44q-15 -76 -18 -166q9 -54 21.5 -103t21 -75t19.5 -54q16 -37 13.5 -49t-32.5 -12q-49 0 -96.5 21.5t-92.5 69 t-79.5 115t-55 167.5t-20.5 219zM338 563q77 12 139 52t96.5 87t58 99.5t31 86.5t7.5 52q0 64 -43 64h-1q-53 -2 -124 -89q-109 -133 -164 -352z" />
<glyph unicode="l" horiz-adv-x="440" d="M4 395q-2 37 -2 81q0 152 22 392q28 308 57 562q28 239 28 285v5v7q0 70 61 80q11 2 22 2q49 0 104 -37q69 -48 73 -109v-7q0 -59 -27 -315q-29 -273 -57 -579q-24 -260 -24 -391q0 -23 1 -43q6 -117 27 -215t37 -139.5t37 -83.5q18 -34 15 -43.5t-40 -10.5h-5 q-43 0 -94 34q-54 36 -105 102.5t-87.5 178.5t-42.5 244z" />
<glyph unicode="m" horiz-adv-x="1404" d="M-27 819q0 29 69 30h4q84 0 153 -38q63 -34 63 -84q0 -56 -11 -192t-11 -213q0 -57 2 -80q13 80 28.5 158t40.5 190t54 204t63.5 176.5t75.5 132.5t84 48q83 0 134 -61.5t66 -153.5q16 -90 18 -198v-27q0 -93 -10 -173q-10 -92 -16.5 -153t-1.5 -61q7 0 37 78t65.5 171.5 t81.5 171.5t82 78q43 0 79.5 -6t71 -20.5t54 -42.5t19.5 -68q0 -26 -13.5 -127.5t-13.5 -177.5q0 -59 4.5 -115t10 -92.5t11 -70t8 -52.5t0.5 -33.5t-11 -20t-27 -5.5q-55 0 -99 30.5t-71 80t-46.5 109t-28 118.5t-13.5 108.5t-5 79.5l-1 31q-164 -520 -232 -520 q-24 0 -51 4.5t-61 18.5t-60 36t-44.5 62t-18.5 92q0 48 11 152t23 210q12 104 22 206q8 78 8 134q0 17 -1 32q-3 64 -22 64q-34 0 -67.5 -77.5t-62 -203.5t-52.5 -254t-49 -261t-42 -193q13 -41 7.5 -57.5t-41.5 -16.5q-46 0 -83 19t-62 56t-43.5 79t-29 102.5t-17 110 t-8 118t-1.5 111t1 103.5t1 82q0 16 -12.5 31t-12.5 30z" />
<glyph unicode="n" horiz-adv-x="1019" d="M-20 786q0 11 31 19.5t75 8.5t88.5 -8t75.5 -33t31 -62q0 -18 -4.5 -156.5t-4.5 -175.5q0 -66 11 -141q37 122 77 240t96 262t116 246t112 132q4 4 16 8q16 4 23 4q25 0 39 -2q47 0 57 -10q54 -15 91.5 -43t37.5 -63q0 -42 -52 -321.5t-52 -364.5q0 -106 6 -176t13.5 -94 t13.5 -44t6 -37q0 -22 -44 -22q-70 0 -141 56q-125 98 -125 296q0 266 72 658q-30 -76 -155 -473.5t-171 -464.5q-3 -16 -16 -21h-6q-12 -4 -25 -4q-58 0 -104.5 35.5t-74 92.5t-48.5 128.5t-27 143.5q-7 74 -13 140q-4 47 -4 83q1 15 1 29q1 26 1 44q0 14 -1 23v8 q0 19 -11 30t-11 29z" />
<glyph unicode="o" horiz-adv-x="796" d="M4 473q0 80 8.5 150.5t28 139.5t57.5 115t92 58q17 49 48 81t71.5 46t74.5 19t77 5q97 0 156 -102.5t59 -322.5q0 -97 -12.5 -190t-41.5 -181t-71.5 -153.5t-106 -105.5t-141.5 -40q-70 0 -124 30.5t-86 78.5t-53 113.5t-28.5 128t-7.5 130.5zM324 349q0 -19 -1 -36 q0 -35 2 -63q3 -42 11.5 -77.5t26 -54t43.5 -18.5q37 0 74.5 89t57.5 215q22 127 26 254q1 17 0 32q0 106 -26 184q-30 89 -92 89q-28 0 -40 -55t-26.5 -127t-45.5 -99q0 -46 -2.5 -109.5t-4 -115t-3.5 -108.5z" />
<glyph unicode="p" horiz-adv-x="1015" d="M4 419q6 194 21 354.5t43 261t59 100.5q27 0 41.5 -0.5t39.5 -2.5t40 -7.5t30.5 -14.5t23 -24t7.5 -35t-3.5 -76.5t-11 -165t-13.5 -197.5q39 165 83 295.5t80 167.5q31 31 100 36q23 2 45 2q43 0 80 -7q56 -10 72 -21q63 -42 106 -140.5t58 -218.5q8 -60 8 -123 q0 -62 -7 -125q-15 -129 -56 -234t-122 -173.5t-189 -68.5q-80 0 -140 34q-40 22 -21 35q12 7 42 7q52 0 91.5 51t61 132.5t33.5 179.5q13 94 13 189q0 4 -1 8q0 98 -5.5 179.5t-18 132.5t-27.5 51q-45 0 -94 -82t-91 -212.5t-69 -232t-49 -200.5q-6 -153 -6 -319 q0 -144 15.5 -268t33 -187.5t30 -110t8 -61t-33.5 -14.5q-86 0 -149.5 100.5t-96 261t-49.5 354.5q-13 147 -13 294q0 48 1 95z" />
<glyph unicode="q" horiz-adv-x="1189" d="M4 291q0 55 18 134.5t50.5 171t85 181t114.5 162t145.5 117.5t172.5 45q67 0 119.5 -13t83.5 -34t52.5 -50t30 -57.5t11.5 -61.5t1 -56t-4.5 -46.5t-2.5 -29.5q0 -14 -7 -21q9 -18 9 -35q0 -29 -27 -126t-61 -216.5t-67 -314.5t-42 -393q64 174 271.5 594t250.5 536 q12 33 33 19q18 -14 15 -38q0 -3 -1 -5q-23 -70 -99.5 -223.5t-156.5 -309.5t-170.5 -372.5t-142.5 -405.5q4 -53 4 -85q0 -29 -3 -42q-10 -34 -38 -35q-76 0 -111.5 120t-35.5 359q0 195 59 570q-8 -7 -51.5 -64.5t-89 -115t-103.5 -106t-98 -48.5q-88 0 -151.5 93.5 t-63.5 201.5zM222 71q8 -20 24 -20q30 0 117 135.5t163.5 284t85.5 191.5l-12 -87q25 161 25 183q0 43 33 60q21 10 47 10q14 0 29 -3q45 -9 85 -34q-3 34 -12 67.5t-23.5 66t-38 52.5t-51.5 20q-127 0 -263 -226q-114 -190 -180 -434q-37 -137 -37 -211q0 -34 8 -55z M612 662l2 6q-2 -4 -2 -6z" />
<glyph unicode="r" horiz-adv-x="843" d="M-6 621q0 116 9 227t31.5 199t55.5 88q98 0 149.5 -44.5t51.5 -113.5q0 -33 -20.5 -144t-20.5 -198q0 -113 6 -199q27 137 84 305.5t124 296t111 127.5h11q28 0 42.5 -0.5t40.5 -2t40.5 -6t35 -12t32 -19.5t23 -29t16.5 -41t5 -54q0 -89 -14.5 -162t-48 -122t-82.5 -49 q-76 0 -128 25.5t-52 60.5q0 20 8.5 75t17.5 101l8 45q-10 -19 -26 -52.5t-58 -131t-74.5 -187t-62 -201t-33.5 -192.5q10 -64 23.5 -113.5t22 -73t8.5 -36.5q0 -17 -30 -29q-21 -9 -44 -9q-38 0 -78 26q-132 84 -170 394q-14 112 -14 251z" />
<glyph unicode="s" horiz-adv-x="776" d="M2 637q0 88 50.5 206t129 206t148.5 88q14 0 46 0.5t49 0.5t47.5 -1t48 -3.5t43 -7t40.5 -11.5t33 -17.5t27 -24t15.5 -32.5t6.5 -42q0 -54 -31 -119t-71.5 -113.5t-77.5 -82t-51 -33.5q-10 0 -9.5 30t8.5 71.5t15 85.5t9.5 72t-7.5 30q-76 0 -148 -110q-63 -96 -75 -193 v-16q0 -74 43 -80h38t57 -3.5t72.5 -9t70 -18.5t66 -31t44 -47.5t18.5 -66.5q0 -65 -53.5 -150.5t-126 -156t-149 -120t-121.5 -49.5q-81 0 -137 52q-34 32 -24 49q4 6 15 6q46 0 139.5 78.5t167.5 170.5t74 128q-9 -1 -25 -3q-15 -2 -61 -2q-4 0 -9 -1q-41 0 -79 5 q-42 5 -92.5 22t-87 45t-61.5 79t-25 119z" />
<glyph unicode="t" horiz-adv-x="573" d="M-539.5 1463q-3.5 13 6.5 19t25 3q268 -54 725 -68l12 62q56 293 56 329q0 89 62 100q8 1 16 1q47 0 98 -43q69 -67 74 -142q0 -31 -29 -239l-12 -70q195 1 483.5 9t353.5 8q41 -1 39 -19q-3 -18 -43 -31q-125 -38 -368.5 -76.5t-493.5 -58.5q-109 -618 -109 -829 q0 -141 17.5 -260.5t32 -166t35.5 -101.5q17 -40 13 -51t-42 -11q-48 0 -100.5 46t-99.5 128.5t-77.5 217.5t-30.5 294q0 247 80 719q-26 -1 -51 -1q-108 0 -199 11q-72 9 -138.5 29.5t-127.5 52t-96.5 53.5t-87.5 58q-20 14 -23.5 27z" />
<glyph unicode="u" horiz-adv-x="854" d="M-6 344q0 130 25.5 381t25.5 268q0 14 -7 37.5t-10.5 37.5t7.5 25t43 11q86 0 162.5 -41t76.5 -94q0 -25 -19.5 -118.5t-38.5 -229.5t-19 -263q0 -153 22 -243q126 289 187 485q8 152 8 164q0 90 57 90q25 0 59.5 -5t78 -16.5t73 -37t29.5 -60.5q0 -21 -8 -63t-16.5 -130 t-8.5 -220q0 -63 7.5 -122t15 -89t11 -53.5t-4.5 -31.5t-31 -8q-51 0 -99.5 18.5t-90 55.5t-66.5 101t-25 147q0 63 2 100l-155 -391q16 -46 16 -57q0 -21 -42 -19q-70 2 -139 59q-126 104 -126 312z" />
<glyph unicode="v" horiz-adv-x="870" d="M-6.5 1047.5q0.5 12.5 4 27.5t17 23t36.5 8q102 0 158.5 -53t56.5 -135q0 -331 117 -650q19 48 70.5 164.5t90 211t52.5 149.5q28 104 42 176t14 94.5t1 48t4 37.5q6 24 42 9q48 -19 85 -86q41 -75 41 -174q0 -72 -22 -157q-40 -153 -107 -332t-114 -281l-47 -103 q-6 -23 -30 -23q-17 0 -42 12q-7 -10 -27 -10q-41 0 -88.5 30t-97 85t-94.5 142t-80.5 192.5t-56.5 245t-21 290.5q0 7 -2.5 26.5t-2 32z" />
<glyph unicode="w" horiz-adv-x="1316" d="M0 381q0 125 14.5 361.5t14.5 252.5q0 13 -6.5 35.5t-10 36t7.5 24.5t41 11q51 0 103 -17t88.5 -47.5t36.5 -64.5q0 -23 -13.5 -111.5t-26.5 -217.5t-13 -251q0 -168 40 -278q126 306 170 440v244q0 33 13 59.5t43 26.5q23 0 56.5 -5t75 -16t69.5 -35t28 -57v-297 q0 -139 39 -276q98 91 138 298t40 533q0 24 -3 41.5t-3 38.5q0 28 73 52t128 24q45 0 57 -102.5t12 -338.5q0 -140 -37.5 -279.5t-108.5 -235t-155 -95.5q-43 0 -125 15q4 -12 12 -34q22 -49 22 -73q0 -27 -40 -27q-49 0 -104.5 20t-108 57.5t-87 102t-34.5 142.5v90 l-147 -369q18 -41 18 -53q0 -20 -45 -13q-75 12 -146 78q-126 115 -126 310z" />
<glyph unicode="x" horiz-adv-x="1009" d="M-1 106q5 7 11 7q107 0 287 209q-107 183 -178.5 369.5t-71.5 277.5q0 22 70 70q91 64 148 67q40 2 40 -35q0 -24 55 -176t129 -315q93 143 154.5 267.5t61.5 168.5q0 27 19 27q11 0 27 -8q45 -23 81 -75q24 -33 24 -55q0 -63 -77.5 -214.5t-190.5 -313.5 q214 -404 368 -404q24 0 -3 -25q-44 -41 -124 -66q-46 -15 -86 -15q-140 0 -340 285q-154 -164 -251 -164q-119 0 -151 64q-16 32 -2 54z" />
<glyph unicode="y" horiz-adv-x="841" d="M-100 -371q2 17 12 19.5t29 -7t41 -21.5t55 -24.5t63 -15.5q5 -1 10 -1q32 0 74 21q50 23 104.5 76.5t100.5 127.5t76.5 184.5t30.5 234.5q0 110 -4 352q-103 -481 -183 -557q-3 -9 -16 -12q-1 0 -4.5 -1t-5.5 -1q-25 -3 -58.5 6.5t-73 36.5t-72.5 67.5t-55 109.5 t-22 153q0 131 26.5 382t26.5 267q0 14 -7 37.5t-10.5 38t8 26t42.5 11.5q84 0 162 -41.5t78 -96.5q0 -25 -20 -118t-40 -228.5t-20 -263.5q0 -173 31 -268q208 643 208 764v16q0 14 -7 37.5t-10.5 38t8 26t42.5 11.5q82 0 148.5 -40.5t66.5 -96.5q0 -10 7.5 -181.5 t7.5 -345.5q0 -181 -51.5 -353t-134.5 -296.5t-196 -194.5q-94 -59 -191 -59q-18 0 -36 2q-110 13 -178 70q-63 53 -63 101v7z" />
<glyph unicode="z" horiz-adv-x="993" d="M-7 213q0 55 46 55q55 0 112 45t112.5 126t102 162t105 186.5t96.5 164.5q-108 -11 -197 -11q-126 0 -216 22q-133 30 -155 65q-13 20 25 26q11 1 23 1q42 0 109 -15q60 -10 123 -10q51 0 105 6q120 14 214 42l94 26l2 -2q37 26 68 26q16 0 63 -67q68 -98 69 -149 q1 -29 -26 -29q-43 0 -90 -46.5t-93.5 -127.5t-90.5 -167.5t-99.5 -189.5t-103.5 -170q61 12 66 13q134 18 225 18q43 -1 76 -5q102 -12 157 -73q12 -14 16 -65q1 -16 1 -31q0 -35 -6 -68q-9 -48 -31 -51q-11 -1 -33 19t-55.5 49t-78 56t-115.5 41q-40 8 -83 8q-34 0 -71 -5 q-130 -16 -201 -47q-62 -43 -123 -43q-45 0 -94 75q-48 76 -48 140z" />
<glyph unicode="{" horiz-adv-x="600" d="M33 864v8v5q2 4 14.5 27t25 48.5t28 78.5t26.5 116q15 118 10 465v71q0 73 27 136.5t57 93.5q11 14 37 22.5t51 8.5q95 0 122 -32q14 -17 -4 -26q-8 -4 -19 -4q-27 0 -39.5 -66t-10.5 -159v-76q8 -263 -12 -405q-22 -133 -50.5 -205.5t-70.5 -98.5q42 -26 70.5 -98.5 t50.5 -202.5q20 -145 12 -407v-78q-2 -92 10.5 -158.5t39.5 -66.5q33 0 31 -16q-3 -21 -50 -35q-36 -11 -82 -11q-61 0 -86 31q-29 29 -56.5 93.5t-27.5 137.5v72q5 345 -10 465q-11 63 -27 115.5t-28 77t-25 47.5t-14 26z" />
<glyph unicode="|" horiz-adv-x="395" d="M92 944.5q-1 254.5 2 473.5t2 237q0 27 1.5 40.5t9 28t24.5 20.5t45 7q55 1 92 -66t37 -133q1 -38 -3.5 -299.5t-14.5 -593t-34 -594t-56 -262.5q-40 1 -64.5 177.5t-32 443t-8.5 521z" />
<glyph unicode="}" horiz-adv-x="600" d="M70 1899q0 20 42 34q34 11 85 11q25 0 51 -8.5t37 -22.5q30 -30 57 -93.5t27 -136.5v-71q-5 -347 10 -465q11 -63 26.5 -116t28 -78.5t25 -48.5t14.5 -27v-5v-8q-1 -3 -14 -26t-25 -47.5t-28 -77t-27 -115.5q-15 -120 -10 -465v-72q0 -73 -27.5 -137.5t-56.5 -93.5 q-25 -31 -86 -31q-87 0 -123 31q-20 19 0 27q8 4 22 4q27 0 39 66t10 159v78q-8 256 13 407q22 130 50.5 202.5t70.5 98.5q-42 26 -70.5 98.5t-50.5 205.5q-21 147 -13 405v76q2 94 -10 159.5t-39 65.5q-28 0 -28 17z" />
<glyph unicode="~" horiz-adv-x="1019" d="M105 800q-1 25 12 25q17 0 31 -9.5t42 -19.5t78 -10q52 0 181.5 32t222.5 32q118 0 190 -117q45 -73 47 -136q1 -30 -12 -30t-23.5 12.5t-19.5 27.5t-35.5 27.5t-66.5 12.5q-92 0 -185 -18t-167 -36t-121 -18q-67 0 -127 98q-44 73 -47 127z" />
<glyph unicode="&#xa1;" horiz-adv-x="608" d="M109 1610q0 75 89 71q84 -3 180 -62q85 -57 91 -101q0 -27 -9 -44.5t-20.5 -27t-37 -14t-42.5 -5t-53 -0.5h-8q-65 0 -127.5 63.5t-62.5 119.5zM143 -143q0 8 21.5 205.5t41 450.5t15.5 405q-2 71 -13.5 138.5t-22 102.5t-15 63.5t6.5 38.5t44 11q84 2 140.5 -73.5 t80.5 -202t33 -276t2 -310.5t-17 -289.5t-20 -229t-10 -114.5q0 -23 -1.5 -33.5t-10 -22.5t-28.5 -16.5t-54 -5.5q-67 -3 -130 52.5t-63 105.5z" />
<glyph unicode="&#xa2;" horiz-adv-x="708" d="M-2 549q0 152 58.5 289t119.5 198q39 45 170 56q1 27 2 56.5t1.5 45t0.5 20.5q0 20 1 30.5t6 21.5t16 15.5t30 4.5q34 0 56 -50t22 -101v-50q27 -8 35 -16q22 -22 45 -91.5t26.5 -124t-24.5 -62.5q-23 0 -39 31.5t-28.5 76.5t-20.5 59q-14 -487 -39 -804q131 36 215 249 q16 38 37 50.5t27 -8t-10 -66.5q-116 -303 -279 -365q-17 -183 -39 -180q-28 0 -41 160h-8q-101 0 -180.5 81t-119.5 206t-40 268zM272.5 481q-3.5 -225 65.5 -305q-8 266 4 680q-66 -150 -69.5 -375z" />
<glyph unicode="&#xa3;" horiz-adv-x="1599" d="M-19 84q-37 64 8 130q59 90 223 117q96 15 216 5q64 153 121 471q-132 11 -275 31q-41 13 -44 67q-2 48 24 70q14 12 31 6q117 -25 282 -41q14 83 41 277q20 166 107 290.5t223 190t303 65.5q48 0 84 -14t55.5 -39t32.5 -51.5t16 -61t4 -56.5t-1 -48.5t-2 -28.5 q0 -17 -15.5 -25t-31 -2t-15.5 23q0 74 -9 108q-29 107 -142 107q-53 0 -96 -20.5t-74.5 -51t-58.5 -89.5t-44 -110.5t-35 -142t-28.5 -156t-26.5 -177.5q198 3 348 30q36 5 54 -7.5t7 -32t-49 -33.5q-176 -61 -376 -78q-53 -323 -56 -336q-29 -137 -73 -215 q254 -88 353 -112q137 -33 247 -33q61 0 101.5 7.5t57 18t25.5 23.5t9 23.5t5.5 18t18.5 7.5q22 0 28 -36q9 -57 -34 -111q-66 -85 -215 -85q-92 0 -174 8.5t-163.5 29t-124.5 33t-129 43.5t-106 38q-51 -48 -116 -78.5t-127 -40.5t-127 -12.5t-117 6.5q-102 13 -140 80z M56 109q12 -11 55 -15q136 -18 223 82q-149 3 -243 -32q-54 -20 -35 -35z" />
<glyph unicode="&#xa8;" horiz-adv-x="792" d="M43 1382q0 57 35.5 90t77.5 35q44 5 85.5 -26t41.5 -82q0 -74 -31 -109t-82 -35q-41 0 -84 39.5t-43 87.5zM481 1419q0 45 34 65.5t79 22.5q42 5 84.5 -26.5t42.5 -81.5q0 -72 -47.5 -108t-106.5 -36q-33 0 -59.5 55t-26.5 109z" />
<glyph unicode="&#xa9;" horiz-adv-x="1189" d="M35 496q0 88 27 182.5t81 183t125.5 159t169 113t203.5 42.5q86 0 155.5 -19t116.5 -49.5t81.5 -77.5t54 -94.5t31 -109.5t15 -114t3.5 -116q0 -114 -30 -223t-78 -190t-106 -143.5t-117 -95t-108 -32.5h-12h-6q-130 0 -244 47.5t-193 127.5t-124 186.5t-45 222.5z M221 496q0 -118 34 -214t83.5 -152.5t109 -95t105.5 -53t78 -14.5h16q13 14 33.5 23.5t34.5 9.5q17 0 51.5 21t80.5 70.5t86.5 118t68.5 179t28 238.5q0 125 -30.5 221t-82.5 151t-113 82t-128 27q-42 0 -99.5 -26.5t-120 -80.5t-115 -125t-86.5 -171.5t-34 -208.5zM412 547 q0 103 39.5 198t80.5 134q32 31 99 37t90 -19q22 -20 46 -93q28 -89 -3 -93q-17 0 -31.5 30.5t-27.5 61.5t-25 31q-25 0 -46 -57t-29 -139t-7 -163.5t22 -138.5t56 -57q112 0 182 186q16 34 34 33q17 0 9 -31q-2 -7 -6 -16q-17 -48 -38.5 -92t-52 -88t-72 -70.5t-87.5 -26.5 q-69 0 -123 55t-82 139.5t-28 178.5z" />
<glyph unicode="&#xab;" horiz-adv-x="1499" d="M54.5 654.5q5.5 25.5 29.5 45.5q79 64 170 158q28 27 112 112.5t89 90.5q70 89 197 98q95 7 152 -31q52 -36 20 -80l-5 -6q-32 -37 -116.5 -122t-172.5 -160q-51 -43 -120.5 -106t-90.5 -81q-8 -7 25 -42.5t80 -79.5q75 -75 190.5 -183.5t116.5 -109.5q25 -26 -21 -52 q-51 -28 -110 -22q-34 4 -51 20q-19 18 -123.5 114.5t-128.5 121.5q-15 15 -45 42t-55.5 51t-55.5 54.5t-49 58t-31 55.5t-6.5 53.5zM611.5 605.5q5.5 25.5 29.5 45.5q79 64 170 158q28 27 112 112.5t89 90.5q70 89 197 98q95 7 152 -31q52 -36 20 -80l-5 -6 q-32 -37 -116.5 -122t-172.5 -160q-51 -43 -120 -106t-90 -81q-8 -7 26 -44.5t78 -78.5q75 -75 190.5 -183t116.5 -109q25 -26 -21 -52q-51 -28 -110 -22q-34 3 -51 20q-18 19 -122.5 115t-129.5 121q-15 15 -45 42t-55.5 51t-55.5 54.5t-49 58t-31 55.5t-6.5 53.5z" />
<glyph unicode="&#xad;" horiz-adv-x="1222" d="M125.5 838q-3.5 24 17 46.5t62.5 28.5q33 4 108 14.5t102.5 14t87 10.5t94 8t88 2t105 -1.5t111.5 -8.5q68 -1 86 -51q15 -45 -19 -87q-36 -43 -98 -44q-264 16 -331 17.5t-326 -9.5q-36 -1 -60 17.5t-27.5 42.5z" />
<glyph unicode="&#xae;" horiz-adv-x="729" d="M41 877q0 79 38.5 160.5t113.5 139.5t165 58q63 0 109 -19t71.5 -47.5t40.5 -72t19 -81t4 -85.5q0 -145 -80 -252t-153 -107h-4h-5q-138 0 -228.5 90.5t-90.5 215.5zM139 877q0 -76 26.5 -134t64.5 -87t70 -42.5t54 -13.5h8q19 16 37 16q9 0 27.5 11t43 37t46 62.5 t36.5 94.5t15 125q0 128 -55.5 191t-132.5 63q-29 0 -69 -23t-78.5 -62.5t-65.5 -103t-27 -134.5zM225 915q0 64 8 117t25 53q32 0 49 -14.5t17 -36.5q0 -14 -8 -58.5t-7 -53.5q13 65 49 119.5t60 54.5q16 0 23.5 -0.5t21 -3t20 -7.5t12 -16t5.5 -27q0 -68 -43 -115 t-101 -67q81 -133 107 -133q16 0 15 -6q-2 -10 -32 -10q-29 0 -131 120q2 -32 7 -61t9.5 -45t4.5 -20q0 -9 -18 -12q-40 -5 -65 50q-28 58 -28 172zM319 870l3 2q31 0 64 64q31 59 26 87q-2 9 -9 9q-8 -8 -20 -23t-35 -57.5t-29 -81.5z" />
<glyph unicode="&#xb0;" horiz-adv-x="653" d="M31 1509q0 63 10.5 115.5t43.5 98t85 53.5q12 28 34.5 46t52 26.5t55 11t57.5 2.5q71 0 114 -59t43 -185q0 -71 -15.5 -136.5t-46.5 -122.5t-86 -91.5t-126 -34.5q-51 0 -91 17.5t-64 45t-39.5 65t-21 73.5t-5.5 75zM267 1449q-1 -37 2 -75.5t17.5 -58t41.5 -19.5 t54.5 51t42.5 123.5t18.5 145t-18.5 123.5t-67 51q-21 0 -30 -31.5t-20 -73t-34 -57.5q0 -33 -3 -87.5t-4 -91.5z" />
<glyph unicode="&#xb4;" horiz-adv-x="858" d="M172 1317q10 34 94 61q51 16 103 58t88.5 79t50.5 41q31 10 81.5 -20t67.5 -68q4 -10 -30 -44.5t-93.5 -74.5t-113.5 -59q-121 -40 -217 -12q-39 12 -31 39z" />
<glyph unicode="&#xbb;" horiz-adv-x="1499" d="M56 238q3 3 5 6q32 37 116.5 122t172.5 160q51 43 120.5 106t90.5 81q8 7 -26 44.5t-78 78.5q-75 75 -190.5 183t-116.5 109q-25 26 21 52q51 28 110 22q34 -3 51 -20q18 -18 122.5 -114.5t129.5 -121.5q15 -15 45 -42t55.5 -51t55.5 -54.5t49 -58t31 -55.5t6.5 -53.5 t-29.5 -45.5q-79 -64 -170 -158q-28 -27 -112 -112.5t-89 -90.5q-70 -90 -199 -98q-94 -7 -151 31q-52 36 -20 80zM613 189q3 3 5 6q32 37 116.5 122t172.5 160q51 43 120.5 106t90.5 81q8 7 -25.5 43t-78.5 79q-75 75 -190.5 183.5t-116.5 109.5q-25 26 21 52q51 28 110 22 q34 -4 51 -20q18 -18 122.5 -114.5t129.5 -121.5q15 -15 45 -42t55.5 -51t55.5 -54.5t49 -58t31 -55.5t6.5 -53.5t-29.5 -45.5q-79 -64 -170 -158q-28 -27 -112 -112.5t-89 -90.5q-70 -90 -199 -98q-94 -7 -151 31q-52 36 -20 80z" />
<glyph unicode="&#xbf;" horiz-adv-x="1099" d="M91.5 151.5q4.5 -74.5 17 -142t45.5 -126.5t80 -104t120.5 -74t167.5 -37q80 -7 149 16t116 64t85 97.5t60 111t38 110.5t21.5 89.5t7.5 54.5q5 52 -52.5 105.5t-131.5 60.5q-35 2 -51 -8.5t-18 -31t-1.5 -49t-1.5 -63.5q-3 -36 -35.5 -106t-77 -140.5t-98.5 -121.5 t-94 -47q-74 6 -85 169t11 286q1 11 1 16q5 60 28.5 107.5t57 79.5t73 59.5t79 54t73 56t56.5 72.5t28 97q4 49 -2 116.5t-22.5 143.5t-56 130.5t-95.5 59.5q-36 3 -48 -8t-9 -39t11.5 -74t14.5 -113t-2 -155q-7 -76 -34.5 -133t-66 -91.5t-84 -62t-90.5 -52t-83 -52 t-64.5 -71.5t-32.5 -103q-9 -77 -4.5 -151.5zM436 1614q7 75 100 60q83 -13 169 -79q81 -63 79 -108q-5 -42 -31 -60.5t-63.5 -16.5t-83.5 5q-67 4 -121.5 73t-48.5 126z" />
<glyph unicode="&#xc0;" horiz-adv-x="1126" d="M-655 49q10 82 61.5 174t127 175t179.5 171.5t204.5 161t215.5 146.5q180 434 295 794q-148 -58 -266 -114t-232.5 -124.5t-182.5 -143.5t-77 -148q-4 -36 -37 -28q-37 10 -64.5 57t-21.5 100q10 91 80 175t167.5 144t222 117t233 94.5t211 77t145.5 64.5q1 80 74 100 q67 18 143 -23q80 -43 94 -115l1 -8q10 -130 3.5 -361.5t-5 -571.5t21.5 -502q15 -114 36.5 -209t48 -164.5t40.5 -100t37 -74.5q24 -41 21 -53.5t-44 -17.5q-40 -5 -89.5 18.5t-103.5 79t-102.5 134.5t-87.5 196.5t-57 253.5q-28 221 -31 545q-69 -41 -221 -133 q-57 -153 -113.5 -290t-122.5 -280.5t-130.5 -257t-130 -203.5t-130 -136t-120.5 -39q-96 11 -159.5 39.5t-93.5 72.5t-38.5 93.5t-1.5 113.5zM-602 20.5q-1 -11.5 1 -41.5t9.5 -53.5t28 -44.5t51.5 -24q57 -6 128.5 62t149.5 197t152.5 278t155.5 337q-130 -89 -238.5 -174 t-207.5 -177.5t-159.5 -181t-68.5 -159.5q-1 -7 -2 -18.5zM381 2392q17 38 67.5 68t81.5 20q14 -4 50.5 -41t88.5 -79t103 -58q92 -30 96 -66q2 -23 -32 -34q-96 -28 -218 12q-54 19 -113.5 59t-93.5 74.5t-30 44.5zM428 1053q117 65 178 96q-2 169 2 438 q-69 -232 -180 -534z" />
<glyph unicode="&#xc1;" horiz-adv-x="1126" d="M-655 49q10 82 61.5 174t127 175t179.5 171.5t204.5 161t215.5 146.5q180 434 295 794q-148 -58 -266 -114t-232.5 -124.5t-182.5 -143.5t-77 -148q-4 -36 -37 -28q-37 10 -64.5 57t-21.5 100q10 91 80 175t167.5 144t222 117t233 94.5t211 77t145.5 64.5q1 80 74 100 q67 18 143 -23q80 -43 94 -115l1 -8q10 -130 3.5 -361.5t-5 -571.5t21.5 -502q15 -114 36.5 -209t48 -164.5t40.5 -100t37 -74.5q24 -41 21 -53.5t-44 -17.5q-40 -5 -89.5 18.5t-103.5 79t-102.5 134.5t-87.5 196.5t-57 253.5q-28 221 -31 545q-69 -41 -221 -133 q-57 -153 -113.5 -290t-122.5 -280.5t-130.5 -257t-130 -203.5t-130 -136t-120.5 -39q-96 11 -159.5 39.5t-93.5 72.5t-38.5 93.5t-1.5 113.5zM-602 20.5q-1 -11.5 1 -41.5t9.5 -53.5t28 -44.5t51.5 -24q57 -6 128.5 62t149.5 197t152.5 278t155.5 337q-130 -89 -238.5 -174 t-207.5 -177.5t-159.5 -181t-68.5 -159.5q-1 -7 -2 -18.5zM358 2257q11 34 95 61q51 16 102.5 58t88 79.5t50.5 41.5q31 10 82 -20.5t68 -68.5q4 -10 -30.5 -44.5t-94 -74.5t-113.5 -59q-121 -40 -217 -12q-39 12 -31 39zM428 1053q117 65 178 96q-2 169 2 438 q-69 -232 -180 -534z" />
<glyph unicode="&#xc2;" horiz-adv-x="1126" d="M-655 49q10 82 61.5 174t127 175t179.5 171.5t204.5 161t215.5 146.5q180 434 295 794q-148 -58 -266 -114t-232.5 -124.5t-182.5 -143.5t-77 -148q-4 -36 -37 -28q-37 10 -64.5 57t-21.5 100q10 91 80 175t167.5 144t222 117t233 94.5t211 77t145.5 64.5q1 80 74 100 q67 18 143 -23q80 -43 94 -115l1 -8q10 -130 3.5 -361.5t-5 -571.5t21.5 -502q15 -114 36.5 -209t48 -164.5t40.5 -100t37 -74.5q24 -41 21 -53.5t-44 -17.5q-40 -5 -89.5 18.5t-103.5 79t-102.5 134.5t-87.5 196.5t-57 253.5q-28 221 -31 545q-69 -41 -221 -133 q-57 -153 -113.5 -290t-122.5 -280.5t-130.5 -257t-130 -203.5t-130 -136t-120.5 -39q-96 11 -159.5 39.5t-93.5 72.5t-38.5 93.5t-1.5 113.5zM-602 20.5q-1 -11.5 1 -41.5t9.5 -53.5t28 -44.5t51.5 -24q57 -6 128.5 62t149.5 197t152.5 278t155.5 337q-130 -89 -238.5 -174 t-207.5 -177.5t-159.5 -181t-68.5 -159.5q-1 -7 -2 -18.5zM334 2230q11 35 94 62q78 25 178 125q34 33 57.5 45.5t57.5 3.5t74 -49q100 -100 178 -125q90 -30 84 -57q-3 -16 -39 -27q-15 -8 -76.5 -2t-122.5 26q-31 11 -102 45q-74 -52 -135 -73q-123 -40 -217 -13 q-39 12 -31 39zM428 1053q117 65 178 96q-2 169 2 438q-69 -232 -180 -534z" />
<glyph unicode="&#xc3;" horiz-adv-x="1126" d="M-655 49q10 82 61.5 174t127 175t179.5 171.5t204.5 161t215.5 146.5q180 434 295 794q-148 -58 -266 -114t-232.5 -124.5t-182.5 -143.5t-77 -148q-4 -36 -37 -28q-37 10 -64.5 57t-21.5 100q10 91 80 175t167.5 144t222 117t233 94.5t211 77t145.5 64.5q1 80 74 100 q67 18 143 -23q80 -43 94 -115l1 -8q10 -130 3.5 -361.5t-5 -571.5t21.5 -502q15 -114 36.5 -209t48 -164.5t40.5 -100t37 -74.5q24 -41 21 -53.5t-44 -17.5q-40 -5 -89.5 18.5t-103.5 79t-102.5 134.5t-87.5 196.5t-57 253.5q-28 221 -31 545q-69 -41 -221 -133 q-57 -153 -113.5 -290t-122.5 -280.5t-130.5 -257t-130 -203.5t-130 -136t-120.5 -39q-96 11 -159.5 39.5t-93.5 72.5t-38.5 93.5t-1.5 113.5zM-602 20.5q-1 -11.5 1 -41.5t9.5 -53.5t28 -44.5t51.5 -24q57 -6 128.5 62t149.5 197t152.5 278t155.5 337q-130 -89 -238.5 -174 t-207.5 -177.5t-159.5 -181t-68.5 -159.5q-1 -7 -2 -18.5zM289 2402q1 11 10 11q12 0 42.5 -13.5t88.5 -13.5q44 0 155.5 21.5t190.5 21.5q108 0 171 -91q37 -52 34 -90q-2 -13 -10 -14q-11 0 -20 9t-17 19t-30.5 19t-57.5 9q-104 0 -236 -24.5t-172 -24.5q-62 0 -115 76 q-37 53 -34 85zM428 1053q117 65 178 96q-2 169 2 438q-69 -232 -180 -534z" />
<glyph unicode="&#xc4;" horiz-adv-x="1126" d="M-655 49q10 82 61.5 174t127 175t179.5 171.5t204.5 161t215.5 146.5q180 434 295 794q-148 -58 -266 -114t-232.5 -124.5t-182.5 -143.5t-77 -148q-4 -36 -37 -28q-37 10 -64.5 57t-21.5 100q10 91 80 175t167.5 144t222 117t233 94.5t211 77t145.5 64.5q1 80 74 100 q67 18 143 -23q80 -43 94 -115l1 -8q10 -130 3.5 -361.5t-5 -571.5t21.5 -502q15 -114 36.5 -209t48 -164.5t40.5 -100t37 -74.5q24 -41 21 -53.5t-44 -17.5q-40 -5 -89.5 18.5t-103.5 79t-102.5 134.5t-87.5 196.5t-57 253.5q-28 221 -31 545q-69 -41 -221 -133 q-57 -153 -113.5 -290t-122.5 -280.5t-130.5 -257t-130 -203.5t-130 -136t-120.5 -39q-96 11 -159.5 39.5t-93.5 72.5t-38.5 93.5t-1.5 113.5zM-602 20.5q-1 -11.5 1 -41.5t9.5 -53.5t28 -44.5t51.5 -24q57 -6 128.5 62t149.5 197t152.5 278t155.5 337q-130 -89 -238.5 -174 t-207.5 -177.5t-159.5 -181t-68.5 -159.5q-1 -7 -2 -18.5zM328 2302q0 57 35 90t77 35q43 5 85 -26.5t42 -82.5q0 -74 -30.5 -108.5t-81.5 -34.5q-41 0 -84 39.5t-43 87.5zM428 1053q117 65 178 96q-2 169 2 438q-69 -232 -180 -534zM766 2339q0 45 34 65.5t79 22.5 q42 5 84.5 -26.5t42.5 -82.5q0 -71 -47 -107t-107 -36q-33 0 -59.5 55t-26.5 109z" />
<glyph unicode="&#xc5;" horiz-adv-x="1126" d="M-655 49q10 82 61.5 174t127 175t179.5 171.5t204.5 161t215.5 146.5q180 434 295 794q-148 -58 -266 -114t-232.5 -124.5t-182.5 -143.5t-77 -148q-4 -36 -37 -28q-37 10 -64.5 57t-21.5 100q10 91 80 175t167.5 144t222 117t233 94.5t211 77t145.5 64.5q1 80 74 100 q67 18 143 -23q80 -43 94 -115l1 -8q10 -130 3.5 -361.5t-5 -571.5t21.5 -502q15 -114 36.5 -209t48 -164.5t40.5 -100t37 -74.5q24 -41 21 -53.5t-44 -17.5q-40 -5 -89.5 18.5t-103.5 79t-102.5 134.5t-87.5 196.5t-57 253.5q-28 221 -31 545q-69 -41 -221 -133 q-57 -153 -113.5 -290t-122.5 -280.5t-130.5 -257t-130 -203.5t-130 -136t-120.5 -39q-96 11 -159.5 39.5t-93.5 72.5t-38.5 93.5t-1.5 113.5zM-602 20.5q-1 -11.5 1 -41.5t9.5 -53.5t28 -44.5t51.5 -24q57 -6 128.5 62t149.5 197t152.5 278t155.5 337q-130 -89 -238.5 -174 t-207.5 -177.5t-159.5 -181t-68.5 -159.5q-1 -7 -2 -18.5zM428 1053q117 65 178 96q-2 169 2 438q-69 -232 -180 -534zM467 2384q0 31 5.5 59t18 54.5t36.5 44.5t57 22q32 59 166 59q60 0 95.5 -39.5t35.5 -125.5q0 -48 -13 -92t-39.5 -83t-72 -62t-105.5 -23 q-52 0 -90 17.5t-57.5 46t-28 59t-8.5 63.5zM664 2344.5q-1 -25.5 2 -51t15 -39t34 -13.5q38 0 71 83.5t24.5 166.5t-69.5 83q-14 0 -22 -13.5t-11 -31t-12.5 -36.5t-25.5 -27q0 -22 -2.5 -59t-3.5 -62.5z" />
<glyph unicode="&#xc6;" horiz-adv-x="2168" d="M-653 55q10 82 61.5 174t127 175t179.5 171.5t204.5 161t215.5 146.5q180 434 295 794q-148 -58 -266 -114t-232.5 -124.5t-182.5 -143.5t-77 -148q-4 -36 -37 -28q-37 10 -64.5 57t-21.5 100q10 91 80 175t167.5 144t222 117t233 94.5t211 77t145.5 64.5q1 80 74 100 q67 19 143 -22q79 -42 94 -114l1 -9q7 -66 4 -344q109 173 266 294t287 121q80 0 151 -61q21 83 78.5 203t83.5 120q37 0 90 -56.5t53 -102.5q0 -24 -38.5 -94.5t-77.5 -150t-39 -124.5q0 -8 1 -17.5t1 -14t-1.5 -9.5t-6.5 -6.5t-15 -1.5q-26 0 -64 29.5t-57 87.5 q-27 -9 -45 -9q-26 0 -96.5 -43t-158.5 -117.5t-170.5 -162.5t-138.5 -192t-56 -191q0 -38 10 -76q35 -6 87.5 16.5t87.5 48.5l36 25q128 122 244.5 195t187.5 73q56 0 117 -62.5t61 -115.5q0 -13 -50 -55t-127.5 -99.5t-175 -139t-188.5 -167.5t-172 -192.5t-122 -206.5 q34 -160 84 -282q79 32 188 120.5t195 177t164.5 170.5t97.5 95q28 103 70.5 186.5t62.5 83.5q73 0 149 -56t76 -108q0 -22 -25.5 -76t-56.5 -111t-56.5 -135t-25.5 -143q0 -46 13 -88.5t27 -66t31 -48.5q23 -27 20.5 -39t-42.5 -12q-75 0 -148 71t-105 198 q-134 -138 -297.5 -255t-266.5 -124q-6 -12 -43 -15q-49 -6 -113 32.5t-126 117.5q-114 91 -119 209q-59 144 -82 323q-28 221 -31 545q-69 -41 -221 -133q-57 -153 -113.5 -290t-122.5 -280.5t-130.5 -257t-130 -203.5t-130 -136t-120.5 -39q-96 11 -159.5 39.5t-93.5 72.5 t-38.5 93.5t-1.5 113.5zM-600 26.5q-1 -11.5 1 -41.5t9.5 -53.5t28 -44.5t51.5 -24q57 -6 128.5 62t149.5 197t152.5 278t155.5 337q-130 -89 -238.5 -174t-207.5 -177.5t-159.5 -181t-68.5 -159.5q-1 -7 -2 -18.5zM430 1059q117 65 178 96q-2 169 2 438q-69 -232 -180 -534 zM920 909q0 -106 2 -155q28 43 88 118q-53 9 -90 37z" />
<glyph unicode="&#xc7;" horiz-adv-x="1261" d="M-4 852q0 144 37.5 293t103.5 283t159.5 253t200.5 205.5t233 136.5t251 50q196 0 232 -176q30 -147 -51 -360q-64 -167 -149 -259q-50 -53 -87 -53q-24 0 -25.5 39t13 102t35.5 138.5t39.5 151t27 138.5t-4 102t-50.5 39q-77 0 -159.5 -59t-156 -166.5t-132.5 -246.5 t-93.5 -312.5t-34.5 -349.5q0 -198 30 -360.5t75 -255.5t91 -142t85 -49q44 0 107 131t106 271.5t43 185.5q0 36 42 33q51 -4 100 -53q56 -54 56 -124q0 -11 -4.5 -40.5t-18 -80t-33.5 -104t-55 -110.5t-78.5 -102.5t-108.5 -76.5t-140 -35q-24 -83 -24 -102q2 -27 28 -27 q219 0 219 -104q0 -51 -52.5 -120.5t-117 -117t-100.5 -47.5q-54 0 -87 36q-20 22 -6 27q2 1 5 1q29 0 85 47t100 102t44 76q-6 -1 -15.5 -2t-36.5 -1t-52 3t-55.5 13.5t-52.5 27.5t-37 47.5t-15 71.5q0 28 14 82q-180 32 -300 159.5t-175 325.5t-55 465z" />
<glyph unicode="&#xc8;" d="M-37 213q0 150 79 320.5t210 334.5q-19 3 -37.5 9.5t-44 20.5t-47 39t-40 60t-29.5 88t-11 119q0 113 68 251t167.5 250t220.5 188.5t220 76.5q80 0 151 -61q21 83 78.5 203t83.5 120q37 0 90.5 -56.5t53.5 -102.5q0 -24 -39 -94.5t-78 -150t-39 -124.5q0 -8 1 -17.5 t1 -14t-1.5 -9.5t-6.5 -6.5t-15 -1.5q-26 0 -63.5 29.5t-56.5 87.5q-27 -9 -45 -9q-21 0 -75 -31t-123.5 -83t-144 -123.5t-136.5 -147.5t-102 -162t-40 -159q0 -38 10 -76q35 -6 87.5 16.5t87.5 48.5l36 25q128 122 244.5 195t187.5 73q56 0 117 -62.5t61 -115.5 q0 -13 -48.5 -53t-125.5 -99.5t-170.5 -134.5t-187 -166.5t-170.5 -186.5t-125.5 -204.5t-48.5 -210.5q0 -50 33 -106q2 0 6.5 1t7.5 1q52 0 124.5 39.5t143.5 98.5t147 131.5t135 135.5t108 113t65 62q28 103 70.5 186.5t62.5 83.5q73 0 149 -56t76 -108q0 -22 -25.5 -76 t-56 -111t-56 -135t-25.5 -143q0 -46 13 -88.5t27 -66t31 -48.5q23 -27 20.5 -39t-42.5 -12q-75 0 -148.5 71t-105.5 198q-136 -141 -304.5 -260t-271.5 -119q-68 0 -119.5 25.5t-68.5 58.5q-45 20 -88 54.5t-78 93t-35 122.5zM354 2374q17 38 68 68t82 20q14 -4 50.5 -41 t88 -79t102.5 -58q93 -30 96 -68q2 -22 -32 -33q-96 -28 -217 12q-54 19 -113.5 59t-94 75t-30.5 45z" />
<glyph unicode="&#xc9;" d="M-37 213q0 150 79 320.5t210 334.5q-19 3 -37.5 9.5t-44 20.5t-47 39t-40 60t-29.5 88t-11 119q0 113 68 251t167.5 250t220.5 188.5t220 76.5q80 0 151 -61q21 83 78.5 203t83.5 120q37 0 90.5 -56.5t53.5 -102.5q0 -24 -39 -94.5t-78 -150t-39 -124.5q0 -8 1 -17.5 t1 -14t-1.5 -9.5t-6.5 -6.5t-15 -1.5q-26 0 -63.5 29.5t-56.5 87.5q-27 -9 -45 -9q-21 0 -75 -31t-123.5 -83t-144 -123.5t-136.5 -147.5t-102 -162t-40 -159q0 -38 10 -76q35 -6 87.5 16.5t87.5 48.5l36 25q128 122 244.5 195t187.5 73q56 0 117 -62.5t61 -115.5 q0 -13 -48.5 -53t-125.5 -99.5t-170.5 -134.5t-187 -166.5t-170.5 -186.5t-125.5 -204.5t-48.5 -210.5q0 -50 33 -106q2 0 6.5 1t7.5 1q52 0 124.5 39.5t143.5 98.5t147 131.5t135 135.5t108 113t65 62q28 103 70.5 186.5t62.5 83.5q73 0 149 -56t76 -108q0 -22 -25.5 -76 t-56 -111t-56 -135t-25.5 -143q0 -46 13 -88.5t27 -66t31 -48.5q23 -27 20.5 -39t-42.5 -12q-75 0 -148.5 71t-105.5 198q-136 -141 -304.5 -260t-271.5 -119q-68 0 -119.5 25.5t-68.5 58.5q-45 20 -88 54.5t-78 93t-35 122.5zM401 2216q11 34 95 61q51 16 102.5 58t88 79.5 t50.5 41.5q31 10 82 -20.5t68 -68.5q4 -10 -30.5 -44.5t-94 -74.5t-113.5 -59q-121 -40 -217 -12q-39 12 -31 39z" />
<glyph unicode="&#xca;" d="M-37 213q0 150 79 320.5t210 334.5q-19 3 -37.5 9.5t-44 20.5t-47 39t-40 60t-29.5 88t-11 119q0 113 68 251t167.5 250t220.5 188.5t220 76.5q80 0 151 -61q21 83 78.5 203t83.5 120q37 0 90.5 -56.5t53.5 -102.5q0 -24 -39 -94.5t-78 -150t-39 -124.5q0 -8 1 -17.5 t1 -14t-1.5 -9.5t-6.5 -6.5t-15 -1.5q-26 0 -63.5 29.5t-56.5 87.5q-27 -9 -45 -9q-21 0 -75 -31t-123.5 -83t-144 -123.5t-136.5 -147.5t-102 -162t-40 -159q0 -38 10 -76q35 -6 87.5 16.5t87.5 48.5l36 25q128 122 244.5 195t187.5 73q56 0 117 -62.5t61 -115.5 q0 -13 -48.5 -53t-125.5 -99.5t-170.5 -134.5t-187 -166.5t-170.5 -186.5t-125.5 -204.5t-48.5 -210.5q0 -50 33 -106q2 0 6.5 1t7.5 1q52 0 124.5 39.5t143.5 98.5t147 131.5t135 135.5t108 113t65 62q28 103 70.5 186.5t62.5 83.5q73 0 149 -56t76 -108q0 -22 -25.5 -76 t-56 -111t-56 -135t-25.5 -143q0 -46 13 -88.5t27 -66t31 -48.5q23 -27 20.5 -39t-42.5 -12q-75 0 -148.5 71t-105.5 198q-136 -141 -304.5 -260t-271.5 -119q-68 0 -119.5 25.5t-68.5 58.5q-45 20 -88 54.5t-78 93t-35 122.5zM301 2277q11 35 94 62q78 25 178 125 q34 33 57.5 45.5t57.5 3.5t74 -49q100 -100 178 -125q90 -30 84 -57q-3 -16 -39 -27q-15 -8 -76.5 -2t-122.5 26q-31 11 -102 45q-74 -52 -135 -73q-123 -40 -217 -13q-39 12 -31 39z" />
<glyph unicode="&#xcb;" d="M-37 213q0 150 79 320.5t210 334.5q-19 3 -37.5 9.5t-44 20.5t-47 39t-40 60t-29.5 88t-11 119q0 113 68 251t167.5 250t220.5 188.5t220 76.5q80 0 151 -61q21 83 78.5 203t83.5 120q37 0 90.5 -56.5t53.5 -102.5q0 -24 -39 -94.5t-78 -150t-39 -124.5q0 -8 1 -17.5 t1 -14t-1.5 -9.5t-6.5 -6.5t-15 -1.5q-26 0 -63.5 29.5t-56.5 87.5q-27 -9 -45 -9q-21 0 -75 -31t-123.5 -83t-144 -123.5t-136.5 -147.5t-102 -162t-40 -159q0 -38 10 -76q35 -6 87.5 16.5t87.5 48.5l36 25q128 122 244.5 195t187.5 73q56 0 117 -62.5t61 -115.5 q0 -13 -48.5 -53t-125.5 -99.5t-170.5 -134.5t-187 -166.5t-170.5 -186.5t-125.5 -204.5t-48.5 -210.5q0 -50 33 -106q2 0 6.5 1t7.5 1q52 0 124.5 39.5t143.5 98.5t147 131.5t135 135.5t108 113t65 62q28 103 70.5 186.5t62.5 83.5q73 0 149 -56t76 -108q0 -22 -25.5 -76 t-56 -111t-56 -135t-25.5 -143q0 -46 13 -88.5t27 -66t31 -48.5q23 -27 20.5 -39t-42.5 -12q-75 0 -148.5 71t-105.5 198q-136 -141 -304.5 -260t-271.5 -119q-68 0 -119.5 25.5t-68.5 58.5q-45 20 -88 54.5t-78 93t-35 122.5zM317 2251q0 57 35.5 90t77.5 35q43 5 85 -26.5 t42 -82.5q0 -74 -31 -108.5t-82 -34.5q-41 0 -84 39.5t-43 87.5zM756 2288q0 45 33.5 65.5t78.5 22.5q42 5 84.5 -26.5t42.5 -82.5q0 -71 -46.5 -107t-106.5 -36q-33 0 -59.5 55t-26.5 109z" />
<glyph unicode="&#xcc;" horiz-adv-x="552" d="M-66 2236q17 38 68 68t82 20q14 -4 50.5 -41t88.5 -79t103 -58q92 -30 95 -66q2 -23 -32 -34q-96 -28 -217 12q-54 19 -113.5 59t-94 74.5t-30.5 44.5zM-30 -109q-3 11 18 48q20 37 33 67.5t35.5 93t38.5 150t24 192.5q12 148 -3.5 433.5t-34 533.5t-13.5 305 q5 69 81 121q72 48 139 40q68 -8 74 -76q1 -13 0 -27q-3 -39 18 -267.5t36.5 -516.5t1.5 -476q-10 -124 -42.5 -232.5t-76.5 -182t-95.5 -126t-100 -75.5t-89.5 -19q-41 3 -44 14z" />
<glyph unicode="&#xcd;" horiz-adv-x="552" d="M-39 2124q10 34 94 61q51 16 103 58t88.5 79t50.5 41q31 10 81.5 -20t67.5 -68q4 -10 -30 -44.5t-93.5 -74.5t-113.5 -59q-121 -40 -217 -12q-39 12 -31 39zM-30 -109q-3 11 18 48q20 37 33 67.5t35.5 93t38.5 150t24 192.5q12 148 -3.5 433.5t-34 533.5t-13.5 305 q5 69 81 121q72 48 139 40q68 -8 74 -76q1 -13 0 -27q-3 -39 18 -267.5t36.5 -516.5t1.5 -476q-10 -124 -42.5 -232.5t-76.5 -182t-95.5 -126t-100 -75.5t-89.5 -19q-41 3 -44 14z" />
<glyph unicode="&#xce;" horiz-adv-x="552" d="M-178 2077q10 34 94 61q78 25 178 125q34 33 57.5 45.5t57.5 3.5t74 -49q100 -100 178 -125q90 -30 84 -57q-3 -16 -39 -27q-15 -8 -76.5 -1.5t-122.5 26.5q-31 11 -102 45q-76 -54 -135 -74q-121 -40 -217 -12q-39 12 -31 39zM-30 -109q-3 11 18 48q20 37 33 67.5 t35.5 93t38.5 150t24 192.5q12 148 -3.5 433.5t-34 533.5t-13.5 305q5 69 81 121q72 48 139 40q68 -8 74 -76q1 -13 0 -27q-3 -39 18 -267.5t36.5 -516.5t1.5 -476q-10 -124 -42.5 -232.5t-76.5 -182t-95.5 -126t-100 -75.5t-89.5 -19q-41 3 -44 14z" />
<glyph unicode="&#xcf;" horiz-adv-x="552" d="M-248 2171q0 73 45 115.5t99 44.5q55 7 108 -33.5t53 -104.5q0 -95 -38.5 -139.5t-104.5 -44.5q-53 0 -107.5 50.5t-54.5 111.5zM-30 -109q3 -11 44 -14q41 -4 89.5 19t100 75.5t95.5 126t76.5 182t42.5 232.5q14 188 -1.5 476t-36.5 516.5t-18 267.5q7 86 -63 101 q-63 14 -138 -31q-77 -46 -91 -112l-2 -16q-5 -57 13.5 -305t34 -533.5t3.5 -433.5q-8 -105 -24 -192.5t-38.5 -150t-36 -93t-32.5 -67.5q-21 -37 -18 -48zM311 2218q0 57 44 84t100 29q54 7 107.5 -33.5t53.5 -104.5q0 -91 -59.5 -137.5t-134.5 -46.5q-43 0 -77 71t-34 138 z" />
<glyph unicode="&#xd1;" horiz-adv-x="1290" d="M-10 782q0 149 16.5 295t32.5 237t16 105q0 18 2.5 35.5t10 39t24 35t41.5 13.5q36 0 97.5 -33.5t113 -89t51.5 -104.5q0 -40 -16.5 -141t-33.5 -232.5t-17 -245.5q0 -374 73 -604q27 143 64 316t97.5 430t135.5 489t146 365q63 247 119 247q39 0 76 -9t70.5 -28.5 t54 -56t20.5 -84.5q0 -41 -20.5 -120t-45 -171t-45 -281.5t-20.5 -424.5q0 -134 11 -249t31 -201.5t33.5 -132t33.5 -101.5q28 -69 19.5 -88t-79.5 -19q-68 0 -123 34.5t-92 89.5t-64 137t-42 163.5t-24 184t-11.5 182.5t-2.5 174q0 171 33 410q-195 -648 -301 -1442 q13 -29 6.5 -36t-47.5 -7t-88 23.5t-97.5 70t-96 123.5t-82 174.5t-58.5 234.5t-22 293zM428 2250q1 11 10 11q12 0 42.5 -13.5t88.5 -13.5q44 0 155.5 21.5t190.5 21.5q108 0 171 -90q37 -52 34 -90q-2 -13 -10 -14q-11 0 -20 8.5t-17 19t-30.5 19t-57.5 8.5 q-104 0 -235.5 -24.5t-171.5 -24.5q-62 0 -115 76q-38 53 -35 85z" />
<glyph unicode="&#xd2;" d="M-51 1090q0 58 11.5 131t34 149t64 127t93.5 51q38 0 75 -6q17 68 40 128.5t63.5 124t90.5 109t124 74.5t162 29q99 0 181 -20.5t142 -56.5t106 -89t75 -113.5t47.5 -135t26 -148.5t7.5 -158q0 -97 -22 -235t-61.5 -294t-100 -309.5t-131 -277t-162 -200t-186.5 -76.5 q-107 0 -200 44t-161 118t-123 174t-91 208.5t-60 226.5t-34.5 223.5t-10.5 201.5zM274 889q0 -43 10 -139t34 -226t56.5 -246t84 -197t110.5 -81q76 0 155.5 137.5t137 335.5t94.5 421t37 392q0 86 -7 172t-23 178.5t-51 150.5t-83 58q-64 0 -152 -110.5t-148 -238.5 t-60 -187q0 -21 2.5 -45.5t5 -41t3.5 -34.5t-2 -29t-11.5 -20.5t-24.5 -14t-41 -4.5q-54 0 -106 25q-21 -133 -21 -256zM416 2335q17 38 67.5 68t81.5 20q14 -4 50.5 -41t88.5 -79t103 -58q91 -30 95 -66q3 -24 -32 -35q-94 -27 -217 13q-54 19 -113.5 59t-93.5 74.5 t-30 44.5z" />
<glyph unicode="&#xd3;" d="M-51 1090q0 58 11.5 131t34 149t64 127t93.5 51q38 0 75 -6q17 68 40 128.5t63.5 124t90.5 109t124 74.5t162 29q99 0 181 -20.5t142 -56.5t106 -89t75 -113.5t47.5 -135t26 -148.5t7.5 -158q0 -97 -22 -235t-61.5 -294t-100 -309.5t-131 -277t-162 -200t-186.5 -76.5 q-107 0 -200 44t-161 118t-123 174t-91 208.5t-60 226.5t-34.5 223.5t-10.5 201.5zM274 889q0 -43 10 -139t34 -226t56.5 -246t84 -197t110.5 -81q76 0 155.5 137.5t137 335.5t94.5 421t37 392q0 86 -7 172t-23 178.5t-51 150.5t-83 58q-64 0 -152 -110.5t-148 -238.5 t-60 -187q0 -21 2.5 -45.5t5 -41t3.5 -34.5t-2 -29t-11.5 -20.5t-24.5 -14t-41 -4.5q-54 0 -106 25q-21 -133 -21 -256zM436 2163q10 34 94 61q51 16 103 58t88.5 79t50.5 41q31 10 82 -20t68 -68q4 -10 -30.5 -44.5t-94 -74.5t-113.5 -59q-121 -40 -217 -12q-39 12 -31 39z " />
<glyph unicode="&#xd4;" d="M-51 1090q0 58 11.5 131t34 149t64 127t93.5 51q38 0 75 -6q17 68 40 128.5t63.5 124t90.5 109t124 74.5t162 29q99 0 181 -20.5t142 -56.5t106 -89t75 -113.5t47.5 -135t26 -148.5t7.5 -158q0 -97 -22 -235t-61.5 -294t-100 -309.5t-131 -277t-162 -200t-186.5 -76.5 q-107 0 -200 44t-161 118t-123 174t-91 208.5t-60 226.5t-34.5 223.5t-10.5 201.5zM274 889q0 -43 10 -139t34 -226t56.5 -246t84 -197t110.5 -81q76 0 155.5 137.5t137 335.5t94.5 421t37 392q0 86 -7 172t-23 178.5t-51 150.5t-83 58q-64 0 -152 -110.5t-148 -238.5 t-60 -187q0 -21 2.5 -45.5t5 -41t3.5 -34.5t-2 -29t-11.5 -20.5t-24.5 -14t-41 -4.5q-54 0 -106 25q-21 -133 -21 -256zM311 2269q12 34 95 62q78 25 178 125q34 33 57.5 45.5t57 3.5t73.5 -49q100 -100 178 -125q90 -30 84 -57q-3 -16 -39 -27q-15 -8 -76 -2t-122 26 q-35 12 -103 45q-74 -52 -135 -73q-123 -40 -217 -13q-39 12 -31 39z" />
<glyph unicode="&#xd5;" d="M-51 1090q0 58 11.5 131t34 149t64 127t93.5 51q38 0 75 -6q17 68 40 128.5t63.5 124t90.5 109t124 74.5t162 29q99 0 181 -20.5t142 -56.5t106 -89t75 -113.5t47.5 -135t26 -148.5t7.5 -158q0 -97 -22 -235t-61.5 -294t-100 -309.5t-131 -277t-162 -200t-186.5 -76.5 q-107 0 -200 44t-161 118t-123 174t-91 208.5t-60 226.5t-34.5 223.5t-10.5 201.5zM274 889q0 -43 10 -139t34 -226t56.5 -246t84 -197t110.5 -81q76 0 155.5 137.5t137 335.5t94.5 421t37 392q0 86 -7 172t-23 178.5t-51 150.5t-83 58q-64 0 -152 -110.5t-148 -238.5 t-60 -187q0 -21 2.5 -45.5t5 -41t3.5 -34.5t-2 -29t-11.5 -20.5t-24.5 -14t-41 -4.5q-54 0 -106 25q-21 -133 -21 -256zM328 2381q1 11 10 11q12 0 42.5 -13.5t88.5 -13.5q44 0 155.5 21.5t190.5 21.5q108 0 171 -90q37 -52 34 -90q-2 -13 -10 -14q-11 0 -20 8.5t-17 19 t-30.5 19t-57.5 8.5q-103 0 -235 -24.5t-173 -24.5q-62 0 -115 76q-37 53 -34 85z" />
<glyph unicode="&#xd6;" d="M-51 1090q0 58 11.5 131t34 149t64 127t93.5 51q38 0 75 -6q17 68 40 128.5t63.5 124t90.5 109t124 74.5t162 29q99 0 181 -20.5t142 -56.5t106 -89t75 -113.5t47.5 -135t26 -148.5t7.5 -158q0 -97 -22 -235t-61.5 -294t-100 -309.5t-131 -277t-162 -200t-186.5 -76.5 q-107 0 -200 44t-161 118t-123 174t-91 208.5t-60 226.5t-34.5 223.5t-10.5 201.5zM274 889q0 -43 10 -139t34 -226t56.5 -246t84 -197t110.5 -81q76 0 155.5 137.5t137 335.5t94.5 421t37 392q0 86 -7 172t-23 178.5t-51 150.5t-83 58q-64 0 -152 -110.5t-148 -238.5 t-60 -187q0 -21 2.5 -45.5t5 -41t3.5 -34.5t-2 -29t-11.5 -20.5t-24.5 -14t-41 -4.5q-54 0 -106 25q-21 -133 -21 -256zM291 2281q0 69 42 110t93 44q54 5 105 -33t51 -100q0 -91 -38 -133.5t-100 -42.5q-50 0 -101.5 48t-51.5 107zM821 2327q0 54 41 79t96 29 q53 5 104.5 -33t51.5 -100q0 -88 -57.5 -132t-130.5 -44q-40 0 -72.5 68t-32.5 133z" />
<glyph unicode="&#xd7;" horiz-adv-x="1239" d="M205 1194q24 40 76 43q54 2 96 -39q190 -209 227 -248q132 144 275 264q50 49 98 22q40 -22 45 -74q4 -54 -39 -97q-124 -110 -258 -238q151 -151 276 -266q22 -19 29.5 -42.5t-0.5 -41.5t-23.5 -30t-41 -9t-52.5 23q-222 178 -305 252q-117 -117 -260 -273 q-25 -28 -55.5 -32.5t-48.5 11.5t-21.5 44t25.5 65q143 184 239 293q-157 147 -260 273q-50 51 -22 100z" />
<glyph unicode="&#xd8;" d="M-53 1090q0 58 11.5 131t34 149t64 127t93.5 51q27 0 73 -8q17 68 40 127.5t63.5 123.5t90.5 109t123 74t160 29q221 0 355 -98q87 133 147 176q27 27 50.5 36t37.5 1.5t21 -22.5t4 -36.5t-15 -40.5q-35 -28 -135 -229q119 -176 119 -506q0 -96 -22 -233t-61 -292 t-99 -307.5t-130.5 -275.5t-162 -199.5t-186.5 -76.5q-174 0 -308 112q-82 -109 -137 -135q-143 -71 -188 -9q-28 40 -4 105q18 50 53 68q40 26 119 164q-107 180 -159 424.5t-52 460.5zM303 889q0 -138 31 -359q38 76 176.5 358.5t236.5 473.5t183 342q-33 137 -107 137 q-63 0 -143 -109.5t-132 -236t-52 -186.5q0 -23 3 -52t5.5 -47t1.5 -37t-8 -29t-24.5 -17t-45.5 -7q-54 0 -106 25q-19 -117 -19 -256zM416 172q67 -166 149 -166q61 0 121.5 89t108 232t85.5 312.5t58 340t20 304.5v41q-119 -276 -183.5 -422t-171 -369.5t-187.5 -361.5z " />
<glyph unicode="&#xd9;" horiz-adv-x="1339" d="M-41.5 704.5q1.5 174.5 9.5 351.5t21 315t22.5 241.5t8.5 122.5q0 28 3 42t14.5 29.5t38 21.5t71.5 7q86 3 166 -69.5t82 -135.5q1 -15 -26.5 -268.5t-53.5 -584.5t-22 -529q1 -33 3 -65t6.5 -62.5t7.5 -51.5t9.5 -50.5t9 -41t9.5 -41t8 -32.5q14 14 35 37.5t75 94.5 t102 149t105 199t95 247q-4 43 -4 110q0 262 28 485t71.5 346.5t90.5 123.5q20 0 42 -0.5t58.5 -3t68 -7.5t61 -13t46.5 -21.5t17 -30.5q0 -19 -23.5 -106t-51.5 -196.5t-51.5 -283.5t-23.5 -346q0 -140 12.5 -264.5t30.5 -203t36.5 -135.5t31 -86.5t12.5 -31.5 q0 -11 -31.5 -23t-64.5 -12q-67 0 -124 44.5t-96 121.5t-65.5 161t-44.5 181q-142 -354 -422 -618l-2 18q2 -30 -12 -42t-55 -13q-96 -2 -164 75.5t-102.5 205t-52 296t-16 343zM375 2116q17 38 67.5 68t81.5 20q12 -4 38 -28t53.5 -52t69 -57t81.5 -42q92 -30 95 -66 q2 -23 -32 -34q-96 -28 -217 12q-54 19 -113.5 59t-93.5 75t-30 45z" />
<glyph unicode="&#xda;" horiz-adv-x="1339" d="M-41.5 704.5q1.5 174.5 9.5 351.5t21 315t22.5 241.5t8.5 122.5q0 28 3 42t14.5 29.5t38 21.5t71.5 7q86 3 166 -69.5t82 -135.5q1 -15 -26.5 -268.5t-53.5 -584.5t-22 -529q1 -33 3 -65t6.5 -62.5t7.5 -51.5t9.5 -50.5t9 -41t9.5 -41t8 -32.5q14 14 35 37.5t75 94.5 t102 149t105 199t95 247q-4 43 -4 110q0 262 28 485t71.5 346.5t90.5 123.5q20 0 42 -0.5t58.5 -3t68 -7.5t61 -13t46.5 -21.5t17 -30.5q0 -19 -23.5 -106t-51.5 -196.5t-51.5 -283.5t-23.5 -346q0 -140 12.5 -264.5t30.5 -203t36.5 -135.5t31 -86.5t12.5 -31.5 q0 -11 -31.5 -23t-64.5 -12q-67 0 -124 44.5t-96 121.5t-65.5 161t-44.5 181q-142 -354 -422 -618l-2 18q2 -30 -12 -42t-55 -13q-96 -2 -164 75.5t-102.5 205t-52 296t-16 343zM440 1899q11 34 95 61q51 16 102.5 58t88 79t50.5 41q31 10 82 -20t68 -68q4 -10 -30.5 -44.5 t-94 -74.5t-113.5 -59q-121 -40 -217 -12q-39 12 -31 39z" />
<glyph unicode="&#xdb;" horiz-adv-x="1339" d="M-41.5 704.5q1.5 174.5 9.5 351.5t21 315t22.5 241.5t8.5 122.5q0 28 3 42t14.5 29.5t38 21.5t71.5 7q86 3 166 -69.5t82 -135.5q1 -15 -26.5 -268.5t-53.5 -584.5t-22 -529q1 -33 3 -65t6.5 -62.5t7.5 -51.5t9.5 -50.5t9 -41t9.5 -41t8 -32.5q14 14 35 37.5t75 94.5 t102 149t105 199t95 247q-4 43 -4 110q0 262 28 485t71.5 346.5t90.5 123.5q20 0 42 -0.5t58.5 -3t68 -7.5t61 -13t46.5 -21.5t17 -30.5q0 -19 -23.5 -106t-51.5 -196.5t-51.5 -283.5t-23.5 -346q0 -140 12.5 -264.5t30.5 -203t36.5 -135.5t31 -86.5t12.5 -31.5 q0 -11 -31.5 -23t-64.5 -12q-67 0 -124 44.5t-96 121.5t-65.5 161t-44.5 181q-142 -354 -422 -618l-2 18q2 -30 -12 -42t-55 -13q-96 -2 -164 75.5t-102.5 205t-52 296t-16 343zM299 1935q9 34 94 62q78 25 178 125q34 33 57.5 45.5t57.5 3.5t74 -49q100 -100 178 -125 q90 -30 84 -57q-5 -16 -39 -27q-15 -8 -76.5 -2t-122.5 26q-31 11 -102 45q-74 -52 -135 -73q-123 -40 -217 -13q-39 12 -31 39z" />
<glyph unicode="&#xdc;" horiz-adv-x="1339" d="M-41.5 704.5q1.5 174.5 9.5 351.5t21 315t22.5 241.5t8.5 122.5q0 28 3 42t14.5 29.5t38 21.5t71.5 7q86 3 166 -69.5t82 -135.5q1 -15 -26.5 -268.5t-53.5 -584.5t-22 -529q1 -33 3 -65t6.5 -62.5t7.5 -51.5t9.5 -50.5t9 -41t9.5 -41t8 -32.5q14 14 35 37.5t75 94.5 t102 149t105 199t95 247q-4 43 -4 110q0 262 28 485t71.5 346.5t90.5 123.5q20 0 42 -0.5t58.5 -3t68 -7.5t61 -13t46.5 -21.5t17 -30.5q0 -19 -23.5 -106t-51.5 -196.5t-51.5 -283.5t-23.5 -346q0 -140 12.5 -264.5t30.5 -203t36.5 -135.5t31 -86.5t12.5 -31.5 q0 -11 -31.5 -23t-64.5 -12q-67 0 -124 44.5t-96 121.5t-65.5 161t-44.5 181q-142 -354 -422 -618l-2 18q2 -30 -12 -42t-55 -13q-96 -2 -164 75.5t-102.5 205t-52 296t-16 343zM285 2064q0 60 38 96t83 38q45 5 89 -28.5t44 -88.5q0 -79 -32 -115.5t-87 -36.5q-43 0 -89 42 t-46 93zM750 2103q0 48 36 70.5t84 24.5q44 5 89 -29t45 -88q0 -76 -49.5 -114t-112.5 -38q-36 0 -64 58.5t-28 115.5z" />
<glyph unicode="&#xdd;" horiz-adv-x="1290" d="M-31 600q0 26 15.5 353.5t15.5 697.5q0 26 -5.5 59.5t-10.5 56.5t-5.5 47t7 38.5t29.5 24t61 9.5q26 0 61 -11.5t73 -36.5t70 -58.5t53 -83t21 -105.5q0 -67 -13 -264t-26.5 -405.5t-22 -416t2.5 -340t45 -132.5q41 0 104 68t134 182t131 223.5t120 230.5q21 339 21 754 q0 10 -2 29t-3 31.5t1.5 28t10 25.5t24.5 16.5t43 6.5q88 0 157.5 -74t69.5 -204q1 -30 3 -81.5t2 -209.5t-6.5 -312t-26 -362.5t-51.5 -388t-89.5 -362.5t-132.5 -312t-188 -210t-250 -81q-72 0 -154 62q-75 57 -83 108t63 65q25 5 57 5q80 0 148 49.5t119.5 141 t92.5 205.5t71 259t50 286t35 300q-53 -105 -106 -194.5t-117 -178t-129.5 -139.5t-122.5 -51q-35 0 -78 17.5t-95 64t-94.5 116.5t-71 188t-28.5 265zM456 1880q10 34 95 62q51 16 103 58t88.5 79t50.5 41q31 10 81.5 -20t67.5 -68q4 -10 -30 -45t-93.5 -75t-113.5 -59 q-122 -40 -218 -12q-39 12 -31 39z" />
<glyph unicode="&#xdf;" horiz-adv-x="1153" d="M4 571q0 134 8 257.5t27 249t47.5 231.5t73 198.5t101 157.5t133 102t167.5 37q67 0 123.5 -14.5t93.5 -37.5t66 -54t44.5 -60.5t25.5 -60t13 -50.5t3 -34q0 -72 -21 -135.5t-55 -109t-75 -85t-81.5 -70t-74.5 -56.5t-55 -51.5t-21 -49.5t30 -40.5t78.5 -29t106.5 -27.5 t116.5 -42.5t107 -66t78.5 -105t30 -154.5q0 -77 -19 -142t-49 -108.5t-69 -78t-77.5 -54t-77 -32.5t-64.5 -17t-42 -4q-87 0 -129 77q-25 47 -16 79q5 11 12 12q37 0 55.5 -12.5t20.5 -30.5t0.5 -36.5t2.5 -31t20 -12.5q59 0 124.5 116t65.5 281q0 49 -21 91.5t-54.5 74 t-73.5 61t-80.5 58t-74 58t-54.5 68.5t-21 83q0 31 24 77t58.5 95.5t69 100.5t58.5 106.5t24 99.5q0 123 -49.5 187.5t-137.5 64.5q-53 0 -93.5 -81t-61.5 -207.5t-36.5 -281t-18 -301.5t-5.5 -269.5t0 -184.5v-35q0 -79 7 -155.5t16.5 -128.5t19 -99t14.5 -76t2 -50.5 t-16.5 -30.5t-42.5 -9q-17 0 -40 11t-52 38t-57.5 67t-56 103.5t-48.5 140.5t-34 185.5t-13 232.5z" />
<glyph unicode="&#xe0;" horiz-adv-x="1036" d="M0 393q0 69 12.5 146t36.5 156.5t63 151.5t87 129t113.5 90.5t138.5 33.5q59 0 87.5 -1t75 -6t69 -16.5t52 -32.5t43 -53t23.5 -79.5t10 -110.5q0 -14 -18.5 -25t-37 -7.5t-18.5 24.5q0 23 -3.5 54t-12.5 69.5t-28.5 64t-45.5 25.5q-98 0 -186.5 -106.5t-140.5 -278 t-52 -357.5q0 -198 70 -198q28 0 74.5 111.5t81 240.5t34.5 182q0 18 1 28.5t7 29t18 29.5t37 19.5t60 8.5q86 0 131 -31.5t45 -69.5v-32q1 -28 2 -107t3 -143t7.5 -133.5t18 -109.5t31.5 -40q27 0 137.5 292t144.5 400q6 21 20 28t24.5 -3.5t5.5 -34.5q-7 -32 -41.5 -141 t-88.5 -257.5t-124.5 -271t-130.5 -143.5q-9 -6 -33 -6q-54 0 -98.5 41t-70.5 100t-44.5 117.5t-28 99.5t-12.5 41q-4 0 -17 -32t-34 -77.5t-49 -91.5t-69.5 -78t-86.5 -32q-131 0 -212 95.5t-81 297.5zM268 1468q17 38 68 68t82 20q14 -4 50.5 -41t88 -79t102.5 -58 q92 -30 96 -66q2 -23 -32 -34q-96 -28 -217 12q-54 19 -113.5 59t-94 74.5t-30.5 44.5z" />
<glyph unicode="&#xe1;" horiz-adv-x="1036" d="M0 393q0 69 12.5 146t36.5 156.5t63 151.5t87 129t113.5 90.5t138.5 33.5q59 0 87.5 -1t75 -6t69 -16.5t52 -32.5t43 -53t23.5 -79.5t10 -110.5q0 -14 -18.5 -25t-37 -7.5t-18.5 24.5q0 23 -3.5 54t-12.5 69.5t-28.5 64t-45.5 25.5q-98 0 -186.5 -106.5t-140.5 -278 t-52 -357.5q0 -198 70 -198q28 0 74.5 111.5t81 240.5t34.5 182q0 18 1 28.5t7 29t18 29.5t37 19.5t60 8.5q86 0 131 -31.5t45 -69.5v-32q1 -28 2 -107t3 -143t7.5 -133.5t18 -109.5t31.5 -40q27 0 137.5 292t144.5 400q6 21 20 28t24.5 -3.5t5.5 -34.5q-7 -32 -41.5 -141 t-88.5 -257.5t-124.5 -271t-130.5 -143.5q-9 -6 -33 -6q-54 0 -98.5 41t-70.5 100t-44.5 117.5t-28 99.5t-12.5 41q-4 0 -17 -32t-34 -77.5t-49 -91.5t-69.5 -78t-86.5 -32q-131 0 -212 95.5t-81 297.5zM280 1317q11 34 95 61q51 16 102.5 58t88 79t50.5 41q31 10 82 -20 t68 -68q4 -10 -30.5 -44.5t-94 -74.5t-113.5 -59q-121 -40 -217 -12q-39 12 -31 39z" />
<glyph unicode="&#xe2;" horiz-adv-x="1036" d="M0 393q0 69 12.5 146t36.5 156.5t63 151.5t87 129t113.5 90.5t138.5 33.5q59 0 87.5 -1t75 -6t69 -16.5t52 -32.5t43 -53t23.5 -79.5t10 -110.5q0 -14 -18.5 -25t-37 -7.5t-18.5 24.5q0 23 -3.5 54t-12.5 69.5t-28.5 64t-45.5 25.5q-98 0 -186.5 -106.5t-140.5 -278 t-52 -357.5q0 -198 70 -198q28 0 74.5 111.5t81 240.5t34.5 182q0 18 1 28.5t7 29t18 29.5t37 19.5t60 8.5q86 0 131 -31.5t45 -69.5v-32q1 -28 2 -107t3 -143t7.5 -133.5t18 -109.5t31.5 -40q27 0 137.5 292t144.5 400q6 21 20 28t24.5 -3.5t5.5 -34.5q-7 -32 -41.5 -141 t-88.5 -257.5t-124.5 -271t-130.5 -143.5q-9 -6 -33 -6q-54 0 -98.5 41t-70.5 100t-44.5 117.5t-28 99.5t-12.5 41q-4 0 -17 -32t-34 -77.5t-49 -91.5t-69.5 -78t-86.5 -32q-131 0 -212 95.5t-81 297.5zM151 1317q11 34 95 61q78 25 178 125q34 33 57.5 45.5t57 3.5 t73.5 -49q100 -100 179 -125q90 -30 84 -57q-5 -16 -39 -27q-15 -8 -76.5 -1.5t-122.5 26.5q-31 11 -102 45q-76 -53 -136 -74q-121 -40 -217 -12q-39 12 -31 39z" />
<glyph unicode="&#xe3;" horiz-adv-x="1036" d="M0 393q0 69 12.5 146t36.5 156.5t63 151.5t87 129t113.5 90.5t138.5 33.5q59 0 87.5 -1t75 -6t69 -16.5t52 -32.5t43 -53t23.5 -79.5t10 -110.5q0 -14 -18.5 -25t-37 -7.5t-18.5 24.5q0 23 -3.5 54t-12.5 69.5t-28.5 64t-45.5 25.5q-98 0 -186.5 -106.5t-140.5 -278 t-52 -357.5q0 -198 70 -198q28 0 74.5 111.5t81 240.5t34.5 182q0 18 1 28.5t7 29t18 29.5t37 19.5t60 8.5q86 0 131 -31.5t45 -69.5v-32q1 -28 2 -107t3 -143t7.5 -133.5t18 -109.5t31.5 -40q27 0 137.5 292t144.5 400q6 21 20 28t24.5 -3.5t5.5 -34.5q-7 -32 -41.5 -141 t-88.5 -257.5t-124.5 -271t-130.5 -143.5q-9 -6 -33 -6q-54 0 -98.5 41t-70.5 100t-44.5 117.5t-28 99.5t-12.5 41q-4 0 -17 -32t-34 -77.5t-49 -91.5t-69.5 -78t-86.5 -32q-131 0 -212 95.5t-81 297.5zM174 1380q1 11 10 11q12 0 42.5 -13.5t88.5 -13.5q44 0 156 21.5 t191 21.5q108 0 171 -91q36 -52 33 -90q-1 -14 -10 -14q-11 0 -20 9t-17 19t-30.5 19t-57.5 9q-103 0 -235 -24.5t-172 -24.5q-62 0 -115 76q-38 53 -35 85z" />
<glyph unicode="&#xe4;" horiz-adv-x="1036" d="M0 393q0 69 12.5 146t36.5 156.5t63 151.5t87 129t113.5 90.5t138.5 33.5q59 0 87.5 -1t75 -6t69 -16.5t52 -32.5t43 -53t23.5 -79.5t10 -110.5q0 -14 -18.5 -25t-37 -7.5t-18.5 24.5q0 23 -3.5 54t-12.5 69.5t-28.5 64t-45.5 25.5q-98 0 -186.5 -106.5t-140.5 -278 t-52 -357.5q0 -198 70 -198q28 0 74.5 111.5t81 240.5t34.5 182q0 18 1 28.5t7 29t18 29.5t37 19.5t60 8.5q86 0 131 -31.5t45 -69.5v-32q1 -28 2 -107t3 -143t7.5 -133.5t18 -109.5t31.5 -40q27 0 137.5 292t144.5 400q6 21 20 28t24.5 -3.5t5.5 -34.5q-7 -32 -41.5 -141 t-88.5 -257.5t-124.5 -271t-130.5 -143.5q-9 -6 -33 -6q-54 0 -98.5 41t-70.5 100t-44.5 117.5t-28 99.5t-12.5 41q-4 0 -17 -32t-34 -77.5t-49 -91.5t-69.5 -78t-86.5 -32q-131 0 -212 95.5t-81 297.5zM178 1382q0 57 35.5 90t77.5 35q44 5 85.5 -26t41.5 -82 q0 -74 -31 -109t-82 -35q-41 0 -84 39.5t-43 87.5zM616 1419q0 45 34 65.5t79 22.5q42 5 84.5 -26.5t42.5 -81.5q0 -72 -47.5 -108t-106.5 -36q-33 0 -59.5 55t-26.5 109z" />
<glyph unicode="&#xe5;" horiz-adv-x="1036" d="M0 393q0 69 12.5 146t36.5 156.5t63 151.5t87 129t113.5 90.5t138.5 33.5q59 0 87.5 -1t75 -6t69 -16.5t52 -32.5t43 -53t23.5 -79.5t10 -110.5q0 -14 -18.5 -25t-37 -7.5t-18.5 24.5q0 23 -3.5 54t-12.5 69.5t-28.5 64t-45.5 25.5q-98 0 -186.5 -106.5t-140.5 -278 t-52 -357.5q0 -198 70 -198q28 0 74.5 111.5t81 240.5t34.5 182q0 18 1 28.5t7 29t18 29.5t37 19.5t60 8.5q86 0 131 -31.5t45 -69.5v-32q1 -28 2 -107t3 -143t7.5 -133.5t18 -109.5t31.5 -40q27 0 137.5 292t144.5 400q6 21 20 28t24.5 -3.5t5.5 -34.5q-7 -32 -41.5 -141 t-88.5 -257.5t-124.5 -271t-130.5 -143.5q-9 -6 -33 -6q-54 0 -98.5 41t-70.5 100t-44.5 117.5t-28 99.5t-12.5 41q-4 0 -17 -32t-34 -77.5t-49 -91.5t-69.5 -78t-86.5 -32q-131 0 -212 95.5t-81 297.5zM311 1475q0 31 5.5 59t18 54.5t36.5 44.5t57 22q32 59 166 59 q60 0 95.5 -40t35.5 -126q0 -48 -13 -92t-39 -83t-71.5 -62t-105.5 -23q-52 0 -90.5 17.5t-58 46.5t-28 59.5t-8.5 63.5zM508 1434.5q-1 -25.5 2 -51t15 -39t34 -13.5q38 0 71 83.5t25 167t-69 83.5q-14 0 -22 -13.5t-11.5 -31t-13 -37t-25.5 -27.5q0 -22 -2.5 -59 t-3.5 -62.5z" />
<glyph unicode="&#xe6;" horiz-adv-x="1337" d="M-6 387q0 106 19 224.5t55 228.5t96.5 182t134.5 72q53 0 77 -0.5t60.5 -5t53 -13.5t36.5 -26t30 -43t17 -64q29 59 72 59q53 0 90 -18q28 44 60 72q39 34 111.5 47t135.5 7t97 -22q46 -22 76 -88t30 -151q0 -156 -65.5 -242t-169.5 -86q-61 0 -150 29q-8 -105 3 -197 t45.5 -153.5t88.5 -61.5q48 0 96 25t83 60t69 82.5t54 83t38 71t19 37.5q15 25 42 27q18 1 17 -14q0 -6 -4 -13q-1 -2 -17 -38t-36.5 -75t-51.5 -92.5t-68.5 -100.5t-81 -89t-97 -67t-107.5 -26q-6 -2 -22 -2q-74 0 -139.5 31t-107.5 75t-73 87.5t-47.5 74.5t-19.5 31 q-4 0 -17 -32t-34 -77.5t-49 -91.5t-69.5 -78t-86.5 -32q-131 0 -212 95.5t-81 297.5zM262 258q0 -199 70 -199q28 0 74.5 112t81 241t34.5 182q0 88 10 168q-20 3 -20 24q0 64 -9 138.5t-30 74.5q-50 0 -99 -105.5t-80.5 -279t-31.5 -356.5zM864 590q124 -53 197 49 q52 73 53 177q1 87 -34 110q-9 6 -19 6q-51 0 -93.5 -49t-68 -125t-35.5 -168z" />
<glyph unicode="&#xe7;" horiz-adv-x="708" d="M2 557q0 150 58.5 287.5t117.5 195.5q29 30 87 46t112 12.5t76 -25.5t51 -90.5t37.5 -123.5t-19.5 -62q-21 0 -40.5 28t-31 62t-25.5 62t-26 28q-39 0 -71.5 -84.5t-44.5 -204.5t-10 -240.5t33.5 -205t84.5 -84.5t100 29t78 71.5t57.5 96t41.5 98.5t27 82.5t16 44.5 q17 28 45 31q21 3 21 -14q0 -7 -5 -17q-4 -7 -22.5 -66.5t-47 -131.5t-69 -149.5t-101 -138t-129.5 -80.5q-29 -88 17 -88q219 0 219 -104q0 -51 -52.5 -120.5t-117 -117t-100.5 -47.5q-54 0 -87 36q-20 22 -6 27l5 1q29 0 85 47t100 102t44 76q-6 -1 -15.5 -2t-36.5 -1 t-52 3t-55.5 13.5t-52.5 27.5t-37 47.5t-15 71.5q0 13 4 37q-75 32 -132 114.5t-86.5 191.5t-29.5 228z" />
<glyph unicode="&#xe8;" horiz-adv-x="776" d="M-2 520q0 181 71.5 350t145.5 236q39 34 111 47t135.5 7t97.5 -23q47 -22 77 -87.5t30 -150.5q0 -156 -66 -242t-170 -86q-52 0 -149 27q-8 -98 24 -194.5t86.5 -156t110.5 -59.5q47 0 90 17.5t75 44.5t61.5 66t48.5 75t37 78t26.5 69t17.5 55l8 28q10 27 29 22 q18 -5 14 -31l-2 -10q-1 -2 -8.5 -29t-17.5 -56t-26 -73.5t-37 -85t-47.5 -86t-60 -82t-71.5 -67t-86 -47.5t-100 -17q-102 0 -190.5 43t-144.5 111t-88 148.5t-32 158.5zM139 1468q17 38 68 68t82 20q14 -4 50.5 -41t88 -79t102.5 -58q92 -30 96 -66q2 -23 -32 -34 q-96 -28 -217 12q-54 19 -113.5 59t-94 74.5t-30.5 44.5zM285 641q124 -53 197 49q51 73 52 177q1 87 -34 110q-9 6 -19 6q-75 0 -127.5 -99.5t-68.5 -242.5z" />
<glyph unicode="&#xe9;" horiz-adv-x="776" d="M-2 520q0 181 71.5 350t145.5 236q39 34 111 47t135.5 7t97.5 -23q47 -22 77 -87.5t30 -150.5q0 -156 -66 -242t-170 -86q-52 0 -149 27q-8 -98 24 -194.5t86.5 -156t110.5 -59.5q47 0 90 17.5t75 44.5t61.5 66t48.5 75t37 78t26.5 69t17.5 55l8 28q10 27 29 22 q18 -5 14 -31l-2 -10q-1 -2 -8.5 -29t-17.5 -56t-26 -73.5t-37 -85t-47.5 -86t-60 -82t-71.5 -67t-86 -47.5t-100 -17q-102 0 -190.5 43t-144.5 111t-88 148.5t-32 158.5zM151 1317q11 34 95 61q51 16 102.5 58t88 79t50.5 41q31 10 82 -20t68 -68q4 -10 -30.5 -44.5 t-94 -74.5t-113.5 -59q-121 -40 -217 -12q-39 12 -31 39zM285 641q124 -53 197 49q51 73 52 177q1 87 -34 110q-9 6 -19 6q-75 0 -127.5 -99.5t-68.5 -242.5z" />
<glyph unicode="&#xea;" horiz-adv-x="776" d="M-2 520q0 181 71.5 350t145.5 236q39 34 111 47t135.5 7t97.5 -23q47 -22 77 -87.5t30 -150.5q0 -156 -66 -242t-170 -86q-52 0 -149 27q-8 -98 24 -194.5t86.5 -156t110.5 -59.5q47 0 90 17.5t75 44.5t61.5 66t48.5 75t37 78t26.5 69t17.5 55l8 28q10 27 29 22 q18 -5 14 -31l-2 -10q-1 -2 -8.5 -29t-17.5 -56t-26 -73.5t-37 -85t-47.5 -86t-60 -82t-71.5 -67t-86 -47.5t-100 -17q-102 0 -190.5 43t-144.5 111t-88 148.5t-32 158.5zM22 1317q11 34 95 61q78 25 178 125q34 33 57.5 45.5t57 3.5t73.5 -49q100 -100 179 -125 q90 -30 84 -57q-5 -16 -39 -27q-15 -8 -76.5 -1.5t-122.5 26.5q-31 11 -102 45q-76 -53 -136 -74q-121 -40 -217 -12q-39 12 -31 39zM285 641q124 -53 197 49q51 73 52 177q1 87 -34 110q-9 6 -19 6q-75 0 -127.5 -99.5t-68.5 -242.5z" />
<glyph unicode="&#xeb;" horiz-adv-x="776" d="M-2 520q0 181 71.5 350t145.5 236q39 34 111 47t135.5 7t97.5 -23q47 -22 77 -87.5t30 -150.5q0 -156 -66 -242t-170 -86q-52 0 -149 27q-8 -98 24 -194.5t86.5 -156t110.5 -59.5q47 0 90 17.5t75 44.5t61.5 66t48.5 75t37 78t26.5 69t17.5 55l8 28q10 27 29 22 q18 -5 14 -31l-2 -10q-1 -2 -8.5 -29t-17.5 -56t-26 -73.5t-37 -85t-47.5 -86t-60 -82t-71.5 -67t-86 -47.5t-100 -17q-102 0 -190.5 43t-144.5 111t-88 148.5t-32 158.5zM49 1382q0 57 35.5 90t77.5 35q44 5 85.5 -26t41.5 -82q0 -74 -31 -109t-82 -35q-41 0 -84 39.5 t-43 87.5zM285 641q124 -53 197 49q51 73 52 177q1 87 -34 110q-9 6 -19 6q-75 0 -127.5 -99.5t-68.5 -242.5zM487 1419q0 45 34 65.5t79 22.5q42 5 84.5 -26.5t42.5 -81.5q0 -72 -47.5 -108t-106.5 -36q-33 0 -59.5 55t-26.5 109z" />
<glyph unicode="&#xec;" horiz-adv-x="507" d="M4 590q0 142 11.5 257.5t11.5 117.5q0 42 64 39q70 -4 135 -48q59 -40 59 -84q0 -35 -6.5 -136.5t-6.5 -147.5q0 -260 78 -434q38 20 77 122t60 197.5t21 128.5q0 43 38 83q27 27 33 13q1 -2 1 -6q0 -139 -26 -267.5t-66.5 -215.5t-88.5 -139t-92 -52h-4q-55 0 -100 22 t-75.5 58t-53.5 86.5t-36 101t-21 109.5t-10.5 104t-2.5 91zM6 1468q17 38 68 68t82 20q14 -4 50.5 -41t88 -79t102.5 -58q92 -30 96 -66q2 -23 -32 -34q-96 -28 -217 12q-54 19 -113.5 59t-94 74.5t-30.5 44.5z" />
<glyph unicode="&#xed;" horiz-adv-x="507" d="M4 590q0 142 11.5 257.5t11.5 117.5q0 42 64 39q70 -4 135 -48q59 -40 59 -84q0 -35 -6.5 -136.5t-6.5 -147.5q0 -260 78 -434q38 20 77 122t60 197.5t21 128.5q0 43 38 83q27 27 33 13q1 -2 1 -6q0 -139 -26 -267.5t-66.5 -215.5t-88.5 -139t-92 -52h-4q-55 0 -100 22 t-75.5 58t-53.5 86.5t-36 101t-21 109.5t-10.5 104t-2.5 91zM18 1317q11 34 95 61q51 16 102.5 58t88 79t50.5 41q31 10 82 -20t68 -68q4 -10 -30.5 -44.5t-94 -74.5t-113.5 -59q-121 -40 -217 -12q-39 12 -31 39z" />
<glyph unicode="&#xee;" horiz-adv-x="507" d="M-230 1317q11 34 95 61q78 25 178 125q34 33 57.5 45.5t57 3.5t73.5 -49q100 -100 179 -125q90 -30 84 -57q-5 -16 -39 -27q-15 -8 -76.5 -1.5t-122.5 26.5q-31 11 -102 45q-76 -53 -136 -74q-121 -40 -217 -12q-39 12 -31 39zM4 590q0 142 11.5 257.5t11.5 117.5 q0 42 64 39q70 -4 135 -48q59 -40 59 -84q0 -35 -6.5 -136.5t-6.5 -147.5q0 -260 78 -434q38 20 77 122t60 197.5t21 128.5q0 43 38 83q27 27 33 13q1 -2 1 -6q0 -139 -26 -267.5t-66.5 -215.5t-88.5 -139t-92 -52h-4q-55 0 -100 22t-75.5 58t-53.5 86.5t-36 101t-21 109.5 t-10.5 104t-2.5 91z" />
<glyph unicode="&#xef;" horiz-adv-x="507" d="M-207 1303q0 55 34 86.5t75 33.5q43 5 84 -25t41 -79q0 -73 -30 -107t-81 -34q-39 0 -81 39t-42 86zM4 590q0 142 11.5 257.5t11.5 117.5q0 42 64 39q70 -4 135 -48q59 -40 59 -84q0 -35 -6.5 -136.5t-6.5 -147.5q0 -260 78 -434q38 20 77 122t60 197.5t21 128.5 q0 43 38 83q27 27 33 13q1 -2 1 -6q0 -139 -26 -267.5t-66.5 -215.5t-88.5 -139t-92 -52h-4q-55 0 -100 22t-75.5 58t-53.5 86.5t-36 101t-21 109.5t-10.5 104t-2.5 91zM221 1337q0 45 33 64.5t78 21.5q41 5 83 -25t42 -79q0 -70 -47 -105.5t-105 -35.5q-32 0 -58 54 t-26 105z" />
<glyph unicode="&#xf1;" horiz-adv-x="1019" d="M-20 786q0 11 31 19.5t75 8.5t88.5 -8t75.5 -33t31 -62q0 -18 -4.5 -156.5t-4.5 -175.5q0 -66 11 -141q37 122 77 240t96 262t116 246t112 132q4 4 16 8q16 4 23 4q25 0 39 -2q47 0 57 -10q54 -15 91.5 -43t37.5 -63q0 -42 -52 -321.5t-52 -364.5q0 -106 6 -176t13.5 -94 t13.5 -44t6 -37q0 -22 -44 -22q-70 0 -141 56q-125 98 -125 296q0 266 72 658q-30 -76 -155 -473.5t-171 -464.5q-3 -16 -16 -21h-6q-12 -4 -25 -4q-58 0 -104.5 35.5t-74 92.5t-48.5 128.5t-27.5 144t-12.5 139t-3.5 113t0.5 66.5v8q0 19 -11 30t-11 29zM166 1380 q1 11 10 11q12 0 42.5 -13.5t88.5 -13.5q44 0 155.5 21.5t190.5 21.5q108 0 171 -91q37 -52 34 -90q-1 -14 -10 -14q-11 0 -20 9t-17 19t-30.5 19t-57.5 9q-103 0 -235 -24.5t-173 -24.5q-62 0 -115 76q-37 53 -34 85z" />
<glyph unicode="&#xf2;" horiz-adv-x="796" d="M4 473q0 80 8.5 150.5t28 139.5t57.5 115t92 58q17 49 48 81t71.5 46t74.5 19t77 5q97 0 156 -102.5t59 -322.5q0 -97 -12.5 -190t-41.5 -181t-71.5 -153.5t-106 -105.5t-141.5 -40q-70 0 -124 30.5t-86 78.5t-53 113.5t-28.5 128t-7.5 130.5zM150 1468q17 38 67.5 68 t81.5 20q14 -4 50.5 -41t88.5 -79t103 -58q92 -30 95 -66q2 -23 -32 -34q-96 -28 -217 12q-54 19 -113.5 59t-93.5 74.5t-30 44.5zM323.5 349q-1.5 -57 1.5 -99t11.5 -77.5t26 -54t43.5 -18.5q37 0 74.5 89t58 215.5t25 253.5t-25.5 216t-92 89q-28 0 -40 -55t-26.5 -127 t-45.5 -99q0 -46 -2.5 -109.5t-4.5 -115t-3.5 -108.5z" />
<glyph unicode="&#xf3;" horiz-adv-x="796" d="M4 473q0 80 8.5 150.5t28 139.5t57.5 115t92 58q17 49 48 81t71.5 46t74.5 19t77 5q97 0 156 -102.5t59 -322.5q0 -97 -12.5 -190t-41.5 -181t-71.5 -153.5t-106 -105.5t-141.5 -40q-70 0 -124 30.5t-86 78.5t-53 113.5t-28.5 128t-7.5 130.5zM162 1317q10 34 94 61 q51 16 103 58t88.5 79t50.5 41q31 10 81.5 -20t67.5 -68q4 -10 -30 -44.5t-93.5 -74.5t-113.5 -59q-121 -40 -217 -12q-39 12 -31 39zM323.5 349q-1.5 -57 1.5 -99t11.5 -77.5t26 -54t43.5 -18.5q37 0 74.5 89t58 215.5t25 253.5t-25.5 216t-92 89q-28 0 -40 -55t-26.5 -127 t-45.5 -99q0 -46 -2.5 -109.5t-4.5 -115t-3.5 -108.5z" />
<glyph unicode="&#xf4;" horiz-adv-x="796" d="M4 473q0 80 8.5 150.5t28 139.5t57.5 115t92 58q17 49 48 81t71.5 46t74.5 19t77 5q97 0 156 -102.5t59 -322.5q0 -97 -12.5 -190t-41.5 -181t-71.5 -153.5t-106 -105.5t-141.5 -40q-70 0 -124 30.5t-86 78.5t-53 113.5t-28.5 128t-7.5 130.5zM32 1317q11 34 95 61 q78 25 178 125q34 33 57.5 45.5t57.5 3.5t74 -49q100 -100 178 -125q90 -30 84 -57q-5 -16 -39 -27q-15 -8 -76.5 -1.5t-122.5 26.5q-31 11 -102 45q-76 -54 -135 -74q-122 -40 -218 -12q-39 12 -31 39zM323.5 349q-1.5 -57 1.5 -99t11.5 -77.5t26 -54t43.5 -18.5 q37 0 74.5 89t58 215.5t25 253.5t-25.5 216t-92 89q-28 0 -40 -55t-26.5 -127t-45.5 -99q0 -46 -2.5 -109.5t-4.5 -115t-3.5 -108.5z" />
<glyph unicode="&#xf5;" horiz-adv-x="796" d="M4 473q0 80 8.5 150.5t28 139.5t57.5 115t92 58q17 49 48 81t71.5 46t74.5 19t77 5q97 0 156 -102.5t59 -322.5q0 -97 -12.5 -190t-41.5 -181t-71.5 -153.5t-106 -105.5t-141.5 -40q-70 0 -124 30.5t-86 78.5t-53 113.5t-28.5 128t-7.5 130.5zM56 1380q1 11 10 11 q12 0 42.5 -13.5t88.5 -13.5q44 0 155.5 21.5t190.5 21.5q108 0 171 -91q36 -52 33 -90q-1 -14 -10 -14q-11 0 -20 9t-17 19t-30.5 19t-57.5 9q-104 0 -235 -24.5t-172 -24.5q-62 0 -115 76q-37 53 -34 85zM323.5 349q-1.5 -57 1.5 -99t11.5 -77.5t26 -54t43.5 -18.5 q37 0 74.5 89t58 215.5t25 253.5t-25.5 216t-92 89q-28 0 -40 -55t-26.5 -127t-45.5 -99q0 -46 -2.5 -109.5t-4.5 -115t-3.5 -108.5z" />
<glyph unicode="&#xf6;" horiz-adv-x="796" d="M4 473q0 80 8.5 150.5t28 139.5t57.5 115t92 58q17 49 48 81t71.5 46t74.5 19t77 5q97 0 156 -102.5t59 -322.5q0 -97 -12.5 -190t-41.5 -181t-71.5 -153.5t-106 -105.5t-141.5 -40q-70 0 -124 30.5t-86 78.5t-53 113.5t-28.5 128t-7.5 130.5zM59 1382q0 57 35.5 90 t77.5 35q44 5 85.5 -26t41.5 -82q0 -74 -31 -109t-82 -35q-41 0 -84 39.5t-43 87.5zM323.5 349q-1.5 -57 1.5 -99t11.5 -77.5t26 -54t43.5 -18.5q37 0 74.5 89t58 215.5t25 253.5t-25.5 216t-92 89q-28 0 -40 -55t-26.5 -127t-45.5 -99q0 -46 -2.5 -109.5t-4.5 -115 t-3.5 -108.5zM498 1419q0 45 33.5 65.5t78.5 22.5q42 5 84.5 -26.5t42.5 -81.5q0 -72 -47 -108t-106 -36q-33 0 -59.5 55t-26.5 109z" />
<glyph unicode="&#xf7;" horiz-adv-x="1222" d="M125.5 838q3.5 -24 27.5 -42.5t60 -17.5q259 11 326 9.5t331 -17.5q73 0 107 55q28 46 5 87q-23 39 -81 40q-60 6 -111.5 8.5t-105 1.5t-88 -2t-94 -8t-87 -10.5t-102.5 -14t-108 -14.5q-42 -6 -62.5 -28.5t-17 -46.5zM430 506q-3 43 28 84t81 41q70 0 106.5 -47 t36.5 -105q0 -34 -55 -60t-109 -26q-45 0 -65.5 34t-22.5 79zM430 1202q-3 43 28 84t81 41q70 0 106.5 -46.5t36.5 -104.5q0 -34 -55 -60t-109 -26q-45 0 -65.5 33.5t-22.5 78.5z" />
<glyph unicode="&#xf8;" horiz-adv-x="796" d="M-43 -126q-15 31 8 72q10 17 23 25q29 18 98 142q-82 128 -82 360q0 80 8.5 150.5t28 139.5t57.5 115t92 58q17 49 48 81t71.5 46t74.5 19t77 5q64 0 110 -40q67 105 107 131q26 26 45.5 24t21 -21t-7.5 -40q-25 -15 -106 -187q45 -106 45 -292q0 -97 -12.5 -190 t-41.5 -181t-71.5 -153.5t-106 -105.5t-141.5 -40q-58 0 -110 22q-75 -120 -121 -141q-92 -46 -115 1zM324 262q10 -162 82 -162q44 0 86.5 118t61.5 282t3 286q-23 -52 -70 -160.5t-87 -198.5t-76 -165zM334 604q94 193 172 332q-27 27 -60 27q-28 0 -40 -55t-26.5 -127 t-45.5 -99v-78z" />
<glyph unicode="&#xf9;" horiz-adv-x="854" d="M-6 344q0 130 25.5 381t25.5 268q0 14 -7 37.5t-10.5 37.5t7.5 25t43 11q86 0 162.5 -41t76.5 -94q0 -25 -19.5 -118.5t-38.5 -229.5t-19 -263q0 -153 22 -243q126 289 187 485q8 152 8 164q0 90 57 90q25 0 59.5 -5t78 -16.5t73 -37t29.5 -60.5q0 -21 -8 -63t-16.5 -130 t-8.5 -220q0 -63 7.5 -122t15 -89t11 -53.5t-4.5 -31.5t-31 -8q-51 0 -99.5 18.5t-90 55.5t-66.5 101t-25 147q0 63 2 100l-155 -391q16 -46 16 -57q0 -21 -42 -19q-70 2 -139 59q-126 104 -126 312zM178 1468q17 38 68 68t82 20q14 -4 50.5 -41t88 -79t102.5 -58 q92 -30 96 -66q2 -23 -32 -34q-96 -28 -217 12q-54 19 -113.5 59t-94 74.5t-30.5 44.5z" />
<glyph unicode="&#xfa;" horiz-adv-x="854" d="M-6 344q0 130 25.5 381t25.5 268q0 14 -7 37.5t-10.5 37.5t7.5 25t43 11q86 0 162.5 -41t76.5 -94q0 -25 -19.5 -118.5t-38.5 -229.5t-19 -263q0 -153 22 -243q126 289 187 485q8 152 8 164q0 90 57 90q25 0 59.5 -5t78 -16.5t73 -37t29.5 -60.5q0 -21 -8 -63t-16.5 -130 t-8.5 -220q0 -63 7.5 -122t15 -89t11 -53.5t-4.5 -31.5t-31 -8q-51 0 -99.5 18.5t-90 55.5t-66.5 101t-25 147q0 63 2 100l-155 -391q16 -46 16 -57q0 -21 -42 -19q-70 2 -139 59q-126 104 -126 312zM190 1317q11 34 95 61q51 16 102.5 58t88 79t50.5 41q31 10 82 -20 t68 -68q4 -10 -30.5 -44.5t-94 -74.5t-113.5 -59q-121 -40 -217 -12q-39 12 -31 39z" />
<glyph unicode="&#xfb;" horiz-adv-x="854" d="M-6 344q0 130 25.5 381t25.5 268q0 14 -7 37.5t-10.5 37.5t7.5 25t43 11q86 0 162.5 -41t76.5 -94q0 -25 -19.5 -118.5t-38.5 -229.5t-19 -263q0 -153 22 -243q126 289 187 485q8 152 8 164q0 90 57 90q25 0 59.5 -5t78 -16.5t73 -37t29.5 -60.5q0 -21 -8 -63t-16.5 -130 t-8.5 -220q0 -63 7.5 -122t15 -89t11 -53.5t-4.5 -31.5t-31 -8q-51 0 -99.5 18.5t-90 55.5t-66.5 101t-25 147q0 63 2 100l-155 -391q16 -46 16 -57q0 -21 -42 -19q-70 2 -139 59q-126 104 -126 312zM61 1317q11 34 95 61q78 25 178 125q34 33 57.5 45.5t57 3.5t73.5 -49 q100 -100 178 -125q90 -30 84 -57q-5 -16 -39 -27q-15 -8 -76 -1.5t-122 26.5q-35 12 -103 45q-76 -54 -135 -74q-121 -40 -217 -12q-39 12 -31 39z" />
<glyph unicode="&#xfc;" horiz-adv-x="854" d="M-6 344q0 130 25.5 381t25.5 268q0 14 -7 37.5t-10.5 37.5t7.5 25t43 11q86 0 162.5 -41t76.5 -94q0 -25 -19.5 -118.5t-38.5 -229.5t-19 -263q0 -153 22 -243q126 289 187 485q8 152 8 164q0 90 57 90q25 0 59.5 -5t78 -16.5t73 -37t29.5 -60.5q0 -21 -8 -63t-16.5 -130 t-8.5 -220q0 -63 7.5 -122t15 -89t11 -53.5t-4.5 -31.5t-31 -8q-51 0 -99.5 18.5t-90 55.5t-66.5 101t-25 147q0 63 2 100l-155 -391q16 -46 16 -57q0 -21 -42 -19q-70 2 -139 59q-126 104 -126 312zM88 1382q0 57 35.5 90t77.5 35q44 5 85.5 -26t41.5 -82q0 -74 -31 -109 t-82 -35q-41 0 -84 39.5t-43 87.5zM526 1419q0 45 34 65.5t79 22.5q42 5 84.5 -26.5t42.5 -81.5q0 -72 -47.5 -108t-106.5 -36q-33 0 -59.5 55t-26.5 109z" />
<glyph unicode="&#xfd;" horiz-adv-x="841" d="M-100 -371q2 17 12 19.5t29 -7t41 -21.5t55 -24.5t63 -15.5q35 -4 84.5 19.5t104 77t100.5 127.5t76.5 184.5t30.5 234.5q0 110 -4 352q-103 -481 -183 -557q-3 -9 -16 -12q-1 0 -4.5 -1t-5.5 -1q-25 -3 -58.5 6.5t-73 36.5t-72.5 67.5t-55 109.5t-22 153q0 131 26.5 382 t26.5 267q0 14 -7 37.5t-10.5 38t8 26t42.5 11.5q84 0 162 -41.5t78 -96.5q0 -25 -20 -118t-40 -228.5t-20 -263.5q0 -173 31 -268q208 643 208 764v16q0 14 -7 37.5t-10.5 38t8 26t42.5 11.5q82 0 148.5 -40.5t66.5 -96.5q0 -10 7.5 -181.5t7.5 -345.5q0 -181 -51.5 -353 t-134.5 -296.5t-195.5 -194.5t-227.5 -57q-110 13 -178 70t-63 108zM184 1317q11 34 95 61q51 16 102.5 58t88 79t50.5 41q31 10 82 -20t68 -68q4 -10 -30.5 -44.5t-94 -74.5t-113.5 -59q-121 -40 -217 -12q-39 12 -31 39z" />
<glyph unicode="&#xff;" horiz-adv-x="841" d="M-100 -371q2 17 12 19.5t29 -7t41 -21.5t55 -24.5t63 -15.5q35 -4 84.5 19.5t104 77t100.5 127.5t76.5 184.5t30.5 234.5q0 110 -4 352q-103 -481 -183 -557q-3 -9 -16 -12q-1 0 -4.5 -1t-5.5 -1q-25 -3 -58.5 6.5t-73 36.5t-72.5 67.5t-55 109.5t-22 153q0 131 26.5 382 t26.5 267q0 14 -7 37.5t-10.5 38t8 26t42.5 11.5q84 0 162 -41.5t78 -96.5q0 -25 -20 -118t-40 -228.5t-20 -263.5q0 -173 31 -268q208 643 208 764v16q0 14 -7 37.5t-10.5 38t8 26t42.5 11.5q82 0 148.5 -40.5t66.5 -96.5q0 -10 7.5 -181.5t7.5 -345.5q0 -181 -51.5 -353 t-134.5 -296.5t-195.5 -194.5t-227.5 -57q-110 13 -178 70t-63 108zM82 1382q0 57 35.5 90t77.5 35q44 5 85.5 -26t41.5 -82q0 -74 -31 -109t-82 -35q-41 0 -84 39.5t-43 87.5zM520 1419q0 45 34 65.5t79 22.5q42 5 84.5 -26.5t42.5 -81.5q0 -72 -47.5 -108t-106.5 -36 q-33 0 -59.5 55t-26.5 109z" />
<glyph unicode="&#x152;" horiz-adv-x="2283" d="M-47 1083q0 58 11 131t33.5 149.5t64 127.5t94.5 51q41 0 71 -6q17 69 41 129.5t64.5 124.5t91.5 109.5t125 74.5t162 29q346 0 485 -248q118 153 262.5 252.5t263.5 99.5q90 0 160 -63q20 86 81 213t89 127q39 0 95.5 -59.5t56.5 -108.5q0 -26 -41.5 -99.5t-83 -156.5 t-41.5 -131q0 -9 1.5 -22t1.5 -17.5t-5 -8t-17 -3.5q-30 0 -69 30.5t-60 92.5q-26 -13 -45 -13q-35 0 -132 -64t-219.5 -177.5t-201.5 -227.5q6 -135 6 -139q0 -110 -26 -246q27 6 47 23q153 170 311 279.5t248 109.5q59 0 122.5 -67t63.5 -124q0 -12 -39.5 -46.5 t-104.5 -82.5t-148 -115t-169.5 -141t-169.5 -163t-148 -177.5t-104.5 -189t-39.5 -193.5q0 -60 35 -116h16q64 0 158 57.5t187.5 143.5t178 171.5t152 157t86.5 84.5q30 111 74 199t67 88q76 0 156 -60t80 -116q0 -23 -27 -79.5t-59 -117t-59 -143t-27 -150.5 q0 -48 14.5 -94t27.5 -67.5t33 -50.5q23 -28 20.5 -40t-44.5 -12q-80 0 -157.5 74t-110.5 207q-88 -91 -194 -178.5t-222.5 -154.5t-188.5 -67q-74 0 -128.5 27t-71.5 61q-121 62 -174 160q-157 -246 -330 -246q-107 0 -200 44t-161 118t-123 174.5t-91 209.5t-60 227 t-34.5 223.5t-10.5 201.5zM309 881q0 -36 5.5 -107t16.5 -174t32 -207t49 -194.5t70.5 -147.5t92.5 -57q75 0 150 137t127 336t84.5 420t32.5 393v23v82.5t-1.5 85.5t-5.5 91.5t-9.5 84t-16 78.5t-24 59t-33.5 43t-45 14q-50 0 -110.5 -67.5t-107.5 -157.5t-79.5 -178.5 t-32.5 -130.5q0 -24 3 -53.5t5.5 -48t1.5 -38t-8 -30.5t-25 -18t-47 -7q-47 0 -106 27q-19 -137 -19 -258z" />
<glyph unicode="&#x153;" horiz-adv-x="1245" d="M-2 465q0 79 8.5 150.5t28.5 140t58.5 114.5t92.5 58q17 49 48 81t71 46t74 19t76 5q70 0 121 -54t75 -169q61 125 125 182q38 33 110 45.5t135 7t97 -21.5q47 -22 77 -87.5t30 -150.5q0 -156 -66 -241.5t-170 -85.5q-56 0 -149 26q-8 -104 3 -195t46 -151.5t88 -60.5 q48 0 95.5 24.5t83 59.5t69.5 82t53.5 82.5t37.5 70.5t19 37q15 24 41 26q20 2 19 -13q0 -6 -4 -13q-1 -2 -17.5 -38t-37 -75.5t-51.5 -93.5t-69 -101t-82 -88.5t-97.5 -66t-108.5 -24.5q-128 0 -210 64.5t-122 170.5q-47 -112 -121.5 -177.5t-175.5 -65.5q-70 0 -124 30.5 t-86.5 78.5t-53.5 113.5t-29 128.5t-8 130zM317.5 343q-1.5 -57 1.5 -99t11.5 -77.5t26 -54t44.5 -18.5q37 0 74 88.5t57.5 215t25.5 253t-25 215t-91 88.5q-29 0 -41 -54.5t-26 -126t-45 -99.5q0 -45 -3 -109t-5.5 -114.5t-4 -107.5zM844 573q124 -53 197 49q51 73 52 177 q1 87 -34 110q-9 6 -19 6q-75 0 -126 -98.5t-70 -243.5z" />
<glyph unicode="&#x178;" horiz-adv-x="1290" d="M-31 600q0 26 15.5 353.5t15.5 697.5q0 26 -5.5 59.5t-10.5 56.5t-5.5 47t7 38.5t29.5 24t61 9.5q26 0 61 -11.5t73 -36.5t70 -58.5t53 -83t21 -105.5q0 -67 -13 -264t-26.5 -405.5t-22 -416t2.5 -340t45 -132.5q41 0 104 68t134 182t131 223.5t120 230.5q21 339 21 754 q0 10 -2 29t-3 31.5t1.5 28t10 25.5t24.5 16.5t43 6.5q88 0 157.5 -74t69.5 -204q1 -30 3 -81.5t2 -209.5t-6.5 -312t-26 -362.5t-51.5 -388t-89.5 -362.5t-132.5 -312t-188 -210t-250 -81q-72 0 -154 62q-75 57 -83 108t63 65q25 5 57 5q80 0 148 49.5t119.5 141 t92.5 205.5t71 259t50 286t35 300q-53 -105 -106 -194.5t-117 -178t-129.5 -139.5t-122.5 -51q-35 0 -78 17.5t-95 64t-94.5 116.5t-71 188t-28.5 265zM293 2003q0 57 35.5 90t77.5 35q43 5 84.5 -26.5t41.5 -82.5q0 -74 -30.5 -108.5t-81.5 -34.5q-41 0 -84 39.5t-43 87.5z M731 2040q0 45 34 65.5t79 22.5q42 5 84.5 -26.5t42.5 -82.5q0 -71 -47 -107t-107 -36q-33 0 -59.5 55t-26.5 109z" />
<glyph unicode="&#x2c6;" horiz-adv-x="866" d="M59 1317q11 34 95 61q78 25 178 125q34 33 57.5 45.5t57 3.5t73.5 -49q100 -100 178 -125q90 -30 84 -57q-5 -16 -39 -27q-15 -8 -76 -1.5t-122 26.5q-35 12 -103 45q-76 -54 -135 -74q-121 -40 -217 -12q-39 12 -31 39z" />
<glyph unicode="&#x2dc;" horiz-adv-x="1071" d="M137 1380q1 11 10 11q12 0 43 -13.5t89 -13.5q44 0 155.5 21.5t190.5 21.5q108 0 171 -91q36 -52 33 -90q-1 -14 -10 -14q-11 0 -20 9t-17 19t-30.5 19t-57.5 9q-104 0 -235 -24.5t-172 -24.5q-62 0 -115 76q-38 53 -35 85z" />
<glyph unicode="&#x2000;" horiz-adv-x="1311" />
<glyph unicode="&#x2001;" horiz-adv-x="2623" />
<glyph unicode="&#x2002;" horiz-adv-x="1311" />
<glyph unicode="&#x2003;" horiz-adv-x="2623" />
<glyph unicode="&#x2004;" horiz-adv-x="874" />
<glyph unicode="&#x2005;" horiz-adv-x="655" />
<glyph unicode="&#x2006;" horiz-adv-x="437" />
<glyph unicode="&#x2007;" horiz-adv-x="437" />
<glyph unicode="&#x2008;" horiz-adv-x="327" />
<glyph unicode="&#x2009;" horiz-adv-x="524" />
<glyph unicode="&#x200a;" horiz-adv-x="145" />
<glyph unicode="&#x2010;" horiz-adv-x="1222" d="M125.5 838q-3.5 24 17 46.5t62.5 28.5q33 4 108 14.5t102.5 14t87 10.5t94 8t88 2t105 -1.5t111.5 -8.5q68 -1 86 -51q15 -45 -19 -87q-36 -43 -98 -44q-264 16 -331 17.5t-326 -9.5q-36 -1 -60 17.5t-27.5 42.5z" />
<glyph unicode="&#x2011;" horiz-adv-x="1222" d="M125.5 838q-3.5 24 17 46.5t62.5 28.5q33 4 108 14.5t102.5 14t87 10.5t94 8t88 2t105 -1.5t111.5 -8.5q68 -1 86 -51q15 -45 -19 -87q-36 -43 -98 -44q-264 16 -331 17.5t-326 -9.5q-36 -1 -60 17.5t-27.5 42.5z" />
<glyph unicode="&#x2012;" horiz-adv-x="1222" d="M125.5 838q-3.5 24 17 46.5t62.5 28.5q33 4 108 14.5t102.5 14t87 10.5t94 8t88 2t105 -1.5t111.5 -8.5q68 -1 86 -51q15 -45 -19 -87q-36 -43 -98 -44q-264 16 -331 17.5t-326 -9.5q-36 -1 -60 17.5t-27.5 42.5z" />
<glyph unicode="&#x2013;" horiz-adv-x="1222" d="M125.5 838q-3.5 24 17 46.5t62.5 28.5q33 4 108 14.5t102.5 14t87 10.5t94 8t88 2t105 -1.5t111.5 -8.5q68 -1 86 -51q15 -45 -19 -87q-36 -43 -98 -44q-264 16 -331 17.5t-326 -9.5q-36 -1 -60 17.5t-27.5 42.5z" />
<glyph unicode="&#x2014;" horiz-adv-x="1769" d="M133 827q-15 45 19 87q35 44 98 44q243 -15 660.5 -17.5t654.5 9.5q36 1 60 -17.5t27.5 -42.5t-17 -46.5t-62.5 -28.5q-215 -29 -674 -43.5t-680 4.5q-68 1 -86 51z" />
<glyph unicode="&#x2018;" horiz-adv-x="389" d="M82.5 1469q-0.5 35 1.5 85t7 84.5t17 72t30 60t46.5 37.5t65.5 15q22 0 30.5 -6.5t8 -26t-5.5 -42.5t-10 -69t-5 -94q0 -50 5.5 -135t5.5 -92q0 -33 -42 -70.5t-87 -36.5q-42 0 -53 12t-11 40q0 27 -1.5 79t-2 87z" />
<glyph unicode="&#x2019;" horiz-adv-x="401" d="M94.5 1269.5q0.5 19.5 5.5 42.5t10 69t5 94q0 50 -5.5 135t-5.5 92q0 33 42 70t87 36q42 0 53 -12t11 -39t1.5 -79t2 -87t-1.5 -85t-7 -84.5t-17 -72t-30 -60t-46.5 -37.5t-65.5 -15q-22 0 -30.5 6.5t-8 26z" />
<glyph unicode="&#x201a;" horiz-adv-x="407" d="M94.5 -70q0.5 19 5.5 42t10 69t5 94q0 50 -5.5 135t-5.5 92q0 33 42 70.5t87 36.5q42 0 53 -12t11 -39t1.5 -79t2 -87t-1.5 -85t-7 -84.5t-17 -72t-30 -60t-46.5 -37.5t-65.5 -15q-22 0 -30.5 6.5t-8 25.5z" />
<glyph unicode="&#x201c;" horiz-adv-x="751" d="M82.5 1469q-0.5 35 1.5 85t7 84.5t17 72t30 60t46.5 37.5t65.5 15q22 0 30.5 -6.5t8 -26t-5.5 -42.5t-10 -69t-5 -94q0 -50 5.5 -135t5.5 -92q0 -33 -42 -70.5t-87 -36.5q-42 0 -53 12t-11 40q0 27 -1.5 79t-2 87zM416.5 1469q-0.5 35 1.5 85t7 84.5t17 72t30 60 t46.5 37.5t65.5 15q22 0 30.5 -6.5t8 -26t-5.5 -42.5t-10 -69t-5 -94q0 -50 5 -135t5 -92q0 -33 -42 -70.5t-87 -36.5q-42 0 -52.5 12t-10.5 40q0 27 -1.5 79t-2 87z" />
<glyph unicode="&#x201d;" horiz-adv-x="751" d="M94.5 1269.5q0.5 19.5 5.5 42.5t10 69t5 94q0 50 -5.5 135t-5.5 92q0 33 42 70t87 36q42 0 53 -12t11 -39t1.5 -79t2 -87t-1.5 -85t-7 -84.5t-17 -72t-30 -60t-46.5 -37.5t-65.5 -15q-22 0 -30.5 6.5t-8 26zM428.5 1269.5q0.5 19.5 5.5 42.5t10 69t5 94q0 50 -5.5 135 t-5.5 92q0 33 42 70t87 36q42 0 53 -12t11 -39t1.5 -79t2 -87t-1.5 -85t-7 -84.5t-17 -72t-30 -60t-46.5 -37.5t-65.5 -15q-22 0 -30.5 6.5t-8 26z" />
<glyph unicode="&#x201e;" horiz-adv-x="729" d="M94.5 -70q0.5 19 5.5 42t10 69t5 94q0 50 -5.5 135t-5.5 92q0 33 42 70.5t87 36.5q42 0 53 -12t11 -39t1.5 -79t2 -87t-1.5 -85t-7 -84.5t-17 -72t-30 -60t-46.5 -37.5t-65.5 -15q-22 0 -30.5 6.5t-8 25.5zM409.5 -79q-3.5 32 9.5 102.5t13 111.5q0 50 -5 135t-5 92 q2 32 43.5 63.5t91.5 31.5q23 0 40 -28t17 -54v-62.5t-1 -63.5t-3.5 -67t-6.5 -63t-10.5 -62t-15 -53.5t-21 -47.5t-28.5 -35t-36.5 -24.5t-45.5 -7.5q-33 0 -36.5 32z" />
<glyph unicode="&#x2022;" horiz-adv-x="1204" d="M2 823q13 35 210 72t255 23q14 -3 24.5 -18.5t10.5 -31.5q4 -8 4 -20q0 -6 -2 -59t-2 -117q68 22 135 37q3 108 15.5 200.5t29.5 96.5q26 5 44.5 -5.5t18.5 -42.5q0 -5 -2 -73.5t-2 -153.5q13 0 19 2q27 5 29 -15q2 -21 -22 -36l-17 -6h-9v-45q0 -109 11 -208 q4 -32 2 -41.5t-17 -12.5q-28 -6 -64 95t-36 193q-33 -6 -137 -28v-58q0 -42 1 -102q1 -80 -3 -98t-25 -23q-17 -4 -30.5 37.5t-20 98.5t-6.5 112q0 223 14 266q-37 0 -139 -26q2 -4 2 -11q0 -89 -14 -296t-41 -212q-20 -5 -30.5 51.5t-11.5 154t-0.5 158t3.5 128.5 q-158 -47 -168 -45q-14 3 -24.5 22.5t-4.5 36.5zM167 194.5q3 10.5 15 10.5q126 5 312.5 47.5t398.5 104.5t233 67q21 6 21 -4q-2 -10 -21 -21q-109 -65 -347 -154.5t-365 -107.5q-40 -9 -89.5 -1t-74.5 15.5t-60 20.5q-7 3 -10 4q-16 8 -13 18.5zM818.5 968q0.5 10 6.5 15 q8 15 23 23q162 64 285 75q23 5 26 -20q3 -27 -19 -45q-8 -6 -18 -8q-107 -15 -237 -47q36 -51 45 -179q25 6 78 17t75 16q19 4 20 -16q2 -22 -18 -32l-8 -3q-27 -6 -77.5 -19.5t-67.5 -17.5v-6q0 -21 -14 -193q65 12 225 58q21 5 26 -15q6 -22 -17 -36q-3 -2 -7 -3 q-139 -55 -236 -67q-7 -17 -20 -21q-16 -3 -37 14t-21 38q0 10 4.5 98t4.5 129q0 51 -3.5 97t-7.5 71.5t-7.5 46t-3 30.5z" />
<glyph unicode="&#x2026;" horiz-adv-x="1355" d="M82 170q-3 59 40 115.5t114 56.5q95 0 145.5 -66t50.5 -145q0 -48 -75.5 -83.5t-151.5 -35.5q-61 0 -91 47.5t-32 110.5zM516 170q-3 59 40 115.5t114 56.5q95 0 145.5 -66t50.5 -145q0 -48 -75.5 -83.5t-151.5 -35.5q-61 0 -91 47.5t-32 110.5zM950 170q-3 59 40 115.5 t114 56.5q95 0 145.5 -66t50.5 -145q0 -48 -75.5 -83.5t-151.5 -35.5q-61 0 -91 47.5t-32 110.5z" />
<glyph unicode="&#x202f;" horiz-adv-x="524" />
<glyph unicode="&#x2039;" horiz-adv-x="931" d="M54.5 654.5q5.5 25.5 29.5 45.5q79 64 170 158q28 27 112 112.5t89 90.5q70 89 197 98q95 7 152 -31q52 -36 20 -80l-5 -6q-32 -37 -116.5 -122t-172.5 -160q-51 -43 -120.5 -106t-90.5 -81q-8 -7 25 -42.5t80 -79.5q75 -75 190.5 -183.5t116.5 -109.5q25 -26 -21 -52 q-51 -28 -110 -22q-34 4 -51 20q-19 18 -123.5 114.5t-128.5 121.5q-15 15 -45 42t-55.5 51t-55.5 54.5t-49 58t-31 55.5t-6.5 53.5z" />
<glyph unicode="&#x203a;" horiz-adv-x="931" d="M83 174q2 3 5 6q36 41 118 125t169 158q46 39 116 101.5t97 84.5q11 11 -107 123q-75 75 -190.5 183.5t-116.5 109.5q-25 26 21 51q51 29 111 22q33 -3 50 -20q19 -19 123.5 -115t128.5 -120q14 -15 44.5 -42t56 -51t55.5 -54.5t49 -58.5t31 -56t6.5 -53.5t-29.5 -45.5 q-83 -68 -170 -157q-24 -23 -102 -103.5t-98 -99.5q-70 -89 -198 -99q-95 -6 -151 32q-52 35 -19 79z" />
<glyph unicode="&#x205f;" horiz-adv-x="655" />
<glyph unicode="&#x20ac;" horiz-adv-x="1251" d="M-3 755q-2 48 24 70q14 12 32 6q102 -19 174 -28q0 27 9 119q-21 2 -57.5 7t-51.5 7q-41 14 -45 69q-2 47 24 69q15 12 33 7q16 -4 35.5 -7.5t44 -7.5t39.5 -7q32 147 95 275.5t149.5 225t199 152t236.5 55.5q256 0 256 -368q0 -38 -54 -84q-57 -47 -96 -39q-32 6 -32 53 q0 198 -20 271t-60 73q-127 0 -228.5 -179.5t-138.5 -463.5q271 -10 502 27q36 5 54.5 -7.5t7.5 -32t-50 -32.5q-251 -86 -528 -86q-2 -39 -6 -121q233 -3 436 29q36 5 54.5 -7.5t7.5 -32t-50 -32.5q-216 -74 -446 -84q7 -113 32 -210.5t57.5 -160.5t69.5 -108.5t68.5 -65.5 t54.5 -20q36 0 77 88.5t66 184t25 133.5q0 35 38 33q46 -1 88 -45q44 -46 44 -105q0 -11 -2 -30.5t-9.5 -57t-20.5 -73.5t-38.5 -76t-59 -69.5t-86.5 -49t-117 -19.5q-255 0 -415 177.5t-188 484.5q-33 3 -188 24q-42 14 -46 69z" />
<glyph unicode="&#x2122;" d="M109 1516q22 36 250.5 30t297.5 -37q20 -7 31.5 -32.5t3.5 -40.5q-2 -6 -6.5 -7.5t-10.5 0.5t-12 5.5t-13.5 7.5t-12.5 6q-37 16 -188 12v-14q3 -13 -2 -154.5t-21 -284.5t-39 -143q-66 0 -47 588q-184 -19 -197 -12q-17 6 -28.5 32.5t-5.5 43.5zM729 1198 q0 50 5.5 115.5t10.5 113t5 52.5q0 41 26 41q20 0 54 -26.5t34 -51.5v-2q57 -129 107 -209q40 61 119 166.5t104 118.5l2 4q32 0 55 -14.5t23 -45.5q0 -14 -11 -50t-22.5 -107.5t-11.5 -172.5q0 -44 1 -111q1 -105 -4 -127t-30 -22q-30 0 -49 102.5t-19 209.5q0 60 9 121 q-61 -79 -93 -115q-55 -62 -88 -25q-60 77 -100 170q-12 -106 -12 -162q0 -53 4.5 -100t11.5 -78t14.5 -57.5t13 -41t7.5 -25t-1.5 -14t-14.5 -3.5q-47 0 -98.5 100t-51.5 246z" />
<glyph unicode="&#x25fc;" horiz-adv-x="1105" d="M0 0v1106h1106v-1106h-1106z" />
<glyph unicode="&#xfb01;" horiz-adv-x="1267" d="M-264 1432q0 15 7 19.5t25 1.5t40.5 -9t64 -11.5t84.5 -5.5q47 0 231 9q43 340 139 494.5t294 154.5q96 0 172 -73q47 -45 45 -74q0 -15 -17 -15q-165 0 -242 -102t-116 -361q71 6 181.5 17.5t176.5 17.5t103 6q22 0 32 -2q72 -8 124.5 -74t52.5 -127q0 -77 -76 -94.5 t-163.5 24.5t-117.5 113q-74 -9 -332 -53q-51 -517 -51 -911q0 -191 18 -347t33 -215.5t35 -120.5q15 -41 11.5 -51t-35.5 -10q-96 0 -175 123.5t-120 305t-41 368.5q0 120 5.5 245.5t11.5 201.5t17 199t15 169q-148 -18 -234 -18q-53 0 -93.5 21.5t-62 54.5t-32 66 t-10.5 63zM756 549q0 142 11 257.5t11 117.5q0 42 64 39q70 -4 135 -48q59 -40 59 -84q0 -35 -6 -136.5t-6 -147.5q0 -260 78 -434q38 20 77 122t60 197.5t21 128.5q0 43 38 83q26 27 32 13q1 -2 1 -6q0 -139 -26 -267.5t-66 -215.5t-88 -139t-92 -52h-4q-55 0 -100 22 t-75.5 58t-53.5 86.5t-36 101t-21 109.5t-10.5 104t-2.5 91z" />
</font>
</defs>
</svg>
